G04 #@! TF.GenerationSoftware,KiCad,Pcbnew,5.1.4+dfsg1-2*
G04 #@! TF.CreationDate,2019-11-27T21:42:57+01:00*
G04 #@! TF.ProjectId,theroof,74686572-6f6f-4662-9e6b-696361645f70,rev?*
G04 #@! TF.SameCoordinates,Original*
G04 #@! TF.FileFunction,Copper,L2,Bot*
G04 #@! TF.FilePolarity,Positive*
%FSLAX46Y46*%
G04 Gerber Fmt 4.6, Leading zero omitted, Abs format (unit mm)*
G04 Created by KiCad (PCBNEW 5.1.4+dfsg1-2) date 2019-11-27 21:42:57*
%MOMM*%
%LPD*%
G04 APERTURE LIST*
%ADD10O,1.600000X1.600000*%
%ADD11R,1.600000X1.600000*%
%ADD12C,1.440000*%
%ADD13C,1.600000*%
%ADD14O,1.440000X2.000000*%
%ADD15R,1.440000X2.000000*%
%ADD16O,2.200000X2.200000*%
%ADD17R,2.200000X2.200000*%
%ADD18O,2.400000X1.600000*%
%ADD19R,2.400000X1.600000*%
%ADD20C,2.600000*%
%ADD21C,2.200000*%
%ADD22C,0.250000*%
%ADD23C,0.254000*%
G04 APERTURE END LIST*
D10*
X139460000Y-113150000D03*
X136920000Y-113150000D03*
X176540000Y-113150000D03*
X136920000Y-64890000D03*
X174000000Y-113150000D03*
X139460000Y-64890000D03*
X171460000Y-113150000D03*
X142000000Y-64890000D03*
X168920000Y-113150000D03*
X144540000Y-64890000D03*
X166380000Y-113150000D03*
X147080000Y-64890000D03*
X163840000Y-113150000D03*
X149620000Y-64890000D03*
X161300000Y-113150000D03*
X154700000Y-64890000D03*
X158760000Y-113150000D03*
X157240000Y-64890000D03*
X154700000Y-113150000D03*
X159780000Y-64890000D03*
X152160000Y-113150000D03*
X162320000Y-64890000D03*
X149620000Y-113150000D03*
X164860000Y-64890000D03*
X147080000Y-113150000D03*
X167400000Y-64890000D03*
X144540000Y-113150000D03*
X169940000Y-64890000D03*
X142000000Y-113150000D03*
D11*
X172480000Y-64890000D03*
D10*
X179080000Y-113150000D03*
X181620000Y-113150000D03*
D12*
X181730000Y-86600000D03*
X179190000Y-84060000D03*
X176650000Y-86600000D03*
D13*
X177150000Y-104950000D03*
X174650000Y-104950000D03*
D14*
X159860000Y-71030000D03*
X159860000Y-78650000D03*
X157320000Y-71030000D03*
X157320000Y-78650000D03*
X154780000Y-71030000D03*
X154780000Y-78650000D03*
X152240000Y-71030000D03*
X152240000Y-78650000D03*
X149700000Y-71030000D03*
X149700000Y-78650000D03*
X147160000Y-71030000D03*
X147160000Y-78650000D03*
X144620000Y-71030000D03*
X144620000Y-78650000D03*
X142080000Y-71030000D03*
X142080000Y-78650000D03*
X139540000Y-71030000D03*
X139540000Y-78650000D03*
X137000000Y-71030000D03*
D15*
X137000000Y-78650000D03*
D10*
X174020000Y-109650000D03*
D13*
X166400000Y-109650000D03*
D16*
X182270000Y-90650000D03*
D17*
X174650000Y-90650000D03*
D13*
X171400000Y-79350000D03*
X168900000Y-79350000D03*
D18*
X182270000Y-94000000D03*
X174650000Y-101620000D03*
X182270000Y-96540000D03*
X174650000Y-99080000D03*
X182270000Y-99080000D03*
X174650000Y-96540000D03*
X182270000Y-101620000D03*
D19*
X174650000Y-94000000D03*
D13*
X182200000Y-105000000D03*
X179700000Y-105000000D03*
X131600000Y-64900000D03*
X134100000Y-64900000D03*
X131600000Y-89150000D03*
X134100000Y-89150000D03*
X137000000Y-110000000D03*
X139500000Y-110000000D03*
D14*
X164940000Y-95680000D03*
X164940000Y-103300000D03*
X162400000Y-95680000D03*
X162400000Y-103300000D03*
X159860000Y-95680000D03*
X159860000Y-103300000D03*
X157320000Y-95680000D03*
X157320000Y-103300000D03*
X154780000Y-95680000D03*
X154780000Y-103300000D03*
X152240000Y-95680000D03*
X152240000Y-103300000D03*
X149700000Y-95680000D03*
X149700000Y-103300000D03*
X147160000Y-95680000D03*
X147160000Y-103300000D03*
X144620000Y-95680000D03*
X144620000Y-103300000D03*
X142080000Y-95680000D03*
X142080000Y-103300000D03*
X139540000Y-95680000D03*
X139540000Y-103300000D03*
X137000000Y-95680000D03*
D15*
X137000000Y-103300000D03*
D10*
X159860000Y-89150000D03*
X157320000Y-89150000D03*
X154780000Y-89150000D03*
X152240000Y-89150000D03*
X149700000Y-89150000D03*
X147160000Y-89150000D03*
X144620000Y-89150000D03*
X142080000Y-89150000D03*
X139540000Y-89150000D03*
D11*
X137000000Y-89150000D03*
D20*
X181850000Y-74900000D03*
X176850000Y-78900000D03*
D21*
X181850000Y-78900000D03*
X176850000Y-74900000D03*
D13*
X137000000Y-85550000D03*
X139500000Y-85550000D03*
X172700000Y-85550000D03*
D11*
X168900000Y-85550000D03*
D13*
X173650000Y-70550000D03*
D11*
X169850000Y-70550000D03*
D22*
X164940000Y-79540000D02*
X164940000Y-95680000D01*
X164940000Y-77840000D02*
X164940000Y-79540000D01*
X159860000Y-71030000D02*
X159860000Y-72760000D01*
X159860000Y-72760000D02*
X164940000Y-77840000D01*
X164940000Y-97590000D02*
X164940000Y-95680000D01*
X171460000Y-113150000D02*
X171460000Y-104110000D01*
X171460000Y-104110000D02*
X164940000Y-97590000D01*
X157320000Y-72770000D02*
X157320000Y-71030000D01*
X162400000Y-95680000D02*
X162400000Y-77850000D01*
X162400000Y-77850000D02*
X157320000Y-72770000D01*
X162400000Y-97600000D02*
X162400000Y-95680000D01*
X168920000Y-113150000D02*
X168920000Y-104120000D01*
X168920000Y-104120000D02*
X162400000Y-97600000D01*
X140800000Y-97550000D02*
X140800000Y-75500000D01*
X144620000Y-103300000D02*
X144620000Y-101370000D01*
X142080000Y-74220000D02*
X142080000Y-71030000D01*
X140800000Y-75500000D02*
X142080000Y-74220000D01*
X144620000Y-101370000D02*
X140800000Y-97550000D01*
X139540000Y-74260000D02*
X139540000Y-71030000D01*
X138250000Y-75550000D02*
X139540000Y-74260000D01*
X138250000Y-97500000D02*
X138250000Y-75550000D01*
X142080000Y-103300000D02*
X142080000Y-101330000D01*
X142080000Y-101330000D02*
X138250000Y-97500000D01*
X157320000Y-83020000D02*
X157320000Y-78650000D01*
X158600000Y-84300000D02*
X157320000Y-83020000D01*
X158600000Y-97600000D02*
X158600000Y-84300000D01*
X162400000Y-103300000D02*
X162400000Y-101400000D01*
X162400000Y-101400000D02*
X158600000Y-97600000D01*
X162400000Y-107300000D02*
X162400000Y-103300000D01*
X158760000Y-113150000D02*
X158760000Y-110940000D01*
X158760000Y-110940000D02*
X162400000Y-107300000D01*
X154780000Y-82980000D02*
X154780000Y-78650000D01*
X156050000Y-97550000D02*
X156050000Y-84250000D01*
X156050000Y-84250000D02*
X154780000Y-82980000D01*
X159860000Y-103300000D02*
X159860000Y-101360000D01*
X159860000Y-101360000D02*
X156050000Y-97550000D01*
X159860000Y-105790000D02*
X159860000Y-103300000D01*
X154700000Y-113150000D02*
X154700000Y-110950000D01*
X154700000Y-110950000D02*
X159860000Y-105790000D01*
X153500000Y-84250000D02*
X153500000Y-97550000D01*
X157320000Y-101370000D02*
X157320000Y-103300000D01*
X152240000Y-78650000D02*
X152240000Y-82990000D01*
X153500000Y-97550000D02*
X157320000Y-101370000D01*
X152240000Y-82990000D02*
X153500000Y-84250000D01*
X157320000Y-105780000D02*
X157320000Y-103300000D01*
X152160000Y-113150000D02*
X152160000Y-110940000D01*
X152160000Y-110940000D02*
X157320000Y-105780000D01*
X137000000Y-69400000D02*
X137000000Y-71030000D01*
X134100000Y-64900000D02*
X134100000Y-66500000D01*
X134100000Y-66500000D02*
X137000000Y-69400000D01*
X137000000Y-93650000D02*
X137000000Y-95680000D01*
X134100000Y-89150000D02*
X134100000Y-90750000D01*
X134100000Y-90750000D02*
X137000000Y-93650000D01*
X154780000Y-101380000D02*
X154780000Y-103300000D01*
X150950000Y-84250000D02*
X150950000Y-97550000D01*
X150950000Y-97550000D02*
X154780000Y-101380000D01*
X149700000Y-78650000D02*
X149700000Y-83000000D01*
X149700000Y-83000000D02*
X150950000Y-84250000D01*
X154780000Y-105820000D02*
X154780000Y-103300000D01*
X149620000Y-113150000D02*
X149620000Y-110980000D01*
X149620000Y-110980000D02*
X154780000Y-105820000D01*
X147160000Y-83010000D02*
X147160000Y-78650000D01*
X152240000Y-103300000D02*
X152240000Y-101390000D01*
X148400000Y-84250000D02*
X147160000Y-83010000D01*
X148400000Y-97550000D02*
X148400000Y-84250000D01*
X152240000Y-101390000D02*
X148400000Y-97550000D01*
X152240000Y-105810000D02*
X152240000Y-103300000D01*
X147080000Y-113150000D02*
X147080000Y-110970000D01*
X147080000Y-110970000D02*
X152240000Y-105810000D01*
X145900000Y-84300000D02*
X145900000Y-97550000D01*
X149700000Y-101350000D02*
X149700000Y-103300000D01*
X145900000Y-97550000D02*
X149700000Y-101350000D01*
X144620000Y-78650000D02*
X144620000Y-83020000D01*
X144620000Y-83020000D02*
X145900000Y-84300000D01*
X144540000Y-113150000D02*
X144540000Y-110960000D01*
X149700000Y-105800000D02*
X149700000Y-103300000D01*
X144540000Y-110960000D02*
X149700000Y-105800000D01*
X142080000Y-83030000D02*
X142080000Y-78650000D01*
X143350000Y-84300000D02*
X142080000Y-83030000D01*
X143350000Y-97550000D02*
X143350000Y-84300000D01*
X147160000Y-103300000D02*
X147160000Y-101360000D01*
X147160000Y-101360000D02*
X143350000Y-97550000D01*
X147160000Y-105790000D02*
X147160000Y-103300000D01*
X142000000Y-113150000D02*
X142000000Y-110950000D01*
X142000000Y-110950000D02*
X147160000Y-105790000D01*
X139500000Y-103340000D02*
X139540000Y-103300000D01*
X139500000Y-110000000D02*
X139500000Y-103340000D01*
X139500000Y-78690000D02*
X139540000Y-78650000D01*
X139500000Y-85550000D02*
X139500000Y-78690000D01*
X177690000Y-84060000D02*
X179190000Y-84060000D01*
X176650000Y-86600000D02*
X176650000Y-85100000D01*
X176650000Y-85100000D02*
X177690000Y-84060000D01*
X183900000Y-76950000D02*
X183149999Y-76199999D01*
X182270000Y-90650000D02*
X183900000Y-89020000D01*
X183149999Y-76199999D02*
X181850000Y-74900000D01*
X183900000Y-89020000D02*
X183900000Y-76950000D01*
X183710000Y-96540000D02*
X182270000Y-96540000D01*
X182270000Y-90650000D02*
X184400000Y-92780000D01*
X184400000Y-95850000D02*
X183710000Y-96540000D01*
X184400000Y-92780000D02*
X184400000Y-95850000D01*
X159860000Y-89150000D02*
X159860000Y-95680000D01*
X154780000Y-72755000D02*
X154780000Y-71030000D01*
X158600000Y-83000000D02*
X158600000Y-76575000D01*
X159860000Y-89150000D02*
X159860000Y-84260000D01*
X158600000Y-76575000D02*
X154780000Y-72755000D01*
X159860000Y-84260000D02*
X158600000Y-83000000D01*
X157320000Y-89150000D02*
X157320000Y-95680000D01*
X152240000Y-72740000D02*
X152240000Y-71030000D01*
X156050000Y-76550000D02*
X152240000Y-72740000D01*
X156050000Y-83050000D02*
X156050000Y-76550000D01*
X157320000Y-89150000D02*
X157320000Y-84320000D01*
X157320000Y-84320000D02*
X156050000Y-83050000D01*
X154780000Y-89150000D02*
X154780000Y-95680000D01*
X149700000Y-72750000D02*
X149700000Y-71030000D01*
X153500000Y-83000000D02*
X153500000Y-76550000D01*
X154780000Y-89150000D02*
X154780000Y-84280000D01*
X153500000Y-76550000D02*
X149700000Y-72750000D01*
X154780000Y-84280000D02*
X153500000Y-83000000D01*
X152240000Y-89150000D02*
X152240000Y-95680000D01*
X147160000Y-72710000D02*
X147160000Y-71030000D01*
X151000000Y-76550000D02*
X147160000Y-72710000D01*
X151000000Y-83000000D02*
X151000000Y-76550000D01*
X152240000Y-89150000D02*
X152240000Y-84240000D01*
X152240000Y-84240000D02*
X151000000Y-83000000D01*
X149700000Y-89150000D02*
X149700000Y-95680000D01*
X148450000Y-76550000D02*
X148450000Y-83000000D01*
X149700000Y-84250000D02*
X149700000Y-89150000D01*
X144620000Y-71030000D02*
X144620000Y-72720000D01*
X148450000Y-83000000D02*
X149700000Y-84250000D01*
X144620000Y-72720000D02*
X148450000Y-76550000D01*
X147160000Y-89150000D02*
X147160000Y-95680000D01*
X144620000Y-89150000D02*
X144620000Y-95680000D01*
X142080000Y-89150000D02*
X142080000Y-95680000D01*
X139540000Y-90281370D02*
X139540000Y-95680000D01*
X139540000Y-89150000D02*
X139540000Y-90281370D01*
X174650000Y-104950000D02*
X174650000Y-101620000D01*
X179750000Y-86600000D02*
X181730000Y-86600000D01*
X174650000Y-101620000D02*
X178280000Y-101620000D01*
X179100000Y-87250000D02*
X179750000Y-86600000D01*
X179100000Y-100800000D02*
X179100000Y-87250000D01*
X178280000Y-101620000D02*
X179100000Y-100800000D01*
D23*
G36*
X184340000Y-64473381D02*
G01*
X184340000Y-76315198D01*
X183713802Y-75689001D01*
X183713798Y-75688996D01*
X183645787Y-75620985D01*
X183710639Y-75464419D01*
X183785000Y-75090581D01*
X183785000Y-74709419D01*
X183710639Y-74335581D01*
X183564775Y-73983434D01*
X183353013Y-73666509D01*
X183083491Y-73396987D01*
X182766566Y-73185225D01*
X182414419Y-73039361D01*
X182040581Y-72965000D01*
X181659419Y-72965000D01*
X181285581Y-73039361D01*
X180933434Y-73185225D01*
X180616509Y-73396987D01*
X180346987Y-73666509D01*
X180135225Y-73983434D01*
X179989361Y-74335581D01*
X179915000Y-74709419D01*
X179915000Y-75090581D01*
X179989361Y-75464419D01*
X180135225Y-75816566D01*
X180346987Y-76133491D01*
X180616509Y-76403013D01*
X180933434Y-76614775D01*
X181285581Y-76760639D01*
X181659419Y-76835000D01*
X182040581Y-76835000D01*
X182414419Y-76760639D01*
X182570985Y-76695787D01*
X182638996Y-76763798D01*
X182639001Y-76763802D01*
X183140001Y-77264803D01*
X183140001Y-77736340D01*
X182955998Y-77552337D01*
X182671831Y-77362463D01*
X182356081Y-77231675D01*
X182020883Y-77165000D01*
X181679117Y-77165000D01*
X181343919Y-77231675D01*
X181028169Y-77362463D01*
X180744002Y-77552337D01*
X180502337Y-77794002D01*
X180312463Y-78078169D01*
X180181675Y-78393919D01*
X180115000Y-78729117D01*
X180115000Y-79070883D01*
X180181675Y-79406081D01*
X180312463Y-79721831D01*
X180502337Y-80005998D01*
X180744002Y-80247663D01*
X181028169Y-80437537D01*
X181343919Y-80568325D01*
X181679117Y-80635000D01*
X182020883Y-80635000D01*
X182356081Y-80568325D01*
X182671831Y-80437537D01*
X182955998Y-80247663D01*
X183140001Y-80063660D01*
X183140000Y-88705198D01*
X182836440Y-89008759D01*
X182610119Y-88940105D01*
X182355225Y-88915000D01*
X182184775Y-88915000D01*
X181929881Y-88940105D01*
X181602832Y-89039314D01*
X181301422Y-89200421D01*
X181037234Y-89417234D01*
X180820421Y-89681422D01*
X180659314Y-89982832D01*
X180560105Y-90309881D01*
X180526606Y-90650000D01*
X180560105Y-90990119D01*
X180659314Y-91317168D01*
X180820421Y-91618578D01*
X181037234Y-91882766D01*
X181301422Y-92099579D01*
X181602832Y-92260686D01*
X181929881Y-92359895D01*
X182184775Y-92385000D01*
X182355225Y-92385000D01*
X182610119Y-92359895D01*
X182836440Y-92291241D01*
X183221891Y-92676692D01*
X183074514Y-92617350D01*
X182797000Y-92565000D01*
X182397000Y-92565000D01*
X182397000Y-93873000D01*
X182417000Y-93873000D01*
X182417000Y-94127000D01*
X182397000Y-94127000D01*
X182397000Y-94147000D01*
X182143000Y-94147000D01*
X182143000Y-94127000D01*
X180600085Y-94127000D01*
X180478096Y-94349039D01*
X180495633Y-94431818D01*
X180606285Y-94691646D01*
X180765500Y-94924895D01*
X180967161Y-95122601D01*
X181196741Y-95272735D01*
X181068899Y-95341068D01*
X180850392Y-95520392D01*
X180671068Y-95738899D01*
X180537818Y-95988192D01*
X180455764Y-96258691D01*
X180428057Y-96540000D01*
X180455764Y-96821309D01*
X180537818Y-97091808D01*
X180671068Y-97341101D01*
X180850392Y-97559608D01*
X181068899Y-97738932D01*
X181201858Y-97810000D01*
X181068899Y-97881068D01*
X180850392Y-98060392D01*
X180671068Y-98278899D01*
X180537818Y-98528192D01*
X180455764Y-98798691D01*
X180428057Y-99080000D01*
X180455764Y-99361309D01*
X180537818Y-99631808D01*
X180671068Y-99881101D01*
X180850392Y-100099608D01*
X181068899Y-100278932D01*
X181201858Y-100350000D01*
X181068899Y-100421068D01*
X180850392Y-100600392D01*
X180671068Y-100818899D01*
X180537818Y-101068192D01*
X180455764Y-101338691D01*
X180428057Y-101620000D01*
X180455764Y-101901309D01*
X180537818Y-102171808D01*
X180671068Y-102421101D01*
X180850392Y-102639608D01*
X181068899Y-102818932D01*
X181318192Y-102952182D01*
X181588691Y-103034236D01*
X181799508Y-103055000D01*
X182740492Y-103055000D01*
X182951309Y-103034236D01*
X183221808Y-102952182D01*
X183471101Y-102818932D01*
X183689608Y-102639608D01*
X183868932Y-102421101D01*
X184002182Y-102171808D01*
X184084236Y-101901309D01*
X184111943Y-101620000D01*
X184084236Y-101338691D01*
X184002182Y-101068192D01*
X183868932Y-100818899D01*
X183689608Y-100600392D01*
X183471101Y-100421068D01*
X183338142Y-100350000D01*
X183471101Y-100278932D01*
X183689608Y-100099608D01*
X183868932Y-99881101D01*
X184002182Y-99631808D01*
X184084236Y-99361309D01*
X184111943Y-99080000D01*
X184084236Y-98798691D01*
X184002182Y-98528192D01*
X183868932Y-98278899D01*
X183689608Y-98060392D01*
X183471101Y-97881068D01*
X183338142Y-97810000D01*
X183471101Y-97738932D01*
X183689608Y-97559608D01*
X183868932Y-97341101D01*
X183904093Y-97275320D01*
X184002247Y-97245546D01*
X184134276Y-97174974D01*
X184250001Y-97080001D01*
X184273803Y-97050998D01*
X184340001Y-96984800D01*
X184340001Y-113526618D01*
X182726620Y-115140000D01*
X130273381Y-115140000D01*
X126126083Y-110992702D01*
X136186903Y-110992702D01*
X136258486Y-111236671D01*
X136513996Y-111357571D01*
X136788184Y-111426300D01*
X137070512Y-111440217D01*
X137350130Y-111398787D01*
X137616292Y-111303603D01*
X137741514Y-111236671D01*
X137813097Y-110992702D01*
X137000000Y-110179605D01*
X136186903Y-110992702D01*
X126126083Y-110992702D01*
X125660000Y-110526620D01*
X125660000Y-110070512D01*
X135559783Y-110070512D01*
X135601213Y-110350130D01*
X135696397Y-110616292D01*
X135763329Y-110741514D01*
X136007298Y-110813097D01*
X136820395Y-110000000D01*
X136007298Y-109186903D01*
X135763329Y-109258486D01*
X135642429Y-109513996D01*
X135573700Y-109788184D01*
X135559783Y-110070512D01*
X125660000Y-110070512D01*
X125660000Y-109007298D01*
X136186903Y-109007298D01*
X137000000Y-109820395D01*
X137813097Y-109007298D01*
X137741514Y-108763329D01*
X137486004Y-108642429D01*
X137211816Y-108573700D01*
X136929488Y-108559783D01*
X136649870Y-108601213D01*
X136383708Y-108696397D01*
X136258486Y-108763329D01*
X136186903Y-109007298D01*
X125660000Y-109007298D01*
X125660000Y-104300000D01*
X135641928Y-104300000D01*
X135654188Y-104424482D01*
X135690498Y-104544180D01*
X135749463Y-104654494D01*
X135828815Y-104751185D01*
X135925506Y-104830537D01*
X136035820Y-104889502D01*
X136155518Y-104925812D01*
X136280000Y-104938072D01*
X136714250Y-104935000D01*
X136873000Y-104776250D01*
X136873000Y-103427000D01*
X135803750Y-103427000D01*
X135645000Y-103585750D01*
X135641928Y-104300000D01*
X125660000Y-104300000D01*
X125660000Y-102300000D01*
X135641928Y-102300000D01*
X135645000Y-103014250D01*
X135803750Y-103173000D01*
X136873000Y-103173000D01*
X136873000Y-101823750D01*
X136714250Y-101665000D01*
X136280000Y-101661928D01*
X136155518Y-101674188D01*
X136035820Y-101710498D01*
X135925506Y-101769463D01*
X135828815Y-101848815D01*
X135749463Y-101945506D01*
X135690498Y-102055820D01*
X135654188Y-102175518D01*
X135641928Y-102300000D01*
X125660000Y-102300000D01*
X125660000Y-90142702D01*
X130786903Y-90142702D01*
X130858486Y-90386671D01*
X131113996Y-90507571D01*
X131388184Y-90576300D01*
X131670512Y-90590217D01*
X131950130Y-90548787D01*
X132216292Y-90453603D01*
X132341514Y-90386671D01*
X132413097Y-90142702D01*
X131600000Y-89329605D01*
X130786903Y-90142702D01*
X125660000Y-90142702D01*
X125660000Y-89220512D01*
X130159783Y-89220512D01*
X130201213Y-89500130D01*
X130296397Y-89766292D01*
X130363329Y-89891514D01*
X130607298Y-89963097D01*
X131420395Y-89150000D01*
X130607298Y-88336903D01*
X130363329Y-88408486D01*
X130242429Y-88663996D01*
X130173700Y-88938184D01*
X130159783Y-89220512D01*
X125660000Y-89220512D01*
X125660000Y-88157298D01*
X130786903Y-88157298D01*
X131600000Y-88970395D01*
X132413097Y-88157298D01*
X132341514Y-87913329D01*
X132086004Y-87792429D01*
X131811816Y-87723700D01*
X131529488Y-87709783D01*
X131249870Y-87751213D01*
X130983708Y-87846397D01*
X130858486Y-87913329D01*
X130786903Y-88157298D01*
X125660000Y-88157298D01*
X125660000Y-85620512D01*
X135559783Y-85620512D01*
X135601213Y-85900130D01*
X135696397Y-86166292D01*
X135763329Y-86291514D01*
X136007298Y-86363097D01*
X136820395Y-85550000D01*
X136007298Y-84736903D01*
X135763329Y-84808486D01*
X135642429Y-85063996D01*
X135573700Y-85338184D01*
X135559783Y-85620512D01*
X125660000Y-85620512D01*
X125660000Y-79650000D01*
X135641928Y-79650000D01*
X135654188Y-79774482D01*
X135690498Y-79894180D01*
X135749463Y-80004494D01*
X135828815Y-80101185D01*
X135925506Y-80180537D01*
X136035820Y-80239502D01*
X136155518Y-80275812D01*
X136280000Y-80288072D01*
X136714250Y-80285000D01*
X136873000Y-80126250D01*
X136873000Y-78777000D01*
X135803750Y-78777000D01*
X135645000Y-78935750D01*
X135641928Y-79650000D01*
X125660000Y-79650000D01*
X125660000Y-77650000D01*
X135641928Y-77650000D01*
X135645000Y-78364250D01*
X135803750Y-78523000D01*
X136873000Y-78523000D01*
X136873000Y-77173750D01*
X136714250Y-77015000D01*
X136280000Y-77011928D01*
X136155518Y-77024188D01*
X136035820Y-77060498D01*
X135925506Y-77119463D01*
X135828815Y-77198815D01*
X135749463Y-77295506D01*
X135690498Y-77405820D01*
X135654188Y-77525518D01*
X135641928Y-77650000D01*
X125660000Y-77650000D01*
X125660000Y-67473380D01*
X127240678Y-65892702D01*
X130786903Y-65892702D01*
X130858486Y-66136671D01*
X131113996Y-66257571D01*
X131388184Y-66326300D01*
X131670512Y-66340217D01*
X131950130Y-66298787D01*
X132216292Y-66203603D01*
X132341514Y-66136671D01*
X132413097Y-65892702D01*
X131600000Y-65079605D01*
X130786903Y-65892702D01*
X127240678Y-65892702D01*
X128162868Y-64970512D01*
X130159783Y-64970512D01*
X130201213Y-65250130D01*
X130296397Y-65516292D01*
X130363329Y-65641514D01*
X130607298Y-65713097D01*
X131420395Y-64900000D01*
X131779605Y-64900000D01*
X132592702Y-65713097D01*
X132836671Y-65641514D01*
X132850324Y-65612659D01*
X132985363Y-65814759D01*
X133185241Y-66014637D01*
X133340001Y-66118044D01*
X133340001Y-66462668D01*
X133336324Y-66500000D01*
X133350998Y-66648985D01*
X133394454Y-66792246D01*
X133465026Y-66924276D01*
X133536201Y-67011002D01*
X133560000Y-67040001D01*
X133588998Y-67063799D01*
X136188386Y-69663188D01*
X136037235Y-69787236D01*
X135867908Y-69993561D01*
X135742086Y-70228956D01*
X135664606Y-70484375D01*
X135645000Y-70683437D01*
X135645000Y-71376564D01*
X135664606Y-71575626D01*
X135742086Y-71831045D01*
X135867908Y-72066440D01*
X136037236Y-72272765D01*
X136243561Y-72442092D01*
X136478956Y-72567914D01*
X136734375Y-72645394D01*
X137000000Y-72671556D01*
X137265626Y-72645394D01*
X137521045Y-72567914D01*
X137756440Y-72442092D01*
X137962765Y-72272765D01*
X138132092Y-72066440D01*
X138257914Y-71831045D01*
X138270000Y-71791202D01*
X138282086Y-71831045D01*
X138407908Y-72066440D01*
X138577236Y-72272765D01*
X138780001Y-72439170D01*
X138780000Y-73945197D01*
X137738998Y-74986201D01*
X137710000Y-75009999D01*
X137686202Y-75038997D01*
X137686201Y-75038998D01*
X137615026Y-75125724D01*
X137544454Y-75257754D01*
X137500998Y-75401015D01*
X137486324Y-75550000D01*
X137490001Y-75587333D01*
X137490001Y-77013555D01*
X137285750Y-77015000D01*
X137127000Y-77173750D01*
X137127000Y-78523000D01*
X137147000Y-78523000D01*
X137147000Y-78777000D01*
X137127000Y-78777000D01*
X137127000Y-80126250D01*
X137285750Y-80285000D01*
X137490001Y-80286445D01*
X137490001Y-84194320D01*
X137486004Y-84192429D01*
X137211816Y-84123700D01*
X136929488Y-84109783D01*
X136649870Y-84151213D01*
X136383708Y-84246397D01*
X136258486Y-84313329D01*
X136186903Y-84557298D01*
X137000000Y-85370395D01*
X137014143Y-85356253D01*
X137193748Y-85535858D01*
X137179605Y-85550000D01*
X137193748Y-85564143D01*
X137014143Y-85743748D01*
X137000000Y-85729605D01*
X136186903Y-86542702D01*
X136258486Y-86786671D01*
X136513996Y-86907571D01*
X136788184Y-86976300D01*
X137070512Y-86990217D01*
X137350130Y-86948787D01*
X137490000Y-86898767D01*
X137490000Y-87713780D01*
X137285750Y-87715000D01*
X137127000Y-87873750D01*
X137127000Y-89023000D01*
X137147000Y-89023000D01*
X137147000Y-89277000D01*
X137127000Y-89277000D01*
X137127000Y-90426250D01*
X137285750Y-90585000D01*
X137490000Y-90586220D01*
X137490000Y-93065198D01*
X134860000Y-90435199D01*
X134860000Y-90368043D01*
X135014759Y-90264637D01*
X135214637Y-90064759D01*
X135291316Y-89950000D01*
X135561928Y-89950000D01*
X135574188Y-90074482D01*
X135610498Y-90194180D01*
X135669463Y-90304494D01*
X135748815Y-90401185D01*
X135845506Y-90480537D01*
X135955820Y-90539502D01*
X136075518Y-90575812D01*
X136200000Y-90588072D01*
X136714250Y-90585000D01*
X136873000Y-90426250D01*
X136873000Y-89277000D01*
X135723750Y-89277000D01*
X135565000Y-89435750D01*
X135561928Y-89950000D01*
X135291316Y-89950000D01*
X135371680Y-89829727D01*
X135479853Y-89568574D01*
X135535000Y-89291335D01*
X135535000Y-89008665D01*
X135479853Y-88731426D01*
X135371680Y-88470273D01*
X135291317Y-88350000D01*
X135561928Y-88350000D01*
X135565000Y-88864250D01*
X135723750Y-89023000D01*
X136873000Y-89023000D01*
X136873000Y-87873750D01*
X136714250Y-87715000D01*
X136200000Y-87711928D01*
X136075518Y-87724188D01*
X135955820Y-87760498D01*
X135845506Y-87819463D01*
X135748815Y-87898815D01*
X135669463Y-87995506D01*
X135610498Y-88105820D01*
X135574188Y-88225518D01*
X135561928Y-88350000D01*
X135291317Y-88350000D01*
X135214637Y-88235241D01*
X135014759Y-88035363D01*
X134779727Y-87878320D01*
X134518574Y-87770147D01*
X134241335Y-87715000D01*
X133958665Y-87715000D01*
X133681426Y-87770147D01*
X133420273Y-87878320D01*
X133185241Y-88035363D01*
X132985363Y-88235241D01*
X132851308Y-88435869D01*
X132836671Y-88408486D01*
X132592702Y-88336903D01*
X131779605Y-89150000D01*
X132592702Y-89963097D01*
X132836671Y-89891514D01*
X132850324Y-89862659D01*
X132985363Y-90064759D01*
X133185241Y-90264637D01*
X133340001Y-90368044D01*
X133340001Y-90712668D01*
X133336324Y-90750000D01*
X133340001Y-90787333D01*
X133350998Y-90898986D01*
X133364121Y-90942246D01*
X133394454Y-91042246D01*
X133465026Y-91174276D01*
X133536201Y-91261002D01*
X133560000Y-91290001D01*
X133588998Y-91313799D01*
X136240000Y-93964802D01*
X136240000Y-94270829D01*
X136037235Y-94437236D01*
X135867908Y-94643561D01*
X135742086Y-94878956D01*
X135664606Y-95134375D01*
X135645000Y-95333437D01*
X135645000Y-96026564D01*
X135664606Y-96225626D01*
X135742086Y-96481045D01*
X135867908Y-96716440D01*
X136037236Y-96922765D01*
X136243561Y-97092092D01*
X136478956Y-97217914D01*
X136734375Y-97295394D01*
X137000000Y-97321556D01*
X137265626Y-97295394D01*
X137490000Y-97227331D01*
X137490000Y-97462678D01*
X137486324Y-97500000D01*
X137490000Y-97537322D01*
X137490000Y-97537332D01*
X137500997Y-97648985D01*
X137544454Y-97792246D01*
X137615026Y-97924276D01*
X137639614Y-97954236D01*
X137709999Y-98040001D01*
X137739003Y-98063804D01*
X141320001Y-101644803D01*
X141320001Y-101890829D01*
X141117235Y-102057236D01*
X140947908Y-102263561D01*
X140822086Y-102498956D01*
X140810000Y-102538798D01*
X140797914Y-102498955D01*
X140672092Y-102263560D01*
X140502764Y-102057235D01*
X140296439Y-101887908D01*
X140061044Y-101762086D01*
X139805625Y-101684606D01*
X139540000Y-101658444D01*
X139274374Y-101684606D01*
X139018955Y-101762086D01*
X138783560Y-101887908D01*
X138577235Y-102057236D01*
X138407908Y-102263561D01*
X138357826Y-102357258D01*
X138358072Y-102300000D01*
X138345812Y-102175518D01*
X138309502Y-102055820D01*
X138250537Y-101945506D01*
X138171185Y-101848815D01*
X138074494Y-101769463D01*
X137964180Y-101710498D01*
X137844482Y-101674188D01*
X137720000Y-101661928D01*
X137285750Y-101665000D01*
X137127000Y-101823750D01*
X137127000Y-103173000D01*
X137147000Y-103173000D01*
X137147000Y-103427000D01*
X137127000Y-103427000D01*
X137127000Y-104776250D01*
X137285750Y-104935000D01*
X137720000Y-104938072D01*
X137844482Y-104925812D01*
X137964180Y-104889502D01*
X138074494Y-104830537D01*
X138171185Y-104751185D01*
X138250537Y-104654494D01*
X138309502Y-104544180D01*
X138345812Y-104424482D01*
X138358072Y-104300000D01*
X138357826Y-104242743D01*
X138407908Y-104336440D01*
X138577236Y-104542765D01*
X138740001Y-104676343D01*
X138740000Y-108781956D01*
X138585241Y-108885363D01*
X138385363Y-109085241D01*
X138251308Y-109285869D01*
X138236671Y-109258486D01*
X137992702Y-109186903D01*
X137179605Y-110000000D01*
X137992702Y-110813097D01*
X138236671Y-110741514D01*
X138250324Y-110712659D01*
X138385363Y-110914759D01*
X138585241Y-111114637D01*
X138820273Y-111271680D01*
X139081426Y-111379853D01*
X139358665Y-111435000D01*
X139641335Y-111435000D01*
X139918574Y-111379853D01*
X140179727Y-111271680D01*
X140414759Y-111114637D01*
X140614637Y-110914759D01*
X140771680Y-110679727D01*
X140879853Y-110418574D01*
X140935000Y-110141335D01*
X140935000Y-109858665D01*
X140879853Y-109581426D01*
X140771680Y-109320273D01*
X140614637Y-109085241D01*
X140414759Y-108885363D01*
X140260000Y-108781957D01*
X140260000Y-104731570D01*
X140296440Y-104712092D01*
X140502765Y-104542765D01*
X140672092Y-104336440D01*
X140797914Y-104101045D01*
X140810000Y-104061202D01*
X140822086Y-104101045D01*
X140947908Y-104336440D01*
X141117236Y-104542765D01*
X141323561Y-104712092D01*
X141558956Y-104837914D01*
X141814375Y-104915394D01*
X142080000Y-104941556D01*
X142345626Y-104915394D01*
X142601045Y-104837914D01*
X142836440Y-104712092D01*
X143042765Y-104542765D01*
X143212092Y-104336440D01*
X143337914Y-104101045D01*
X143350000Y-104061202D01*
X143362086Y-104101045D01*
X143487908Y-104336440D01*
X143657236Y-104542765D01*
X143863561Y-104712092D01*
X144098956Y-104837914D01*
X144354375Y-104915394D01*
X144620000Y-104941556D01*
X144885626Y-104915394D01*
X145141045Y-104837914D01*
X145376440Y-104712092D01*
X145582765Y-104542765D01*
X145752092Y-104336440D01*
X145877914Y-104101045D01*
X145890000Y-104061202D01*
X145902086Y-104101045D01*
X146027908Y-104336440D01*
X146197236Y-104542765D01*
X146400000Y-104709170D01*
X146400000Y-105475198D01*
X141488998Y-110386201D01*
X141460000Y-110409999D01*
X141436202Y-110438997D01*
X141436201Y-110438998D01*
X141365026Y-110525724D01*
X141294454Y-110657754D01*
X141285354Y-110687754D01*
X141254032Y-110791014D01*
X141250998Y-110801015D01*
X141236324Y-110950000D01*
X141240001Y-110987332D01*
X141240001Y-111929099D01*
X141198899Y-111951068D01*
X140980392Y-112130392D01*
X140801068Y-112348899D01*
X140730000Y-112481858D01*
X140658932Y-112348899D01*
X140479608Y-112130392D01*
X140261101Y-111951068D01*
X140011808Y-111817818D01*
X139741309Y-111735764D01*
X139530492Y-111715000D01*
X139389508Y-111715000D01*
X139178691Y-111735764D01*
X138908192Y-111817818D01*
X138658899Y-111951068D01*
X138440392Y-112130392D01*
X138261068Y-112348899D01*
X138190000Y-112481858D01*
X138118932Y-112348899D01*
X137939608Y-112130392D01*
X137721101Y-111951068D01*
X137471808Y-111817818D01*
X137201309Y-111735764D01*
X136990492Y-111715000D01*
X136849508Y-111715000D01*
X136638691Y-111735764D01*
X136368192Y-111817818D01*
X136118899Y-111951068D01*
X135900392Y-112130392D01*
X135721068Y-112348899D01*
X135587818Y-112598192D01*
X135505764Y-112868691D01*
X135478057Y-113150000D01*
X135505764Y-113431309D01*
X135587818Y-113701808D01*
X135721068Y-113951101D01*
X135900392Y-114169608D01*
X136118899Y-114348932D01*
X136368192Y-114482182D01*
X136638691Y-114564236D01*
X136849508Y-114585000D01*
X136990492Y-114585000D01*
X137201309Y-114564236D01*
X137471808Y-114482182D01*
X137721101Y-114348932D01*
X137939608Y-114169608D01*
X138118932Y-113951101D01*
X138190000Y-113818142D01*
X138261068Y-113951101D01*
X138440392Y-114169608D01*
X138658899Y-114348932D01*
X138908192Y-114482182D01*
X139178691Y-114564236D01*
X139389508Y-114585000D01*
X139530492Y-114585000D01*
X139741309Y-114564236D01*
X140011808Y-114482182D01*
X140261101Y-114348932D01*
X140479608Y-114169608D01*
X140658932Y-113951101D01*
X140730000Y-113818142D01*
X140801068Y-113951101D01*
X140980392Y-114169608D01*
X141198899Y-114348932D01*
X141448192Y-114482182D01*
X141718691Y-114564236D01*
X141929508Y-114585000D01*
X142070492Y-114585000D01*
X142281309Y-114564236D01*
X142551808Y-114482182D01*
X142801101Y-114348932D01*
X143019608Y-114169608D01*
X143198932Y-113951101D01*
X143270000Y-113818142D01*
X143341068Y-113951101D01*
X143520392Y-114169608D01*
X143738899Y-114348932D01*
X143988192Y-114482182D01*
X144258691Y-114564236D01*
X144469508Y-114585000D01*
X144610492Y-114585000D01*
X144821309Y-114564236D01*
X145091808Y-114482182D01*
X145341101Y-114348932D01*
X145559608Y-114169608D01*
X145738932Y-113951101D01*
X145810000Y-113818142D01*
X145881068Y-113951101D01*
X146060392Y-114169608D01*
X146278899Y-114348932D01*
X146528192Y-114482182D01*
X146798691Y-114564236D01*
X147009508Y-114585000D01*
X147150492Y-114585000D01*
X147361309Y-114564236D01*
X147631808Y-114482182D01*
X147881101Y-114348932D01*
X148099608Y-114169608D01*
X148278932Y-113951101D01*
X148350000Y-113818142D01*
X148421068Y-113951101D01*
X148600392Y-114169608D01*
X148818899Y-114348932D01*
X149068192Y-114482182D01*
X149338691Y-114564236D01*
X149549508Y-114585000D01*
X149690492Y-114585000D01*
X149901309Y-114564236D01*
X150171808Y-114482182D01*
X150421101Y-114348932D01*
X150639608Y-114169608D01*
X150818932Y-113951101D01*
X150890000Y-113818142D01*
X150961068Y-113951101D01*
X151140392Y-114169608D01*
X151358899Y-114348932D01*
X151608192Y-114482182D01*
X151878691Y-114564236D01*
X152089508Y-114585000D01*
X152230492Y-114585000D01*
X152441309Y-114564236D01*
X152711808Y-114482182D01*
X152961101Y-114348932D01*
X153179608Y-114169608D01*
X153358932Y-113951101D01*
X153430000Y-113818142D01*
X153501068Y-113951101D01*
X153680392Y-114169608D01*
X153898899Y-114348932D01*
X154148192Y-114482182D01*
X154418691Y-114564236D01*
X154629508Y-114585000D01*
X154770492Y-114585000D01*
X154981309Y-114564236D01*
X155251808Y-114482182D01*
X155501101Y-114348932D01*
X155719608Y-114169608D01*
X155898932Y-113951101D01*
X156032182Y-113701808D01*
X156114236Y-113431309D01*
X156141943Y-113150000D01*
X156114236Y-112868691D01*
X156032182Y-112598192D01*
X155898932Y-112348899D01*
X155719608Y-112130392D01*
X155501101Y-111951068D01*
X155460000Y-111929099D01*
X155460000Y-111264801D01*
X160371004Y-106353798D01*
X160400001Y-106330001D01*
X160447864Y-106271680D01*
X160494974Y-106214277D01*
X160565546Y-106082247D01*
X160570888Y-106064637D01*
X160609003Y-105938986D01*
X160620000Y-105827333D01*
X160620000Y-105827323D01*
X160623676Y-105790000D01*
X160620000Y-105752678D01*
X160620000Y-104709170D01*
X160822765Y-104542765D01*
X160992092Y-104336440D01*
X161117914Y-104101045D01*
X161130000Y-104061202D01*
X161142086Y-104101045D01*
X161267908Y-104336440D01*
X161437236Y-104542765D01*
X161640001Y-104709170D01*
X161640000Y-106985198D01*
X158248998Y-110376201D01*
X158220000Y-110399999D01*
X158196202Y-110428997D01*
X158196201Y-110428998D01*
X158125026Y-110515724D01*
X158054454Y-110647754D01*
X158042321Y-110687753D01*
X158019291Y-110763677D01*
X158010998Y-110791015D01*
X157996324Y-110940000D01*
X158000001Y-110977332D01*
X158000001Y-111929099D01*
X157958899Y-111951068D01*
X157740392Y-112130392D01*
X157561068Y-112348899D01*
X157427818Y-112598192D01*
X157345764Y-112868691D01*
X157318057Y-113150000D01*
X157345764Y-113431309D01*
X157427818Y-113701808D01*
X157561068Y-113951101D01*
X157740392Y-114169608D01*
X157958899Y-114348932D01*
X158208192Y-114482182D01*
X158478691Y-114564236D01*
X158689508Y-114585000D01*
X158830492Y-114585000D01*
X159041309Y-114564236D01*
X159311808Y-114482182D01*
X159561101Y-114348932D01*
X159779608Y-114169608D01*
X159958932Y-113951101D01*
X160030000Y-113818142D01*
X160101068Y-113951101D01*
X160280392Y-114169608D01*
X160498899Y-114348932D01*
X160748192Y-114482182D01*
X161018691Y-114564236D01*
X161229508Y-114585000D01*
X161370492Y-114585000D01*
X161581309Y-114564236D01*
X161851808Y-114482182D01*
X162101101Y-114348932D01*
X162319608Y-114169608D01*
X162498932Y-113951101D01*
X162570000Y-113818142D01*
X162641068Y-113951101D01*
X162820392Y-114169608D01*
X163038899Y-114348932D01*
X163288192Y-114482182D01*
X163558691Y-114564236D01*
X163769508Y-114585000D01*
X163910492Y-114585000D01*
X164121309Y-114564236D01*
X164391808Y-114482182D01*
X164641101Y-114348932D01*
X164859608Y-114169608D01*
X165038932Y-113951101D01*
X165110000Y-113818142D01*
X165181068Y-113951101D01*
X165360392Y-114169608D01*
X165578899Y-114348932D01*
X165828192Y-114482182D01*
X166098691Y-114564236D01*
X166309508Y-114585000D01*
X166450492Y-114585000D01*
X166661309Y-114564236D01*
X166931808Y-114482182D01*
X167181101Y-114348932D01*
X167399608Y-114169608D01*
X167578932Y-113951101D01*
X167650000Y-113818142D01*
X167721068Y-113951101D01*
X167900392Y-114169608D01*
X168118899Y-114348932D01*
X168368192Y-114482182D01*
X168638691Y-114564236D01*
X168849508Y-114585000D01*
X168990492Y-114585000D01*
X169201309Y-114564236D01*
X169471808Y-114482182D01*
X169721101Y-114348932D01*
X169939608Y-114169608D01*
X170118932Y-113951101D01*
X170190000Y-113818142D01*
X170261068Y-113951101D01*
X170440392Y-114169608D01*
X170658899Y-114348932D01*
X170908192Y-114482182D01*
X171178691Y-114564236D01*
X171389508Y-114585000D01*
X171530492Y-114585000D01*
X171741309Y-114564236D01*
X172011808Y-114482182D01*
X172261101Y-114348932D01*
X172479608Y-114169608D01*
X172658932Y-113951101D01*
X172732579Y-113813318D01*
X172847615Y-114005131D01*
X173036586Y-114213519D01*
X173262580Y-114381037D01*
X173516913Y-114501246D01*
X173650961Y-114541904D01*
X173873000Y-114419915D01*
X173873000Y-113277000D01*
X173853000Y-113277000D01*
X173853000Y-113023000D01*
X173873000Y-113023000D01*
X173873000Y-111880085D01*
X174127000Y-111880085D01*
X174127000Y-113023000D01*
X174147000Y-113023000D01*
X174147000Y-113277000D01*
X174127000Y-113277000D01*
X174127000Y-114419915D01*
X174349039Y-114541904D01*
X174483087Y-114501246D01*
X174737420Y-114381037D01*
X174963414Y-114213519D01*
X175152385Y-114005131D01*
X175267421Y-113813318D01*
X175341068Y-113951101D01*
X175520392Y-114169608D01*
X175738899Y-114348932D01*
X175988192Y-114482182D01*
X176258691Y-114564236D01*
X176469508Y-114585000D01*
X176610492Y-114585000D01*
X176821309Y-114564236D01*
X177091808Y-114482182D01*
X177341101Y-114348932D01*
X177559608Y-114169608D01*
X177738932Y-113951101D01*
X177810000Y-113818142D01*
X177881068Y-113951101D01*
X178060392Y-114169608D01*
X178278899Y-114348932D01*
X178528192Y-114482182D01*
X178798691Y-114564236D01*
X179009508Y-114585000D01*
X179150492Y-114585000D01*
X179361309Y-114564236D01*
X179631808Y-114482182D01*
X179881101Y-114348932D01*
X180099608Y-114169608D01*
X180278932Y-113951101D01*
X180350000Y-113818142D01*
X180421068Y-113951101D01*
X180600392Y-114169608D01*
X180818899Y-114348932D01*
X181068192Y-114482182D01*
X181338691Y-114564236D01*
X181549508Y-114585000D01*
X181690492Y-114585000D01*
X181901309Y-114564236D01*
X182171808Y-114482182D01*
X182421101Y-114348932D01*
X182639608Y-114169608D01*
X182818932Y-113951101D01*
X182952182Y-113701808D01*
X183034236Y-113431309D01*
X183061943Y-113150000D01*
X183034236Y-112868691D01*
X182952182Y-112598192D01*
X182818932Y-112348899D01*
X182639608Y-112130392D01*
X182421101Y-111951068D01*
X182171808Y-111817818D01*
X181901309Y-111735764D01*
X181690492Y-111715000D01*
X181549508Y-111715000D01*
X181338691Y-111735764D01*
X181068192Y-111817818D01*
X180818899Y-111951068D01*
X180600392Y-112130392D01*
X180421068Y-112348899D01*
X180350000Y-112481858D01*
X180278932Y-112348899D01*
X180099608Y-112130392D01*
X179881101Y-111951068D01*
X179631808Y-111817818D01*
X179361309Y-111735764D01*
X179150492Y-111715000D01*
X179009508Y-111715000D01*
X178798691Y-111735764D01*
X178528192Y-111817818D01*
X178278899Y-111951068D01*
X178060392Y-112130392D01*
X177881068Y-112348899D01*
X177810000Y-112481858D01*
X177738932Y-112348899D01*
X177559608Y-112130392D01*
X177341101Y-111951068D01*
X177091808Y-111817818D01*
X176821309Y-111735764D01*
X176610492Y-111715000D01*
X176469508Y-111715000D01*
X176258691Y-111735764D01*
X175988192Y-111817818D01*
X175738899Y-111951068D01*
X175520392Y-112130392D01*
X175341068Y-112348899D01*
X175267421Y-112486682D01*
X175152385Y-112294869D01*
X174963414Y-112086481D01*
X174737420Y-111918963D01*
X174483087Y-111798754D01*
X174349039Y-111758096D01*
X174127000Y-111880085D01*
X173873000Y-111880085D01*
X173650961Y-111758096D01*
X173516913Y-111798754D01*
X173262580Y-111918963D01*
X173036586Y-112086481D01*
X172847615Y-112294869D01*
X172732579Y-112486682D01*
X172658932Y-112348899D01*
X172479608Y-112130392D01*
X172261101Y-111951068D01*
X172220000Y-111929099D01*
X172220000Y-109999039D01*
X172628096Y-109999039D01*
X172668754Y-110133087D01*
X172788963Y-110387420D01*
X172956481Y-110613414D01*
X173164869Y-110802385D01*
X173406119Y-110947070D01*
X173670960Y-111041909D01*
X173893000Y-110920624D01*
X173893000Y-109777000D01*
X174147000Y-109777000D01*
X174147000Y-110920624D01*
X174369040Y-111041909D01*
X174633881Y-110947070D01*
X174875131Y-110802385D01*
X175083519Y-110613414D01*
X175251037Y-110387420D01*
X175371246Y-110133087D01*
X175411904Y-109999039D01*
X175289915Y-109777000D01*
X174147000Y-109777000D01*
X173893000Y-109777000D01*
X172750085Y-109777000D01*
X172628096Y-109999039D01*
X172220000Y-109999039D01*
X172220000Y-109300961D01*
X172628096Y-109300961D01*
X172750085Y-109523000D01*
X173893000Y-109523000D01*
X173893000Y-108379376D01*
X174147000Y-108379376D01*
X174147000Y-109523000D01*
X175289915Y-109523000D01*
X175411904Y-109300961D01*
X175371246Y-109166913D01*
X175251037Y-108912580D01*
X175083519Y-108686586D01*
X174875131Y-108497615D01*
X174633881Y-108352930D01*
X174369040Y-108258091D01*
X174147000Y-108379376D01*
X173893000Y-108379376D01*
X173670960Y-108258091D01*
X173406119Y-108352930D01*
X173164869Y-108497615D01*
X172956481Y-108686586D01*
X172788963Y-108912580D01*
X172668754Y-109166913D01*
X172628096Y-109300961D01*
X172220000Y-109300961D01*
X172220000Y-104147322D01*
X172223676Y-104109999D01*
X172220000Y-104072676D01*
X172220000Y-104072667D01*
X172209003Y-103961014D01*
X172165546Y-103817753D01*
X172094974Y-103685724D01*
X172062836Y-103646564D01*
X172023799Y-103598996D01*
X172023795Y-103598992D01*
X172000001Y-103569999D01*
X171971008Y-103546205D01*
X165700000Y-97275199D01*
X165700000Y-97089170D01*
X165902765Y-96922765D01*
X166072092Y-96716440D01*
X166166401Y-96540000D01*
X172808057Y-96540000D01*
X172835764Y-96821309D01*
X172917818Y-97091808D01*
X173051068Y-97341101D01*
X173230392Y-97559608D01*
X173448899Y-97738932D01*
X173581858Y-97810000D01*
X173448899Y-97881068D01*
X173230392Y-98060392D01*
X173051068Y-98278899D01*
X172917818Y-98528192D01*
X172835764Y-98798691D01*
X172808057Y-99080000D01*
X172835764Y-99361309D01*
X172917818Y-99631808D01*
X173051068Y-99881101D01*
X173230392Y-100099608D01*
X173448899Y-100278932D01*
X173581858Y-100350000D01*
X173448899Y-100421068D01*
X173230392Y-100600392D01*
X173051068Y-100818899D01*
X172917818Y-101068192D01*
X172835764Y-101338691D01*
X172808057Y-101620000D01*
X172835764Y-101901309D01*
X172917818Y-102171808D01*
X173051068Y-102421101D01*
X173230392Y-102639608D01*
X173448899Y-102818932D01*
X173698192Y-102952182D01*
X173890001Y-103010366D01*
X173890000Y-103731956D01*
X173735241Y-103835363D01*
X173535363Y-104035241D01*
X173378320Y-104270273D01*
X173270147Y-104531426D01*
X173215000Y-104808665D01*
X173215000Y-105091335D01*
X173270147Y-105368574D01*
X173378320Y-105629727D01*
X173535363Y-105864759D01*
X173735241Y-106064637D01*
X173970273Y-106221680D01*
X174231426Y-106329853D01*
X174508665Y-106385000D01*
X174791335Y-106385000D01*
X175068574Y-106329853D01*
X175329727Y-106221680D01*
X175564759Y-106064637D01*
X175686694Y-105942702D01*
X176336903Y-105942702D01*
X176408486Y-106186671D01*
X176663996Y-106307571D01*
X176938184Y-106376300D01*
X177220512Y-106390217D01*
X177500130Y-106348787D01*
X177766292Y-106253603D01*
X177891514Y-106186671D01*
X177963097Y-105942702D01*
X177150000Y-105129605D01*
X176336903Y-105942702D01*
X175686694Y-105942702D01*
X175764637Y-105864759D01*
X175898692Y-105664131D01*
X175913329Y-105691514D01*
X176157298Y-105763097D01*
X176970395Y-104950000D01*
X177329605Y-104950000D01*
X178142702Y-105763097D01*
X178386671Y-105691514D01*
X178411482Y-105639078D01*
X178428320Y-105679727D01*
X178585363Y-105914759D01*
X178785241Y-106114637D01*
X179020273Y-106271680D01*
X179281426Y-106379853D01*
X179558665Y-106435000D01*
X179841335Y-106435000D01*
X180118574Y-106379853D01*
X180379727Y-106271680D01*
X180614759Y-106114637D01*
X180736694Y-105992702D01*
X181386903Y-105992702D01*
X181458486Y-106236671D01*
X181713996Y-106357571D01*
X181988184Y-106426300D01*
X182270512Y-106440217D01*
X182550130Y-106398787D01*
X182816292Y-106303603D01*
X182941514Y-106236671D01*
X183013097Y-105992702D01*
X182200000Y-105179605D01*
X181386903Y-105992702D01*
X180736694Y-105992702D01*
X180814637Y-105914759D01*
X180948692Y-105714131D01*
X180963329Y-105741514D01*
X181207298Y-105813097D01*
X182020395Y-105000000D01*
X182379605Y-105000000D01*
X183192702Y-105813097D01*
X183436671Y-105741514D01*
X183557571Y-105486004D01*
X183626300Y-105211816D01*
X183640217Y-104929488D01*
X183598787Y-104649870D01*
X183503603Y-104383708D01*
X183436671Y-104258486D01*
X183192702Y-104186903D01*
X182379605Y-105000000D01*
X182020395Y-105000000D01*
X181207298Y-104186903D01*
X180963329Y-104258486D01*
X180949676Y-104287341D01*
X180814637Y-104085241D01*
X180736694Y-104007298D01*
X181386903Y-104007298D01*
X182200000Y-104820395D01*
X183013097Y-104007298D01*
X182941514Y-103763329D01*
X182686004Y-103642429D01*
X182411816Y-103573700D01*
X182129488Y-103559783D01*
X181849870Y-103601213D01*
X181583708Y-103696397D01*
X181458486Y-103763329D01*
X181386903Y-104007298D01*
X180736694Y-104007298D01*
X180614759Y-103885363D01*
X180379727Y-103728320D01*
X180118574Y-103620147D01*
X179841335Y-103565000D01*
X179558665Y-103565000D01*
X179281426Y-103620147D01*
X179020273Y-103728320D01*
X178785241Y-103885363D01*
X178585363Y-104085241D01*
X178438377Y-104305222D01*
X178386671Y-104208486D01*
X178142702Y-104136903D01*
X177329605Y-104950000D01*
X176970395Y-104950000D01*
X176157298Y-104136903D01*
X175913329Y-104208486D01*
X175899676Y-104237341D01*
X175764637Y-104035241D01*
X175686694Y-103957298D01*
X176336903Y-103957298D01*
X177150000Y-104770395D01*
X177963097Y-103957298D01*
X177891514Y-103713329D01*
X177636004Y-103592429D01*
X177361816Y-103523700D01*
X177079488Y-103509783D01*
X176799870Y-103551213D01*
X176533708Y-103646397D01*
X176408486Y-103713329D01*
X176336903Y-103957298D01*
X175686694Y-103957298D01*
X175564759Y-103835363D01*
X175410000Y-103731957D01*
X175410000Y-103010366D01*
X175601808Y-102952182D01*
X175851101Y-102818932D01*
X176069608Y-102639608D01*
X176248932Y-102421101D01*
X176270901Y-102380000D01*
X178242678Y-102380000D01*
X178280000Y-102383676D01*
X178317322Y-102380000D01*
X178317333Y-102380000D01*
X178428986Y-102369003D01*
X178572247Y-102325546D01*
X178704276Y-102254974D01*
X178820001Y-102160001D01*
X178843803Y-102130998D01*
X179611004Y-101363798D01*
X179640001Y-101340001D01*
X179713031Y-101251014D01*
X179734974Y-101224277D01*
X179805546Y-101092247D01*
X179822076Y-101037753D01*
X179849003Y-100948986D01*
X179860000Y-100837333D01*
X179860000Y-100837324D01*
X179863676Y-100800001D01*
X179860000Y-100762678D01*
X179860000Y-93650961D01*
X180478096Y-93650961D01*
X180600085Y-93873000D01*
X182143000Y-93873000D01*
X182143000Y-92565000D01*
X181743000Y-92565000D01*
X181465486Y-92617350D01*
X181203517Y-92722834D01*
X180967161Y-92877399D01*
X180765500Y-93075105D01*
X180606285Y-93308354D01*
X180495633Y-93568182D01*
X180478096Y-93650961D01*
X179860000Y-93650961D01*
X179860000Y-87564801D01*
X180064802Y-87360000D01*
X180608172Y-87360000D01*
X180677503Y-87463762D01*
X180866238Y-87652497D01*
X181088167Y-87800785D01*
X181334761Y-87902928D01*
X181596544Y-87955000D01*
X181863456Y-87955000D01*
X182125239Y-87902928D01*
X182371833Y-87800785D01*
X182593762Y-87652497D01*
X182782497Y-87463762D01*
X182930785Y-87241833D01*
X183032928Y-86995239D01*
X183085000Y-86733456D01*
X183085000Y-86466544D01*
X183032928Y-86204761D01*
X182930785Y-85958167D01*
X182782497Y-85736238D01*
X182593762Y-85547503D01*
X182371833Y-85399215D01*
X182125239Y-85297072D01*
X181863456Y-85245000D01*
X181596544Y-85245000D01*
X181334761Y-85297072D01*
X181088167Y-85399215D01*
X180866238Y-85547503D01*
X180677503Y-85736238D01*
X180608172Y-85840000D01*
X179787323Y-85840000D01*
X179750000Y-85836324D01*
X179712677Y-85840000D01*
X179712667Y-85840000D01*
X179601014Y-85850997D01*
X179457753Y-85894454D01*
X179325724Y-85965026D01*
X179209999Y-86059999D01*
X179186200Y-86088998D01*
X178588998Y-86686201D01*
X178560000Y-86709999D01*
X178536202Y-86738997D01*
X178536201Y-86738998D01*
X178465026Y-86825724D01*
X178394454Y-86957754D01*
X178350998Y-87101015D01*
X178336324Y-87250000D01*
X178340001Y-87287332D01*
X178340000Y-100485198D01*
X177965199Y-100860000D01*
X176270901Y-100860000D01*
X176248932Y-100818899D01*
X176069608Y-100600392D01*
X175851101Y-100421068D01*
X175718142Y-100350000D01*
X175851101Y-100278932D01*
X176069608Y-100099608D01*
X176248932Y-99881101D01*
X176382182Y-99631808D01*
X176464236Y-99361309D01*
X176491943Y-99080000D01*
X176464236Y-98798691D01*
X176382182Y-98528192D01*
X176248932Y-98278899D01*
X176069608Y-98060392D01*
X175851101Y-97881068D01*
X175718142Y-97810000D01*
X175851101Y-97738932D01*
X176069608Y-97559608D01*
X176248932Y-97341101D01*
X176382182Y-97091808D01*
X176464236Y-96821309D01*
X176491943Y-96540000D01*
X176464236Y-96258691D01*
X176382182Y-95988192D01*
X176248932Y-95738899D01*
X176069608Y-95520392D01*
X175956518Y-95427581D01*
X175974482Y-95425812D01*
X176094180Y-95389502D01*
X176204494Y-95330537D01*
X176301185Y-95251185D01*
X176380537Y-95154494D01*
X176439502Y-95044180D01*
X176475812Y-94924482D01*
X176488072Y-94800000D01*
X176485000Y-94285750D01*
X176326250Y-94127000D01*
X174777000Y-94127000D01*
X174777000Y-94147000D01*
X174523000Y-94147000D01*
X174523000Y-94127000D01*
X172973750Y-94127000D01*
X172815000Y-94285750D01*
X172811928Y-94800000D01*
X172824188Y-94924482D01*
X172860498Y-95044180D01*
X172919463Y-95154494D01*
X172998815Y-95251185D01*
X173095506Y-95330537D01*
X173205820Y-95389502D01*
X173325518Y-95425812D01*
X173343482Y-95427581D01*
X173230392Y-95520392D01*
X173051068Y-95738899D01*
X172917818Y-95988192D01*
X172835764Y-96258691D01*
X172808057Y-96540000D01*
X166166401Y-96540000D01*
X166197914Y-96481045D01*
X166275394Y-96225625D01*
X166295000Y-96026563D01*
X166295000Y-95333436D01*
X166275394Y-95134374D01*
X166197914Y-94878955D01*
X166072092Y-94643560D01*
X165902764Y-94437235D01*
X165700000Y-94270830D01*
X165700000Y-93200000D01*
X172811928Y-93200000D01*
X172815000Y-93714250D01*
X172973750Y-93873000D01*
X174523000Y-93873000D01*
X174523000Y-92723750D01*
X174777000Y-92723750D01*
X174777000Y-93873000D01*
X176326250Y-93873000D01*
X176485000Y-93714250D01*
X176488072Y-93200000D01*
X176475812Y-93075518D01*
X176439502Y-92955820D01*
X176380537Y-92845506D01*
X176301185Y-92748815D01*
X176204494Y-92669463D01*
X176094180Y-92610498D01*
X175974482Y-92574188D01*
X175850000Y-92561928D01*
X174935750Y-92565000D01*
X174777000Y-92723750D01*
X174523000Y-92723750D01*
X174364250Y-92565000D01*
X173450000Y-92561928D01*
X173325518Y-92574188D01*
X173205820Y-92610498D01*
X173095506Y-92669463D01*
X172998815Y-92748815D01*
X172919463Y-92845506D01*
X172860498Y-92955820D01*
X172824188Y-93075518D01*
X172811928Y-93200000D01*
X165700000Y-93200000D01*
X165700000Y-89550000D01*
X172911928Y-89550000D01*
X172911928Y-91750000D01*
X172924188Y-91874482D01*
X172960498Y-91994180D01*
X173019463Y-92104494D01*
X173098815Y-92201185D01*
X173195506Y-92280537D01*
X173305820Y-92339502D01*
X173425518Y-92375812D01*
X173550000Y-92388072D01*
X175750000Y-92388072D01*
X175874482Y-92375812D01*
X175994180Y-92339502D01*
X176104494Y-92280537D01*
X176201185Y-92201185D01*
X176280537Y-92104494D01*
X176339502Y-91994180D01*
X176375812Y-91874482D01*
X176388072Y-91750000D01*
X176388072Y-89550000D01*
X176375812Y-89425518D01*
X176339502Y-89305820D01*
X176280537Y-89195506D01*
X176201185Y-89098815D01*
X176104494Y-89019463D01*
X175994180Y-88960498D01*
X175874482Y-88924188D01*
X175750000Y-88911928D01*
X173550000Y-88911928D01*
X173425518Y-88924188D01*
X173305820Y-88960498D01*
X173195506Y-89019463D01*
X173098815Y-89098815D01*
X173019463Y-89195506D01*
X172960498Y-89305820D01*
X172924188Y-89425518D01*
X172911928Y-89550000D01*
X165700000Y-89550000D01*
X165700000Y-84750000D01*
X167461928Y-84750000D01*
X167461928Y-86350000D01*
X167474188Y-86474482D01*
X167510498Y-86594180D01*
X167569463Y-86704494D01*
X167648815Y-86801185D01*
X167745506Y-86880537D01*
X167855820Y-86939502D01*
X167975518Y-86975812D01*
X168100000Y-86988072D01*
X169700000Y-86988072D01*
X169824482Y-86975812D01*
X169944180Y-86939502D01*
X170054494Y-86880537D01*
X170151185Y-86801185D01*
X170230537Y-86704494D01*
X170289502Y-86594180D01*
X170305117Y-86542702D01*
X171886903Y-86542702D01*
X171958486Y-86786671D01*
X172213996Y-86907571D01*
X172488184Y-86976300D01*
X172770512Y-86990217D01*
X173050130Y-86948787D01*
X173316292Y-86853603D01*
X173441514Y-86786671D01*
X173513097Y-86542702D01*
X173436939Y-86466544D01*
X175295000Y-86466544D01*
X175295000Y-86733456D01*
X175347072Y-86995239D01*
X175449215Y-87241833D01*
X175597503Y-87463762D01*
X175786238Y-87652497D01*
X176008167Y-87800785D01*
X176254761Y-87902928D01*
X176516544Y-87955000D01*
X176783456Y-87955000D01*
X177045239Y-87902928D01*
X177291833Y-87800785D01*
X177513762Y-87652497D01*
X177702497Y-87463762D01*
X177850785Y-87241833D01*
X177952928Y-86995239D01*
X178005000Y-86733456D01*
X178005000Y-86466544D01*
X177952928Y-86204761D01*
X177850785Y-85958167D01*
X177702497Y-85736238D01*
X177513762Y-85547503D01*
X177410000Y-85478172D01*
X177410000Y-85414801D01*
X178004802Y-84820000D01*
X178068172Y-84820000D01*
X178137503Y-84923762D01*
X178326238Y-85112497D01*
X178548167Y-85260785D01*
X178794761Y-85362928D01*
X179056544Y-85415000D01*
X179323456Y-85415000D01*
X179585239Y-85362928D01*
X179831833Y-85260785D01*
X180053762Y-85112497D01*
X180242497Y-84923762D01*
X180390785Y-84701833D01*
X180492928Y-84455239D01*
X180545000Y-84193456D01*
X180545000Y-83926544D01*
X180492928Y-83664761D01*
X180390785Y-83418167D01*
X180242497Y-83196238D01*
X180053762Y-83007503D01*
X179831833Y-82859215D01*
X179585239Y-82757072D01*
X179323456Y-82705000D01*
X179056544Y-82705000D01*
X178794761Y-82757072D01*
X178548167Y-82859215D01*
X178326238Y-83007503D01*
X178137503Y-83196238D01*
X178068172Y-83300000D01*
X177727322Y-83300000D01*
X177689999Y-83296324D01*
X177652676Y-83300000D01*
X177652667Y-83300000D01*
X177541014Y-83310997D01*
X177437995Y-83342247D01*
X177397753Y-83354454D01*
X177265723Y-83425026D01*
X177203218Y-83476323D01*
X177149999Y-83519999D01*
X177126201Y-83548997D01*
X176138998Y-84536201D01*
X176110000Y-84559999D01*
X176086202Y-84588997D01*
X176086201Y-84588998D01*
X176015026Y-84675724D01*
X175944454Y-84807754D01*
X175928606Y-84860001D01*
X175900998Y-84951014D01*
X175891347Y-85049002D01*
X175886324Y-85100000D01*
X175890001Y-85137332D01*
X175890001Y-85478171D01*
X175786238Y-85547503D01*
X175597503Y-85736238D01*
X175449215Y-85958167D01*
X175347072Y-86204761D01*
X175295000Y-86466544D01*
X173436939Y-86466544D01*
X172700000Y-85729605D01*
X171886903Y-86542702D01*
X170305117Y-86542702D01*
X170325812Y-86474482D01*
X170338072Y-86350000D01*
X170338072Y-85620512D01*
X171259783Y-85620512D01*
X171301213Y-85900130D01*
X171396397Y-86166292D01*
X171463329Y-86291514D01*
X171707298Y-86363097D01*
X172520395Y-85550000D01*
X172879605Y-85550000D01*
X173692702Y-86363097D01*
X173936671Y-86291514D01*
X174057571Y-86036004D01*
X174126300Y-85761816D01*
X174140217Y-85479488D01*
X174098787Y-85199870D01*
X174003603Y-84933708D01*
X173936671Y-84808486D01*
X173692702Y-84736903D01*
X172879605Y-85550000D01*
X172520395Y-85550000D01*
X171707298Y-84736903D01*
X171463329Y-84808486D01*
X171342429Y-85063996D01*
X171273700Y-85338184D01*
X171259783Y-85620512D01*
X170338072Y-85620512D01*
X170338072Y-84750000D01*
X170325812Y-84625518D01*
X170305118Y-84557298D01*
X171886903Y-84557298D01*
X172700000Y-85370395D01*
X173513097Y-84557298D01*
X173441514Y-84313329D01*
X173186004Y-84192429D01*
X172911816Y-84123700D01*
X172629488Y-84109783D01*
X172349870Y-84151213D01*
X172083708Y-84246397D01*
X171958486Y-84313329D01*
X171886903Y-84557298D01*
X170305118Y-84557298D01*
X170289502Y-84505820D01*
X170230537Y-84395506D01*
X170151185Y-84298815D01*
X170054494Y-84219463D01*
X169944180Y-84160498D01*
X169824482Y-84124188D01*
X169700000Y-84111928D01*
X168100000Y-84111928D01*
X167975518Y-84124188D01*
X167855820Y-84160498D01*
X167745506Y-84219463D01*
X167648815Y-84298815D01*
X167569463Y-84395506D01*
X167510498Y-84505820D01*
X167474188Y-84625518D01*
X167461928Y-84750000D01*
X165700000Y-84750000D01*
X165700000Y-79208665D01*
X167465000Y-79208665D01*
X167465000Y-79491335D01*
X167520147Y-79768574D01*
X167628320Y-80029727D01*
X167785363Y-80264759D01*
X167985241Y-80464637D01*
X168220273Y-80621680D01*
X168481426Y-80729853D01*
X168758665Y-80785000D01*
X169041335Y-80785000D01*
X169318574Y-80729853D01*
X169579727Y-80621680D01*
X169814759Y-80464637D01*
X169936694Y-80342702D01*
X170586903Y-80342702D01*
X170658486Y-80586671D01*
X170913996Y-80707571D01*
X171188184Y-80776300D01*
X171470512Y-80790217D01*
X171750130Y-80748787D01*
X172016292Y-80653603D01*
X172141514Y-80586671D01*
X172213097Y-80342702D01*
X171400000Y-79529605D01*
X170586903Y-80342702D01*
X169936694Y-80342702D01*
X170014637Y-80264759D01*
X170148692Y-80064131D01*
X170163329Y-80091514D01*
X170407298Y-80163097D01*
X171220395Y-79350000D01*
X171579605Y-79350000D01*
X172392702Y-80163097D01*
X172636671Y-80091514D01*
X172757571Y-79836004D01*
X172826300Y-79561816D01*
X172840217Y-79279488D01*
X172798787Y-78999870D01*
X172703603Y-78733708D01*
X172690621Y-78709419D01*
X174915000Y-78709419D01*
X174915000Y-79090581D01*
X174989361Y-79464419D01*
X175135225Y-79816566D01*
X175346987Y-80133491D01*
X175616509Y-80403013D01*
X175933434Y-80614775D01*
X176285581Y-80760639D01*
X176659419Y-80835000D01*
X177040581Y-80835000D01*
X177414419Y-80760639D01*
X177766566Y-80614775D01*
X178083491Y-80403013D01*
X178353013Y-80133491D01*
X178564775Y-79816566D01*
X178710639Y-79464419D01*
X178785000Y-79090581D01*
X178785000Y-78709419D01*
X178710639Y-78335581D01*
X178564775Y-77983434D01*
X178353013Y-77666509D01*
X178083491Y-77396987D01*
X177766566Y-77185225D01*
X177414419Y-77039361D01*
X177040581Y-76965000D01*
X176659419Y-76965000D01*
X176285581Y-77039361D01*
X175933434Y-77185225D01*
X175616509Y-77396987D01*
X175346987Y-77666509D01*
X175135225Y-77983434D01*
X174989361Y-78335581D01*
X174915000Y-78709419D01*
X172690621Y-78709419D01*
X172636671Y-78608486D01*
X172392702Y-78536903D01*
X171579605Y-79350000D01*
X171220395Y-79350000D01*
X170407298Y-78536903D01*
X170163329Y-78608486D01*
X170149676Y-78637341D01*
X170014637Y-78435241D01*
X169936694Y-78357298D01*
X170586903Y-78357298D01*
X171400000Y-79170395D01*
X172213097Y-78357298D01*
X172141514Y-78113329D01*
X171886004Y-77992429D01*
X171611816Y-77923700D01*
X171329488Y-77909783D01*
X171049870Y-77951213D01*
X170783708Y-78046397D01*
X170658486Y-78113329D01*
X170586903Y-78357298D01*
X169936694Y-78357298D01*
X169814759Y-78235363D01*
X169579727Y-78078320D01*
X169318574Y-77970147D01*
X169041335Y-77915000D01*
X168758665Y-77915000D01*
X168481426Y-77970147D01*
X168220273Y-78078320D01*
X167985241Y-78235363D01*
X167785363Y-78435241D01*
X167628320Y-78670273D01*
X167520147Y-78931426D01*
X167465000Y-79208665D01*
X165700000Y-79208665D01*
X165700000Y-77877323D01*
X165703676Y-77840000D01*
X165700000Y-77802677D01*
X165700000Y-77802667D01*
X165689003Y-77691014D01*
X165645546Y-77547753D01*
X165626224Y-77511605D01*
X165574974Y-77415723D01*
X165503799Y-77328997D01*
X165480001Y-77299999D01*
X165451004Y-77276202D01*
X162903919Y-74729117D01*
X175115000Y-74729117D01*
X175115000Y-75070883D01*
X175181675Y-75406081D01*
X175312463Y-75721831D01*
X175502337Y-76005998D01*
X175744002Y-76247663D01*
X176028169Y-76437537D01*
X176343919Y-76568325D01*
X176679117Y-76635000D01*
X177020883Y-76635000D01*
X177356081Y-76568325D01*
X177671831Y-76437537D01*
X177955998Y-76247663D01*
X178197663Y-76005998D01*
X178387537Y-75721831D01*
X178518325Y-75406081D01*
X178585000Y-75070883D01*
X178585000Y-74729117D01*
X178518325Y-74393919D01*
X178387537Y-74078169D01*
X178197663Y-73794002D01*
X177955998Y-73552337D01*
X177671831Y-73362463D01*
X177356081Y-73231675D01*
X177020883Y-73165000D01*
X176679117Y-73165000D01*
X176343919Y-73231675D01*
X176028169Y-73362463D01*
X175744002Y-73552337D01*
X175502337Y-73794002D01*
X175312463Y-74078169D01*
X175181675Y-74393919D01*
X175115000Y-74729117D01*
X162903919Y-74729117D01*
X160620000Y-72445199D01*
X160620000Y-72439170D01*
X160822765Y-72272765D01*
X160992092Y-72066440D01*
X161117914Y-71831045D01*
X161195394Y-71575625D01*
X161215000Y-71376563D01*
X161215000Y-70683436D01*
X161195394Y-70484374D01*
X161117914Y-70228955D01*
X160992092Y-69993560D01*
X160822764Y-69787235D01*
X160777394Y-69750000D01*
X168411928Y-69750000D01*
X168411928Y-71350000D01*
X168424188Y-71474482D01*
X168460498Y-71594180D01*
X168519463Y-71704494D01*
X168598815Y-71801185D01*
X168695506Y-71880537D01*
X168805820Y-71939502D01*
X168925518Y-71975812D01*
X169050000Y-71988072D01*
X170650000Y-71988072D01*
X170774482Y-71975812D01*
X170894180Y-71939502D01*
X171004494Y-71880537D01*
X171101185Y-71801185D01*
X171180537Y-71704494D01*
X171239502Y-71594180D01*
X171255117Y-71542702D01*
X172836903Y-71542702D01*
X172908486Y-71786671D01*
X173163996Y-71907571D01*
X173438184Y-71976300D01*
X173720512Y-71990217D01*
X174000130Y-71948787D01*
X174266292Y-71853603D01*
X174391514Y-71786671D01*
X174463097Y-71542702D01*
X173650000Y-70729605D01*
X172836903Y-71542702D01*
X171255117Y-71542702D01*
X171275812Y-71474482D01*
X171288072Y-71350000D01*
X171288072Y-70620512D01*
X172209783Y-70620512D01*
X172251213Y-70900130D01*
X172346397Y-71166292D01*
X172413329Y-71291514D01*
X172657298Y-71363097D01*
X173470395Y-70550000D01*
X173829605Y-70550000D01*
X174642702Y-71363097D01*
X174886671Y-71291514D01*
X175007571Y-71036004D01*
X175076300Y-70761816D01*
X175090217Y-70479488D01*
X175048787Y-70199870D01*
X174953603Y-69933708D01*
X174886671Y-69808486D01*
X174642702Y-69736903D01*
X173829605Y-70550000D01*
X173470395Y-70550000D01*
X172657298Y-69736903D01*
X172413329Y-69808486D01*
X172292429Y-70063996D01*
X172223700Y-70338184D01*
X172209783Y-70620512D01*
X171288072Y-70620512D01*
X171288072Y-69750000D01*
X171275812Y-69625518D01*
X171255118Y-69557298D01*
X172836903Y-69557298D01*
X173650000Y-70370395D01*
X174463097Y-69557298D01*
X174391514Y-69313329D01*
X174136004Y-69192429D01*
X173861816Y-69123700D01*
X173579488Y-69109783D01*
X173299870Y-69151213D01*
X173033708Y-69246397D01*
X172908486Y-69313329D01*
X172836903Y-69557298D01*
X171255118Y-69557298D01*
X171239502Y-69505820D01*
X171180537Y-69395506D01*
X171101185Y-69298815D01*
X171004494Y-69219463D01*
X170894180Y-69160498D01*
X170774482Y-69124188D01*
X170650000Y-69111928D01*
X169050000Y-69111928D01*
X168925518Y-69124188D01*
X168805820Y-69160498D01*
X168695506Y-69219463D01*
X168598815Y-69298815D01*
X168519463Y-69395506D01*
X168460498Y-69505820D01*
X168424188Y-69625518D01*
X168411928Y-69750000D01*
X160777394Y-69750000D01*
X160616439Y-69617908D01*
X160381044Y-69492086D01*
X160125625Y-69414606D01*
X159860000Y-69388444D01*
X159594374Y-69414606D01*
X159338955Y-69492086D01*
X159103560Y-69617908D01*
X158897235Y-69787236D01*
X158727908Y-69993561D01*
X158602086Y-70228956D01*
X158590000Y-70268798D01*
X158577914Y-70228955D01*
X158452092Y-69993560D01*
X158282764Y-69787235D01*
X158076439Y-69617908D01*
X157841044Y-69492086D01*
X157585625Y-69414606D01*
X157320000Y-69388444D01*
X157054374Y-69414606D01*
X156798955Y-69492086D01*
X156563560Y-69617908D01*
X156357235Y-69787236D01*
X156187908Y-69993561D01*
X156062086Y-70228956D01*
X156050000Y-70268798D01*
X156037914Y-70228955D01*
X155912092Y-69993560D01*
X155742764Y-69787235D01*
X155536439Y-69617908D01*
X155301044Y-69492086D01*
X155045625Y-69414606D01*
X154780000Y-69388444D01*
X154514374Y-69414606D01*
X154258955Y-69492086D01*
X154023560Y-69617908D01*
X153817235Y-69787236D01*
X153647908Y-69993561D01*
X153522086Y-70228956D01*
X153510000Y-70268798D01*
X153497914Y-70228955D01*
X153372092Y-69993560D01*
X153202764Y-69787235D01*
X152996439Y-69617908D01*
X152761044Y-69492086D01*
X152505625Y-69414606D01*
X152240000Y-69388444D01*
X151974374Y-69414606D01*
X151718955Y-69492086D01*
X151483560Y-69617908D01*
X151277235Y-69787236D01*
X151107908Y-69993561D01*
X150982086Y-70228956D01*
X150970000Y-70268798D01*
X150957914Y-70228955D01*
X150832092Y-69993560D01*
X150662764Y-69787235D01*
X150456439Y-69617908D01*
X150221044Y-69492086D01*
X149965625Y-69414606D01*
X149700000Y-69388444D01*
X149434374Y-69414606D01*
X149178955Y-69492086D01*
X148943560Y-69617908D01*
X148737235Y-69787236D01*
X148567908Y-69993561D01*
X148442086Y-70228956D01*
X148430000Y-70268798D01*
X148417914Y-70228955D01*
X148292092Y-69993560D01*
X148122764Y-69787235D01*
X147916439Y-69617908D01*
X147681044Y-69492086D01*
X147425625Y-69414606D01*
X147160000Y-69388444D01*
X146894374Y-69414606D01*
X146638955Y-69492086D01*
X146403560Y-69617908D01*
X146197235Y-69787236D01*
X146027908Y-69993561D01*
X145902086Y-70228956D01*
X145890000Y-70268798D01*
X145877914Y-70228955D01*
X145752092Y-69993560D01*
X145582764Y-69787235D01*
X145376439Y-69617908D01*
X145141044Y-69492086D01*
X144885625Y-69414606D01*
X144620000Y-69388444D01*
X144354374Y-69414606D01*
X144098955Y-69492086D01*
X143863560Y-69617908D01*
X143657235Y-69787236D01*
X143487908Y-69993561D01*
X143362086Y-70228956D01*
X143350000Y-70268798D01*
X143337914Y-70228955D01*
X143212092Y-69993560D01*
X143042764Y-69787235D01*
X142836439Y-69617908D01*
X142601044Y-69492086D01*
X142345625Y-69414606D01*
X142080000Y-69388444D01*
X141814374Y-69414606D01*
X141558955Y-69492086D01*
X141323560Y-69617908D01*
X141117235Y-69787236D01*
X140947908Y-69993561D01*
X140822086Y-70228956D01*
X140810000Y-70268798D01*
X140797914Y-70228955D01*
X140672092Y-69993560D01*
X140502764Y-69787235D01*
X140296439Y-69617908D01*
X140061044Y-69492086D01*
X139805625Y-69414606D01*
X139540000Y-69388444D01*
X139274374Y-69414606D01*
X139018955Y-69492086D01*
X138783560Y-69617908D01*
X138577235Y-69787236D01*
X138407908Y-69993561D01*
X138282086Y-70228956D01*
X138270000Y-70268798D01*
X138257914Y-70228955D01*
X138132092Y-69993560D01*
X137962764Y-69787235D01*
X137760000Y-69620830D01*
X137760000Y-69437322D01*
X137763676Y-69399999D01*
X137760000Y-69362676D01*
X137760000Y-69362667D01*
X137749003Y-69251014D01*
X137705546Y-69107753D01*
X137634974Y-68975724D01*
X137540001Y-68859999D01*
X137511004Y-68836202D01*
X134860000Y-66185199D01*
X134860000Y-66118043D01*
X135014759Y-66014637D01*
X135214637Y-65814759D01*
X135371680Y-65579727D01*
X135479853Y-65318574D01*
X135507807Y-65178043D01*
X135587818Y-65441808D01*
X135721068Y-65691101D01*
X135900392Y-65909608D01*
X136118899Y-66088932D01*
X136368192Y-66222182D01*
X136638691Y-66304236D01*
X136849508Y-66325000D01*
X136990492Y-66325000D01*
X137201309Y-66304236D01*
X137471808Y-66222182D01*
X137721101Y-66088932D01*
X137939608Y-65909608D01*
X138118932Y-65691101D01*
X138190000Y-65558142D01*
X138261068Y-65691101D01*
X138440392Y-65909608D01*
X138658899Y-66088932D01*
X138908192Y-66222182D01*
X139178691Y-66304236D01*
X139389508Y-66325000D01*
X139530492Y-66325000D01*
X139741309Y-66304236D01*
X140011808Y-66222182D01*
X140261101Y-66088932D01*
X140479608Y-65909608D01*
X140658932Y-65691101D01*
X140730000Y-65558142D01*
X140801068Y-65691101D01*
X140980392Y-65909608D01*
X141198899Y-66088932D01*
X141448192Y-66222182D01*
X141718691Y-66304236D01*
X141929508Y-66325000D01*
X142070492Y-66325000D01*
X142281309Y-66304236D01*
X142551808Y-66222182D01*
X142801101Y-66088932D01*
X143019608Y-65909608D01*
X143198932Y-65691101D01*
X143270000Y-65558142D01*
X143341068Y-65691101D01*
X143520392Y-65909608D01*
X143738899Y-66088932D01*
X143988192Y-66222182D01*
X144258691Y-66304236D01*
X144469508Y-66325000D01*
X144610492Y-66325000D01*
X144821309Y-66304236D01*
X145091808Y-66222182D01*
X145341101Y-66088932D01*
X145559608Y-65909608D01*
X145738932Y-65691101D01*
X145810000Y-65558142D01*
X145881068Y-65691101D01*
X146060392Y-65909608D01*
X146278899Y-66088932D01*
X146528192Y-66222182D01*
X146798691Y-66304236D01*
X147009508Y-66325000D01*
X147150492Y-66325000D01*
X147361309Y-66304236D01*
X147631808Y-66222182D01*
X147881101Y-66088932D01*
X148099608Y-65909608D01*
X148278932Y-65691101D01*
X148350000Y-65558142D01*
X148421068Y-65691101D01*
X148600392Y-65909608D01*
X148818899Y-66088932D01*
X149068192Y-66222182D01*
X149338691Y-66304236D01*
X149549508Y-66325000D01*
X149690492Y-66325000D01*
X149901309Y-66304236D01*
X150171808Y-66222182D01*
X150421101Y-66088932D01*
X150639608Y-65909608D01*
X150818932Y-65691101D01*
X150952182Y-65441808D01*
X151034236Y-65171309D01*
X151061943Y-64890000D01*
X153258057Y-64890000D01*
X153285764Y-65171309D01*
X153367818Y-65441808D01*
X153501068Y-65691101D01*
X153680392Y-65909608D01*
X153898899Y-66088932D01*
X154148192Y-66222182D01*
X154418691Y-66304236D01*
X154629508Y-66325000D01*
X154770492Y-66325000D01*
X154981309Y-66304236D01*
X155251808Y-66222182D01*
X155501101Y-66088932D01*
X155719608Y-65909608D01*
X155898932Y-65691101D01*
X155972579Y-65553318D01*
X156087615Y-65745131D01*
X156276586Y-65953519D01*
X156502580Y-66121037D01*
X156756913Y-66241246D01*
X156890961Y-66281904D01*
X157113000Y-66159915D01*
X157113000Y-65017000D01*
X157367000Y-65017000D01*
X157367000Y-66159915D01*
X157589039Y-66281904D01*
X157723087Y-66241246D01*
X157977420Y-66121037D01*
X158203414Y-65953519D01*
X158392385Y-65745131D01*
X158510000Y-65549018D01*
X158627615Y-65745131D01*
X158816586Y-65953519D01*
X159042580Y-66121037D01*
X159296913Y-66241246D01*
X159430961Y-66281904D01*
X159653000Y-66159915D01*
X159653000Y-65017000D01*
X157367000Y-65017000D01*
X157113000Y-65017000D01*
X157093000Y-65017000D01*
X157093000Y-64763000D01*
X157113000Y-64763000D01*
X157113000Y-63620085D01*
X157367000Y-63620085D01*
X157367000Y-64763000D01*
X159653000Y-64763000D01*
X159653000Y-63620085D01*
X159907000Y-63620085D01*
X159907000Y-64763000D01*
X159927000Y-64763000D01*
X159927000Y-65017000D01*
X159907000Y-65017000D01*
X159907000Y-66159915D01*
X160129039Y-66281904D01*
X160263087Y-66241246D01*
X160517420Y-66121037D01*
X160743414Y-65953519D01*
X160932385Y-65745131D01*
X161047421Y-65553318D01*
X161121068Y-65691101D01*
X161300392Y-65909608D01*
X161518899Y-66088932D01*
X161768192Y-66222182D01*
X162038691Y-66304236D01*
X162249508Y-66325000D01*
X162390492Y-66325000D01*
X162601309Y-66304236D01*
X162871808Y-66222182D01*
X163121101Y-66088932D01*
X163339608Y-65909608D01*
X163518932Y-65691101D01*
X163590000Y-65558142D01*
X163661068Y-65691101D01*
X163840392Y-65909608D01*
X164058899Y-66088932D01*
X164308192Y-66222182D01*
X164578691Y-66304236D01*
X164789508Y-66325000D01*
X164930492Y-66325000D01*
X165141309Y-66304236D01*
X165411808Y-66222182D01*
X165661101Y-66088932D01*
X165879608Y-65909608D01*
X166058932Y-65691101D01*
X166130000Y-65558142D01*
X166201068Y-65691101D01*
X166380392Y-65909608D01*
X166598899Y-66088932D01*
X166848192Y-66222182D01*
X167118691Y-66304236D01*
X167329508Y-66325000D01*
X167470492Y-66325000D01*
X167681309Y-66304236D01*
X167951808Y-66222182D01*
X168201101Y-66088932D01*
X168419608Y-65909608D01*
X168598932Y-65691101D01*
X168670000Y-65558142D01*
X168741068Y-65691101D01*
X168920392Y-65909608D01*
X169138899Y-66088932D01*
X169388192Y-66222182D01*
X169658691Y-66304236D01*
X169869508Y-66325000D01*
X170010492Y-66325000D01*
X170221309Y-66304236D01*
X170491808Y-66222182D01*
X170741101Y-66088932D01*
X170959608Y-65909608D01*
X171052419Y-65796518D01*
X171054188Y-65814482D01*
X171090498Y-65934180D01*
X171149463Y-66044494D01*
X171228815Y-66141185D01*
X171325506Y-66220537D01*
X171435820Y-66279502D01*
X171555518Y-66315812D01*
X171680000Y-66328072D01*
X173280000Y-66328072D01*
X173404482Y-66315812D01*
X173524180Y-66279502D01*
X173634494Y-66220537D01*
X173731185Y-66141185D01*
X173810537Y-66044494D01*
X173869502Y-65934180D01*
X173905812Y-65814482D01*
X173918072Y-65690000D01*
X173918072Y-64090000D01*
X173905812Y-63965518D01*
X173869502Y-63845820D01*
X173810537Y-63735506D01*
X173731185Y-63638815D01*
X173634494Y-63559463D01*
X173524180Y-63500498D01*
X173404482Y-63464188D01*
X173280000Y-63451928D01*
X171680000Y-63451928D01*
X171555518Y-63464188D01*
X171435820Y-63500498D01*
X171325506Y-63559463D01*
X171228815Y-63638815D01*
X171149463Y-63735506D01*
X171090498Y-63845820D01*
X171054188Y-63965518D01*
X171052419Y-63983482D01*
X170959608Y-63870392D01*
X170741101Y-63691068D01*
X170491808Y-63557818D01*
X170221309Y-63475764D01*
X170010492Y-63455000D01*
X169869508Y-63455000D01*
X169658691Y-63475764D01*
X169388192Y-63557818D01*
X169138899Y-63691068D01*
X168920392Y-63870392D01*
X168741068Y-64088899D01*
X168670000Y-64221858D01*
X168598932Y-64088899D01*
X168419608Y-63870392D01*
X168201101Y-63691068D01*
X167951808Y-63557818D01*
X167681309Y-63475764D01*
X167470492Y-63455000D01*
X167329508Y-63455000D01*
X167118691Y-63475764D01*
X166848192Y-63557818D01*
X166598899Y-63691068D01*
X166380392Y-63870392D01*
X166201068Y-64088899D01*
X166130000Y-64221858D01*
X166058932Y-64088899D01*
X165879608Y-63870392D01*
X165661101Y-63691068D01*
X165411808Y-63557818D01*
X165141309Y-63475764D01*
X164930492Y-63455000D01*
X164789508Y-63455000D01*
X164578691Y-63475764D01*
X164308192Y-63557818D01*
X164058899Y-63691068D01*
X163840392Y-63870392D01*
X163661068Y-64088899D01*
X163590000Y-64221858D01*
X163518932Y-64088899D01*
X163339608Y-63870392D01*
X163121101Y-63691068D01*
X162871808Y-63557818D01*
X162601309Y-63475764D01*
X162390492Y-63455000D01*
X162249508Y-63455000D01*
X162038691Y-63475764D01*
X161768192Y-63557818D01*
X161518899Y-63691068D01*
X161300392Y-63870392D01*
X161121068Y-64088899D01*
X161047421Y-64226682D01*
X160932385Y-64034869D01*
X160743414Y-63826481D01*
X160517420Y-63658963D01*
X160263087Y-63538754D01*
X160129039Y-63498096D01*
X159907000Y-63620085D01*
X159653000Y-63620085D01*
X159430961Y-63498096D01*
X159296913Y-63538754D01*
X159042580Y-63658963D01*
X158816586Y-63826481D01*
X158627615Y-64034869D01*
X158510000Y-64230982D01*
X158392385Y-64034869D01*
X158203414Y-63826481D01*
X157977420Y-63658963D01*
X157723087Y-63538754D01*
X157589039Y-63498096D01*
X157367000Y-63620085D01*
X157113000Y-63620085D01*
X156890961Y-63498096D01*
X156756913Y-63538754D01*
X156502580Y-63658963D01*
X156276586Y-63826481D01*
X156087615Y-64034869D01*
X155972579Y-64226682D01*
X155898932Y-64088899D01*
X155719608Y-63870392D01*
X155501101Y-63691068D01*
X155251808Y-63557818D01*
X154981309Y-63475764D01*
X154770492Y-63455000D01*
X154629508Y-63455000D01*
X154418691Y-63475764D01*
X154148192Y-63557818D01*
X153898899Y-63691068D01*
X153680392Y-63870392D01*
X153501068Y-64088899D01*
X153367818Y-64338192D01*
X153285764Y-64608691D01*
X153258057Y-64890000D01*
X151061943Y-64890000D01*
X151034236Y-64608691D01*
X150952182Y-64338192D01*
X150818932Y-64088899D01*
X150639608Y-63870392D01*
X150421101Y-63691068D01*
X150171808Y-63557818D01*
X149901309Y-63475764D01*
X149690492Y-63455000D01*
X149549508Y-63455000D01*
X149338691Y-63475764D01*
X149068192Y-63557818D01*
X148818899Y-63691068D01*
X148600392Y-63870392D01*
X148421068Y-64088899D01*
X148350000Y-64221858D01*
X148278932Y-64088899D01*
X148099608Y-63870392D01*
X147881101Y-63691068D01*
X147631808Y-63557818D01*
X147361309Y-63475764D01*
X147150492Y-63455000D01*
X147009508Y-63455000D01*
X146798691Y-63475764D01*
X146528192Y-63557818D01*
X146278899Y-63691068D01*
X146060392Y-63870392D01*
X145881068Y-64088899D01*
X145810000Y-64221858D01*
X145738932Y-64088899D01*
X145559608Y-63870392D01*
X145341101Y-63691068D01*
X145091808Y-63557818D01*
X144821309Y-63475764D01*
X144610492Y-63455000D01*
X144469508Y-63455000D01*
X144258691Y-63475764D01*
X143988192Y-63557818D01*
X143738899Y-63691068D01*
X143520392Y-63870392D01*
X143341068Y-64088899D01*
X143270000Y-64221858D01*
X143198932Y-64088899D01*
X143019608Y-63870392D01*
X142801101Y-63691068D01*
X142551808Y-63557818D01*
X142281309Y-63475764D01*
X142070492Y-63455000D01*
X141929508Y-63455000D01*
X141718691Y-63475764D01*
X141448192Y-63557818D01*
X141198899Y-63691068D01*
X140980392Y-63870392D01*
X140801068Y-64088899D01*
X140730000Y-64221858D01*
X140658932Y-64088899D01*
X140479608Y-63870392D01*
X140261101Y-63691068D01*
X140011808Y-63557818D01*
X139741309Y-63475764D01*
X139530492Y-63455000D01*
X139389508Y-63455000D01*
X139178691Y-63475764D01*
X138908192Y-63557818D01*
X138658899Y-63691068D01*
X138440392Y-63870392D01*
X138261068Y-64088899D01*
X138190000Y-64221858D01*
X138118932Y-64088899D01*
X137939608Y-63870392D01*
X137721101Y-63691068D01*
X137471808Y-63557818D01*
X137201309Y-63475764D01*
X136990492Y-63455000D01*
X136849508Y-63455000D01*
X136638691Y-63475764D01*
X136368192Y-63557818D01*
X136118899Y-63691068D01*
X135900392Y-63870392D01*
X135721068Y-64088899D01*
X135587818Y-64338192D01*
X135505764Y-64608691D01*
X135505567Y-64610695D01*
X135479853Y-64481426D01*
X135371680Y-64220273D01*
X135214637Y-63985241D01*
X135014759Y-63785363D01*
X134779727Y-63628320D01*
X134518574Y-63520147D01*
X134241335Y-63465000D01*
X133958665Y-63465000D01*
X133681426Y-63520147D01*
X133420273Y-63628320D01*
X133185241Y-63785363D01*
X132985363Y-63985241D01*
X132851308Y-64185869D01*
X132836671Y-64158486D01*
X132592702Y-64086903D01*
X131779605Y-64900000D01*
X131420395Y-64900000D01*
X130607298Y-64086903D01*
X130363329Y-64158486D01*
X130242429Y-64413996D01*
X130173700Y-64688184D01*
X130159783Y-64970512D01*
X128162868Y-64970512D01*
X129226082Y-63907298D01*
X130786903Y-63907298D01*
X131600000Y-64720395D01*
X132413097Y-63907298D01*
X132341514Y-63663329D01*
X132086004Y-63542429D01*
X131811816Y-63473700D01*
X131529488Y-63459783D01*
X131249870Y-63501213D01*
X130983708Y-63596397D01*
X130858486Y-63663329D01*
X130786903Y-63907298D01*
X129226082Y-63907298D01*
X130273381Y-62860000D01*
X182726620Y-62860000D01*
X184340000Y-64473381D01*
X184340000Y-64473381D01*
G37*
X184340000Y-64473381D02*
X184340000Y-76315198D01*
X183713802Y-75689001D01*
X183713798Y-75688996D01*
X183645787Y-75620985D01*
X183710639Y-75464419D01*
X183785000Y-75090581D01*
X183785000Y-74709419D01*
X183710639Y-74335581D01*
X183564775Y-73983434D01*
X183353013Y-73666509D01*
X183083491Y-73396987D01*
X182766566Y-73185225D01*
X182414419Y-73039361D01*
X182040581Y-72965000D01*
X181659419Y-72965000D01*
X181285581Y-73039361D01*
X180933434Y-73185225D01*
X180616509Y-73396987D01*
X180346987Y-73666509D01*
X180135225Y-73983434D01*
X179989361Y-74335581D01*
X179915000Y-74709419D01*
X179915000Y-75090581D01*
X179989361Y-75464419D01*
X180135225Y-75816566D01*
X180346987Y-76133491D01*
X180616509Y-76403013D01*
X180933434Y-76614775D01*
X181285581Y-76760639D01*
X181659419Y-76835000D01*
X182040581Y-76835000D01*
X182414419Y-76760639D01*
X182570985Y-76695787D01*
X182638996Y-76763798D01*
X182639001Y-76763802D01*
X183140001Y-77264803D01*
X183140001Y-77736340D01*
X182955998Y-77552337D01*
X182671831Y-77362463D01*
X182356081Y-77231675D01*
X182020883Y-77165000D01*
X181679117Y-77165000D01*
X181343919Y-77231675D01*
X181028169Y-77362463D01*
X180744002Y-77552337D01*
X180502337Y-77794002D01*
X180312463Y-78078169D01*
X180181675Y-78393919D01*
X180115000Y-78729117D01*
X180115000Y-79070883D01*
X180181675Y-79406081D01*
X180312463Y-79721831D01*
X180502337Y-80005998D01*
X180744002Y-80247663D01*
X181028169Y-80437537D01*
X181343919Y-80568325D01*
X181679117Y-80635000D01*
X182020883Y-80635000D01*
X182356081Y-80568325D01*
X182671831Y-80437537D01*
X182955998Y-80247663D01*
X183140001Y-80063660D01*
X183140000Y-88705198D01*
X182836440Y-89008759D01*
X182610119Y-88940105D01*
X182355225Y-88915000D01*
X182184775Y-88915000D01*
X181929881Y-88940105D01*
X181602832Y-89039314D01*
X181301422Y-89200421D01*
X181037234Y-89417234D01*
X180820421Y-89681422D01*
X180659314Y-89982832D01*
X180560105Y-90309881D01*
X180526606Y-90650000D01*
X180560105Y-90990119D01*
X180659314Y-91317168D01*
X180820421Y-91618578D01*
X181037234Y-91882766D01*
X181301422Y-92099579D01*
X181602832Y-92260686D01*
X181929881Y-92359895D01*
X182184775Y-92385000D01*
X182355225Y-92385000D01*
X182610119Y-92359895D01*
X182836440Y-92291241D01*
X183221891Y-92676692D01*
X183074514Y-92617350D01*
X182797000Y-92565000D01*
X182397000Y-92565000D01*
X182397000Y-93873000D01*
X182417000Y-93873000D01*
X182417000Y-94127000D01*
X182397000Y-94127000D01*
X182397000Y-94147000D01*
X182143000Y-94147000D01*
X182143000Y-94127000D01*
X180600085Y-94127000D01*
X180478096Y-94349039D01*
X180495633Y-94431818D01*
X180606285Y-94691646D01*
X180765500Y-94924895D01*
X180967161Y-95122601D01*
X181196741Y-95272735D01*
X181068899Y-95341068D01*
X180850392Y-95520392D01*
X180671068Y-95738899D01*
X180537818Y-95988192D01*
X180455764Y-96258691D01*
X180428057Y-96540000D01*
X180455764Y-96821309D01*
X180537818Y-97091808D01*
X180671068Y-97341101D01*
X180850392Y-97559608D01*
X181068899Y-97738932D01*
X181201858Y-97810000D01*
X181068899Y-97881068D01*
X180850392Y-98060392D01*
X180671068Y-98278899D01*
X180537818Y-98528192D01*
X180455764Y-98798691D01*
X180428057Y-99080000D01*
X180455764Y-99361309D01*
X180537818Y-99631808D01*
X180671068Y-99881101D01*
X180850392Y-100099608D01*
X181068899Y-100278932D01*
X181201858Y-100350000D01*
X181068899Y-100421068D01*
X180850392Y-100600392D01*
X180671068Y-100818899D01*
X180537818Y-101068192D01*
X180455764Y-101338691D01*
X180428057Y-101620000D01*
X180455764Y-101901309D01*
X180537818Y-102171808D01*
X180671068Y-102421101D01*
X180850392Y-102639608D01*
X181068899Y-102818932D01*
X181318192Y-102952182D01*
X181588691Y-103034236D01*
X181799508Y-103055000D01*
X182740492Y-103055000D01*
X182951309Y-103034236D01*
X183221808Y-102952182D01*
X183471101Y-102818932D01*
X183689608Y-102639608D01*
X183868932Y-102421101D01*
X184002182Y-102171808D01*
X184084236Y-101901309D01*
X184111943Y-101620000D01*
X184084236Y-101338691D01*
X184002182Y-101068192D01*
X183868932Y-100818899D01*
X183689608Y-100600392D01*
X183471101Y-100421068D01*
X183338142Y-100350000D01*
X183471101Y-100278932D01*
X183689608Y-100099608D01*
X183868932Y-99881101D01*
X184002182Y-99631808D01*
X184084236Y-99361309D01*
X184111943Y-99080000D01*
X184084236Y-98798691D01*
X184002182Y-98528192D01*
X183868932Y-98278899D01*
X183689608Y-98060392D01*
X183471101Y-97881068D01*
X183338142Y-97810000D01*
X183471101Y-97738932D01*
X183689608Y-97559608D01*
X183868932Y-97341101D01*
X183904093Y-97275320D01*
X184002247Y-97245546D01*
X184134276Y-97174974D01*
X184250001Y-97080001D01*
X184273803Y-97050998D01*
X184340001Y-96984800D01*
X184340001Y-113526618D01*
X182726620Y-115140000D01*
X130273381Y-115140000D01*
X126126083Y-110992702D01*
X136186903Y-110992702D01*
X136258486Y-111236671D01*
X136513996Y-111357571D01*
X136788184Y-111426300D01*
X137070512Y-111440217D01*
X137350130Y-111398787D01*
X137616292Y-111303603D01*
X137741514Y-111236671D01*
X137813097Y-110992702D01*
X137000000Y-110179605D01*
X136186903Y-110992702D01*
X126126083Y-110992702D01*
X125660000Y-110526620D01*
X125660000Y-110070512D01*
X135559783Y-110070512D01*
X135601213Y-110350130D01*
X135696397Y-110616292D01*
X135763329Y-110741514D01*
X136007298Y-110813097D01*
X136820395Y-110000000D01*
X136007298Y-109186903D01*
X135763329Y-109258486D01*
X135642429Y-109513996D01*
X135573700Y-109788184D01*
X135559783Y-110070512D01*
X125660000Y-110070512D01*
X125660000Y-109007298D01*
X136186903Y-109007298D01*
X137000000Y-109820395D01*
X137813097Y-109007298D01*
X137741514Y-108763329D01*
X137486004Y-108642429D01*
X137211816Y-108573700D01*
X136929488Y-108559783D01*
X136649870Y-108601213D01*
X136383708Y-108696397D01*
X136258486Y-108763329D01*
X136186903Y-109007298D01*
X125660000Y-109007298D01*
X125660000Y-104300000D01*
X135641928Y-104300000D01*
X135654188Y-104424482D01*
X135690498Y-104544180D01*
X135749463Y-104654494D01*
X135828815Y-104751185D01*
X135925506Y-104830537D01*
X136035820Y-104889502D01*
X136155518Y-104925812D01*
X136280000Y-104938072D01*
X136714250Y-104935000D01*
X136873000Y-104776250D01*
X136873000Y-103427000D01*
X135803750Y-103427000D01*
X135645000Y-103585750D01*
X135641928Y-104300000D01*
X125660000Y-104300000D01*
X125660000Y-102300000D01*
X135641928Y-102300000D01*
X135645000Y-103014250D01*
X135803750Y-103173000D01*
X136873000Y-103173000D01*
X136873000Y-101823750D01*
X136714250Y-101665000D01*
X136280000Y-101661928D01*
X136155518Y-101674188D01*
X136035820Y-101710498D01*
X135925506Y-101769463D01*
X135828815Y-101848815D01*
X135749463Y-101945506D01*
X135690498Y-102055820D01*
X135654188Y-102175518D01*
X135641928Y-102300000D01*
X125660000Y-102300000D01*
X125660000Y-90142702D01*
X130786903Y-90142702D01*
X130858486Y-90386671D01*
X131113996Y-90507571D01*
X131388184Y-90576300D01*
X131670512Y-90590217D01*
X131950130Y-90548787D01*
X132216292Y-90453603D01*
X132341514Y-90386671D01*
X132413097Y-90142702D01*
X131600000Y-89329605D01*
X130786903Y-90142702D01*
X125660000Y-90142702D01*
X125660000Y-89220512D01*
X130159783Y-89220512D01*
X130201213Y-89500130D01*
X130296397Y-89766292D01*
X130363329Y-89891514D01*
X130607298Y-89963097D01*
X131420395Y-89150000D01*
X130607298Y-88336903D01*
X130363329Y-88408486D01*
X130242429Y-88663996D01*
X130173700Y-88938184D01*
X130159783Y-89220512D01*
X125660000Y-89220512D01*
X125660000Y-88157298D01*
X130786903Y-88157298D01*
X131600000Y-88970395D01*
X132413097Y-88157298D01*
X132341514Y-87913329D01*
X132086004Y-87792429D01*
X131811816Y-87723700D01*
X131529488Y-87709783D01*
X131249870Y-87751213D01*
X130983708Y-87846397D01*
X130858486Y-87913329D01*
X130786903Y-88157298D01*
X125660000Y-88157298D01*
X125660000Y-85620512D01*
X135559783Y-85620512D01*
X135601213Y-85900130D01*
X135696397Y-86166292D01*
X135763329Y-86291514D01*
X136007298Y-86363097D01*
X136820395Y-85550000D01*
X136007298Y-84736903D01*
X135763329Y-84808486D01*
X135642429Y-85063996D01*
X135573700Y-85338184D01*
X135559783Y-85620512D01*
X125660000Y-85620512D01*
X125660000Y-79650000D01*
X135641928Y-79650000D01*
X135654188Y-79774482D01*
X135690498Y-79894180D01*
X135749463Y-80004494D01*
X135828815Y-80101185D01*
X135925506Y-80180537D01*
X136035820Y-80239502D01*
X136155518Y-80275812D01*
X136280000Y-80288072D01*
X136714250Y-80285000D01*
X136873000Y-80126250D01*
X136873000Y-78777000D01*
X135803750Y-78777000D01*
X135645000Y-78935750D01*
X135641928Y-79650000D01*
X125660000Y-79650000D01*
X125660000Y-77650000D01*
X135641928Y-77650000D01*
X135645000Y-78364250D01*
X135803750Y-78523000D01*
X136873000Y-78523000D01*
X136873000Y-77173750D01*
X136714250Y-77015000D01*
X136280000Y-77011928D01*
X136155518Y-77024188D01*
X136035820Y-77060498D01*
X135925506Y-77119463D01*
X135828815Y-77198815D01*
X135749463Y-77295506D01*
X135690498Y-77405820D01*
X135654188Y-77525518D01*
X135641928Y-77650000D01*
X125660000Y-77650000D01*
X125660000Y-67473380D01*
X127240678Y-65892702D01*
X130786903Y-65892702D01*
X130858486Y-66136671D01*
X131113996Y-66257571D01*
X131388184Y-66326300D01*
X131670512Y-66340217D01*
X131950130Y-66298787D01*
X132216292Y-66203603D01*
X132341514Y-66136671D01*
X132413097Y-65892702D01*
X131600000Y-65079605D01*
X130786903Y-65892702D01*
X127240678Y-65892702D01*
X128162868Y-64970512D01*
X130159783Y-64970512D01*
X130201213Y-65250130D01*
X130296397Y-65516292D01*
X130363329Y-65641514D01*
X130607298Y-65713097D01*
X131420395Y-64900000D01*
X131779605Y-64900000D01*
X132592702Y-65713097D01*
X132836671Y-65641514D01*
X132850324Y-65612659D01*
X132985363Y-65814759D01*
X133185241Y-66014637D01*
X133340001Y-66118044D01*
X133340001Y-66462668D01*
X133336324Y-66500000D01*
X133350998Y-66648985D01*
X133394454Y-66792246D01*
X133465026Y-66924276D01*
X133536201Y-67011002D01*
X133560000Y-67040001D01*
X133588998Y-67063799D01*
X136188386Y-69663188D01*
X136037235Y-69787236D01*
X135867908Y-69993561D01*
X135742086Y-70228956D01*
X135664606Y-70484375D01*
X135645000Y-70683437D01*
X135645000Y-71376564D01*
X135664606Y-71575626D01*
X135742086Y-71831045D01*
X135867908Y-72066440D01*
X136037236Y-72272765D01*
X136243561Y-72442092D01*
X136478956Y-72567914D01*
X136734375Y-72645394D01*
X137000000Y-72671556D01*
X137265626Y-72645394D01*
X137521045Y-72567914D01*
X137756440Y-72442092D01*
X137962765Y-72272765D01*
X138132092Y-72066440D01*
X138257914Y-71831045D01*
X138270000Y-71791202D01*
X138282086Y-71831045D01*
X138407908Y-72066440D01*
X138577236Y-72272765D01*
X138780001Y-72439170D01*
X138780000Y-73945197D01*
X137738998Y-74986201D01*
X137710000Y-75009999D01*
X137686202Y-75038997D01*
X137686201Y-75038998D01*
X137615026Y-75125724D01*
X137544454Y-75257754D01*
X137500998Y-75401015D01*
X137486324Y-75550000D01*
X137490001Y-75587333D01*
X137490001Y-77013555D01*
X137285750Y-77015000D01*
X137127000Y-77173750D01*
X137127000Y-78523000D01*
X137147000Y-78523000D01*
X137147000Y-78777000D01*
X137127000Y-78777000D01*
X137127000Y-80126250D01*
X137285750Y-80285000D01*
X137490001Y-80286445D01*
X137490001Y-84194320D01*
X137486004Y-84192429D01*
X137211816Y-84123700D01*
X136929488Y-84109783D01*
X136649870Y-84151213D01*
X136383708Y-84246397D01*
X136258486Y-84313329D01*
X136186903Y-84557298D01*
X137000000Y-85370395D01*
X137014143Y-85356253D01*
X137193748Y-85535858D01*
X137179605Y-85550000D01*
X137193748Y-85564143D01*
X137014143Y-85743748D01*
X137000000Y-85729605D01*
X136186903Y-86542702D01*
X136258486Y-86786671D01*
X136513996Y-86907571D01*
X136788184Y-86976300D01*
X137070512Y-86990217D01*
X137350130Y-86948787D01*
X137490000Y-86898767D01*
X137490000Y-87713780D01*
X137285750Y-87715000D01*
X137127000Y-87873750D01*
X137127000Y-89023000D01*
X137147000Y-89023000D01*
X137147000Y-89277000D01*
X137127000Y-89277000D01*
X137127000Y-90426250D01*
X137285750Y-90585000D01*
X137490000Y-90586220D01*
X137490000Y-93065198D01*
X134860000Y-90435199D01*
X134860000Y-90368043D01*
X135014759Y-90264637D01*
X135214637Y-90064759D01*
X135291316Y-89950000D01*
X135561928Y-89950000D01*
X135574188Y-90074482D01*
X135610498Y-90194180D01*
X135669463Y-90304494D01*
X135748815Y-90401185D01*
X135845506Y-90480537D01*
X135955820Y-90539502D01*
X136075518Y-90575812D01*
X136200000Y-90588072D01*
X136714250Y-90585000D01*
X136873000Y-90426250D01*
X136873000Y-89277000D01*
X135723750Y-89277000D01*
X135565000Y-89435750D01*
X135561928Y-89950000D01*
X135291316Y-89950000D01*
X135371680Y-89829727D01*
X135479853Y-89568574D01*
X135535000Y-89291335D01*
X135535000Y-89008665D01*
X135479853Y-88731426D01*
X135371680Y-88470273D01*
X135291317Y-88350000D01*
X135561928Y-88350000D01*
X135565000Y-88864250D01*
X135723750Y-89023000D01*
X136873000Y-89023000D01*
X136873000Y-87873750D01*
X136714250Y-87715000D01*
X136200000Y-87711928D01*
X136075518Y-87724188D01*
X135955820Y-87760498D01*
X135845506Y-87819463D01*
X135748815Y-87898815D01*
X135669463Y-87995506D01*
X135610498Y-88105820D01*
X135574188Y-88225518D01*
X135561928Y-88350000D01*
X135291317Y-88350000D01*
X135214637Y-88235241D01*
X135014759Y-88035363D01*
X134779727Y-87878320D01*
X134518574Y-87770147D01*
X134241335Y-87715000D01*
X133958665Y-87715000D01*
X133681426Y-87770147D01*
X133420273Y-87878320D01*
X133185241Y-88035363D01*
X132985363Y-88235241D01*
X132851308Y-88435869D01*
X132836671Y-88408486D01*
X132592702Y-88336903D01*
X131779605Y-89150000D01*
X132592702Y-89963097D01*
X132836671Y-89891514D01*
X132850324Y-89862659D01*
X132985363Y-90064759D01*
X133185241Y-90264637D01*
X133340001Y-90368044D01*
X133340001Y-90712668D01*
X133336324Y-90750000D01*
X133340001Y-90787333D01*
X133350998Y-90898986D01*
X133364121Y-90942246D01*
X133394454Y-91042246D01*
X133465026Y-91174276D01*
X133536201Y-91261002D01*
X133560000Y-91290001D01*
X133588998Y-91313799D01*
X136240000Y-93964802D01*
X136240000Y-94270829D01*
X136037235Y-94437236D01*
X135867908Y-94643561D01*
X135742086Y-94878956D01*
X135664606Y-95134375D01*
X135645000Y-95333437D01*
X135645000Y-96026564D01*
X135664606Y-96225626D01*
X135742086Y-96481045D01*
X135867908Y-96716440D01*
X136037236Y-96922765D01*
X136243561Y-97092092D01*
X136478956Y-97217914D01*
X136734375Y-97295394D01*
X137000000Y-97321556D01*
X137265626Y-97295394D01*
X137490000Y-97227331D01*
X137490000Y-97462678D01*
X137486324Y-97500000D01*
X137490000Y-97537322D01*
X137490000Y-97537332D01*
X137500997Y-97648985D01*
X137544454Y-97792246D01*
X137615026Y-97924276D01*
X137639614Y-97954236D01*
X137709999Y-98040001D01*
X137739003Y-98063804D01*
X141320001Y-101644803D01*
X141320001Y-101890829D01*
X141117235Y-102057236D01*
X140947908Y-102263561D01*
X140822086Y-102498956D01*
X140810000Y-102538798D01*
X140797914Y-102498955D01*
X140672092Y-102263560D01*
X140502764Y-102057235D01*
X140296439Y-101887908D01*
X140061044Y-101762086D01*
X139805625Y-101684606D01*
X139540000Y-101658444D01*
X139274374Y-101684606D01*
X139018955Y-101762086D01*
X138783560Y-101887908D01*
X138577235Y-102057236D01*
X138407908Y-102263561D01*
X138357826Y-102357258D01*
X138358072Y-102300000D01*
X138345812Y-102175518D01*
X138309502Y-102055820D01*
X138250537Y-101945506D01*
X138171185Y-101848815D01*
X138074494Y-101769463D01*
X137964180Y-101710498D01*
X137844482Y-101674188D01*
X137720000Y-101661928D01*
X137285750Y-101665000D01*
X137127000Y-101823750D01*
X137127000Y-103173000D01*
X137147000Y-103173000D01*
X137147000Y-103427000D01*
X137127000Y-103427000D01*
X137127000Y-104776250D01*
X137285750Y-104935000D01*
X137720000Y-104938072D01*
X137844482Y-104925812D01*
X137964180Y-104889502D01*
X138074494Y-104830537D01*
X138171185Y-104751185D01*
X138250537Y-104654494D01*
X138309502Y-104544180D01*
X138345812Y-104424482D01*
X138358072Y-104300000D01*
X138357826Y-104242743D01*
X138407908Y-104336440D01*
X138577236Y-104542765D01*
X138740001Y-104676343D01*
X138740000Y-108781956D01*
X138585241Y-108885363D01*
X138385363Y-109085241D01*
X138251308Y-109285869D01*
X138236671Y-109258486D01*
X137992702Y-109186903D01*
X137179605Y-110000000D01*
X137992702Y-110813097D01*
X138236671Y-110741514D01*
X138250324Y-110712659D01*
X138385363Y-110914759D01*
X138585241Y-111114637D01*
X138820273Y-111271680D01*
X139081426Y-111379853D01*
X139358665Y-111435000D01*
X139641335Y-111435000D01*
X139918574Y-111379853D01*
X140179727Y-111271680D01*
X140414759Y-111114637D01*
X140614637Y-110914759D01*
X140771680Y-110679727D01*
X140879853Y-110418574D01*
X140935000Y-110141335D01*
X140935000Y-109858665D01*
X140879853Y-109581426D01*
X140771680Y-109320273D01*
X140614637Y-109085241D01*
X140414759Y-108885363D01*
X140260000Y-108781957D01*
X140260000Y-104731570D01*
X140296440Y-104712092D01*
X140502765Y-104542765D01*
X140672092Y-104336440D01*
X140797914Y-104101045D01*
X140810000Y-104061202D01*
X140822086Y-104101045D01*
X140947908Y-104336440D01*
X141117236Y-104542765D01*
X141323561Y-104712092D01*
X141558956Y-104837914D01*
X141814375Y-104915394D01*
X142080000Y-104941556D01*
X142345626Y-104915394D01*
X142601045Y-104837914D01*
X142836440Y-104712092D01*
X143042765Y-104542765D01*
X143212092Y-104336440D01*
X143337914Y-104101045D01*
X143350000Y-104061202D01*
X143362086Y-104101045D01*
X143487908Y-104336440D01*
X143657236Y-104542765D01*
X143863561Y-104712092D01*
X144098956Y-104837914D01*
X144354375Y-104915394D01*
X144620000Y-104941556D01*
X144885626Y-104915394D01*
X145141045Y-104837914D01*
X145376440Y-104712092D01*
X145582765Y-104542765D01*
X145752092Y-104336440D01*
X145877914Y-104101045D01*
X145890000Y-104061202D01*
X145902086Y-104101045D01*
X146027908Y-104336440D01*
X146197236Y-104542765D01*
X146400000Y-104709170D01*
X146400000Y-105475198D01*
X141488998Y-110386201D01*
X141460000Y-110409999D01*
X141436202Y-110438997D01*
X141436201Y-110438998D01*
X141365026Y-110525724D01*
X141294454Y-110657754D01*
X141285354Y-110687754D01*
X141254032Y-110791014D01*
X141250998Y-110801015D01*
X141236324Y-110950000D01*
X141240001Y-110987332D01*
X141240001Y-111929099D01*
X141198899Y-111951068D01*
X140980392Y-112130392D01*
X140801068Y-112348899D01*
X140730000Y-112481858D01*
X140658932Y-112348899D01*
X140479608Y-112130392D01*
X140261101Y-111951068D01*
X140011808Y-111817818D01*
X139741309Y-111735764D01*
X139530492Y-111715000D01*
X139389508Y-111715000D01*
X139178691Y-111735764D01*
X138908192Y-111817818D01*
X138658899Y-111951068D01*
X138440392Y-112130392D01*
X138261068Y-112348899D01*
X138190000Y-112481858D01*
X138118932Y-112348899D01*
X137939608Y-112130392D01*
X137721101Y-111951068D01*
X137471808Y-111817818D01*
X137201309Y-111735764D01*
X136990492Y-111715000D01*
X136849508Y-111715000D01*
X136638691Y-111735764D01*
X136368192Y-111817818D01*
X136118899Y-111951068D01*
X135900392Y-112130392D01*
X135721068Y-112348899D01*
X135587818Y-112598192D01*
X135505764Y-112868691D01*
X135478057Y-113150000D01*
X135505764Y-113431309D01*
X135587818Y-113701808D01*
X135721068Y-113951101D01*
X135900392Y-114169608D01*
X136118899Y-114348932D01*
X136368192Y-114482182D01*
X136638691Y-114564236D01*
X136849508Y-114585000D01*
X136990492Y-114585000D01*
X137201309Y-114564236D01*
X137471808Y-114482182D01*
X137721101Y-114348932D01*
X137939608Y-114169608D01*
X138118932Y-113951101D01*
X138190000Y-113818142D01*
X138261068Y-113951101D01*
X138440392Y-114169608D01*
X138658899Y-114348932D01*
X138908192Y-114482182D01*
X139178691Y-114564236D01*
X139389508Y-114585000D01*
X139530492Y-114585000D01*
X139741309Y-114564236D01*
X140011808Y-114482182D01*
X140261101Y-114348932D01*
X140479608Y-114169608D01*
X140658932Y-113951101D01*
X140730000Y-113818142D01*
X140801068Y-113951101D01*
X140980392Y-114169608D01*
X141198899Y-114348932D01*
X141448192Y-114482182D01*
X141718691Y-114564236D01*
X141929508Y-114585000D01*
X142070492Y-114585000D01*
X142281309Y-114564236D01*
X142551808Y-114482182D01*
X142801101Y-114348932D01*
X143019608Y-114169608D01*
X143198932Y-113951101D01*
X143270000Y-113818142D01*
X143341068Y-113951101D01*
X143520392Y-114169608D01*
X143738899Y-114348932D01*
X143988192Y-114482182D01*
X144258691Y-114564236D01*
X144469508Y-114585000D01*
X144610492Y-114585000D01*
X144821309Y-114564236D01*
X145091808Y-114482182D01*
X145341101Y-114348932D01*
X145559608Y-114169608D01*
X145738932Y-113951101D01*
X145810000Y-113818142D01*
X145881068Y-113951101D01*
X146060392Y-114169608D01*
X146278899Y-114348932D01*
X146528192Y-114482182D01*
X146798691Y-114564236D01*
X147009508Y-114585000D01*
X147150492Y-114585000D01*
X147361309Y-114564236D01*
X147631808Y-114482182D01*
X147881101Y-114348932D01*
X148099608Y-114169608D01*
X148278932Y-113951101D01*
X148350000Y-113818142D01*
X148421068Y-113951101D01*
X148600392Y-114169608D01*
X148818899Y-114348932D01*
X149068192Y-114482182D01*
X149338691Y-114564236D01*
X149549508Y-114585000D01*
X149690492Y-114585000D01*
X149901309Y-114564236D01*
X150171808Y-114482182D01*
X150421101Y-114348932D01*
X150639608Y-114169608D01*
X150818932Y-113951101D01*
X150890000Y-113818142D01*
X150961068Y-113951101D01*
X151140392Y-114169608D01*
X151358899Y-114348932D01*
X151608192Y-114482182D01*
X151878691Y-114564236D01*
X152089508Y-114585000D01*
X152230492Y-114585000D01*
X152441309Y-114564236D01*
X152711808Y-114482182D01*
X152961101Y-114348932D01*
X153179608Y-114169608D01*
X153358932Y-113951101D01*
X153430000Y-113818142D01*
X153501068Y-113951101D01*
X153680392Y-114169608D01*
X153898899Y-114348932D01*
X154148192Y-114482182D01*
X154418691Y-114564236D01*
X154629508Y-114585000D01*
X154770492Y-114585000D01*
X154981309Y-114564236D01*
X155251808Y-114482182D01*
X155501101Y-114348932D01*
X155719608Y-114169608D01*
X155898932Y-113951101D01*
X156032182Y-113701808D01*
X156114236Y-113431309D01*
X156141943Y-113150000D01*
X156114236Y-112868691D01*
X156032182Y-112598192D01*
X155898932Y-112348899D01*
X155719608Y-112130392D01*
X155501101Y-111951068D01*
X155460000Y-111929099D01*
X155460000Y-111264801D01*
X160371004Y-106353798D01*
X160400001Y-106330001D01*
X160447864Y-106271680D01*
X160494974Y-106214277D01*
X160565546Y-106082247D01*
X160570888Y-106064637D01*
X160609003Y-105938986D01*
X160620000Y-105827333D01*
X160620000Y-105827323D01*
X160623676Y-105790000D01*
X160620000Y-105752678D01*
X160620000Y-104709170D01*
X160822765Y-104542765D01*
X160992092Y-104336440D01*
X161117914Y-104101045D01*
X161130000Y-104061202D01*
X161142086Y-104101045D01*
X161267908Y-104336440D01*
X161437236Y-104542765D01*
X161640001Y-104709170D01*
X161640000Y-106985198D01*
X158248998Y-110376201D01*
X158220000Y-110399999D01*
X158196202Y-110428997D01*
X158196201Y-110428998D01*
X158125026Y-110515724D01*
X158054454Y-110647754D01*
X158042321Y-110687753D01*
X158019291Y-110763677D01*
X158010998Y-110791015D01*
X157996324Y-110940000D01*
X158000001Y-110977332D01*
X158000001Y-111929099D01*
X157958899Y-111951068D01*
X157740392Y-112130392D01*
X157561068Y-112348899D01*
X157427818Y-112598192D01*
X157345764Y-112868691D01*
X157318057Y-113150000D01*
X157345764Y-113431309D01*
X157427818Y-113701808D01*
X157561068Y-113951101D01*
X157740392Y-114169608D01*
X157958899Y-114348932D01*
X158208192Y-114482182D01*
X158478691Y-114564236D01*
X158689508Y-114585000D01*
X158830492Y-114585000D01*
X159041309Y-114564236D01*
X159311808Y-114482182D01*
X159561101Y-114348932D01*
X159779608Y-114169608D01*
X159958932Y-113951101D01*
X160030000Y-113818142D01*
X160101068Y-113951101D01*
X160280392Y-114169608D01*
X160498899Y-114348932D01*
X160748192Y-114482182D01*
X161018691Y-114564236D01*
X161229508Y-114585000D01*
X161370492Y-114585000D01*
X161581309Y-114564236D01*
X161851808Y-114482182D01*
X162101101Y-114348932D01*
X162319608Y-114169608D01*
X162498932Y-113951101D01*
X162570000Y-113818142D01*
X162641068Y-113951101D01*
X162820392Y-114169608D01*
X163038899Y-114348932D01*
X163288192Y-114482182D01*
X163558691Y-114564236D01*
X163769508Y-114585000D01*
X163910492Y-114585000D01*
X164121309Y-114564236D01*
X164391808Y-114482182D01*
X164641101Y-114348932D01*
X164859608Y-114169608D01*
X165038932Y-113951101D01*
X165110000Y-113818142D01*
X165181068Y-113951101D01*
X165360392Y-114169608D01*
X165578899Y-114348932D01*
X165828192Y-114482182D01*
X166098691Y-114564236D01*
X166309508Y-114585000D01*
X166450492Y-114585000D01*
X166661309Y-114564236D01*
X166931808Y-114482182D01*
X167181101Y-114348932D01*
X167399608Y-114169608D01*
X167578932Y-113951101D01*
X167650000Y-113818142D01*
X167721068Y-113951101D01*
X167900392Y-114169608D01*
X168118899Y-114348932D01*
X168368192Y-114482182D01*
X168638691Y-114564236D01*
X168849508Y-114585000D01*
X168990492Y-114585000D01*
X169201309Y-114564236D01*
X169471808Y-114482182D01*
X169721101Y-114348932D01*
X169939608Y-114169608D01*
X170118932Y-113951101D01*
X170190000Y-113818142D01*
X170261068Y-113951101D01*
X170440392Y-114169608D01*
X170658899Y-114348932D01*
X170908192Y-114482182D01*
X171178691Y-114564236D01*
X171389508Y-114585000D01*
X171530492Y-114585000D01*
X171741309Y-114564236D01*
X172011808Y-114482182D01*
X172261101Y-114348932D01*
X172479608Y-114169608D01*
X172658932Y-113951101D01*
X172732579Y-113813318D01*
X172847615Y-114005131D01*
X173036586Y-114213519D01*
X173262580Y-114381037D01*
X173516913Y-114501246D01*
X173650961Y-114541904D01*
X173873000Y-114419915D01*
X173873000Y-113277000D01*
X173853000Y-113277000D01*
X173853000Y-113023000D01*
X173873000Y-113023000D01*
X173873000Y-111880085D01*
X174127000Y-111880085D01*
X174127000Y-113023000D01*
X174147000Y-113023000D01*
X174147000Y-113277000D01*
X174127000Y-113277000D01*
X174127000Y-114419915D01*
X174349039Y-114541904D01*
X174483087Y-114501246D01*
X174737420Y-114381037D01*
X174963414Y-114213519D01*
X175152385Y-114005131D01*
X175267421Y-113813318D01*
X175341068Y-113951101D01*
X175520392Y-114169608D01*
X175738899Y-114348932D01*
X175988192Y-114482182D01*
X176258691Y-114564236D01*
X176469508Y-114585000D01*
X176610492Y-114585000D01*
X176821309Y-114564236D01*
X177091808Y-114482182D01*
X177341101Y-114348932D01*
X177559608Y-114169608D01*
X177738932Y-113951101D01*
X177810000Y-113818142D01*
X177881068Y-113951101D01*
X178060392Y-114169608D01*
X178278899Y-114348932D01*
X178528192Y-114482182D01*
X178798691Y-114564236D01*
X179009508Y-114585000D01*
X179150492Y-114585000D01*
X179361309Y-114564236D01*
X179631808Y-114482182D01*
X179881101Y-114348932D01*
X180099608Y-114169608D01*
X180278932Y-113951101D01*
X180350000Y-113818142D01*
X180421068Y-113951101D01*
X180600392Y-114169608D01*
X180818899Y-114348932D01*
X181068192Y-114482182D01*
X181338691Y-114564236D01*
X181549508Y-114585000D01*
X181690492Y-114585000D01*
X181901309Y-114564236D01*
X182171808Y-114482182D01*
X182421101Y-114348932D01*
X182639608Y-114169608D01*
X182818932Y-113951101D01*
X182952182Y-113701808D01*
X183034236Y-113431309D01*
X183061943Y-113150000D01*
X183034236Y-112868691D01*
X182952182Y-112598192D01*
X182818932Y-112348899D01*
X182639608Y-112130392D01*
X182421101Y-111951068D01*
X182171808Y-111817818D01*
X181901309Y-111735764D01*
X181690492Y-111715000D01*
X181549508Y-111715000D01*
X181338691Y-111735764D01*
X181068192Y-111817818D01*
X180818899Y-111951068D01*
X180600392Y-112130392D01*
X180421068Y-112348899D01*
X180350000Y-112481858D01*
X180278932Y-112348899D01*
X180099608Y-112130392D01*
X179881101Y-111951068D01*
X179631808Y-111817818D01*
X179361309Y-111735764D01*
X179150492Y-111715000D01*
X179009508Y-111715000D01*
X178798691Y-111735764D01*
X178528192Y-111817818D01*
X178278899Y-111951068D01*
X178060392Y-112130392D01*
X177881068Y-112348899D01*
X177810000Y-112481858D01*
X177738932Y-112348899D01*
X177559608Y-112130392D01*
X177341101Y-111951068D01*
X177091808Y-111817818D01*
X176821309Y-111735764D01*
X176610492Y-111715000D01*
X176469508Y-111715000D01*
X176258691Y-111735764D01*
X175988192Y-111817818D01*
X175738899Y-111951068D01*
X175520392Y-112130392D01*
X175341068Y-112348899D01*
X175267421Y-112486682D01*
X175152385Y-112294869D01*
X174963414Y-112086481D01*
X174737420Y-111918963D01*
X174483087Y-111798754D01*
X174349039Y-111758096D01*
X174127000Y-111880085D01*
X173873000Y-111880085D01*
X173650961Y-111758096D01*
X173516913Y-111798754D01*
X173262580Y-111918963D01*
X173036586Y-112086481D01*
X172847615Y-112294869D01*
X172732579Y-112486682D01*
X172658932Y-112348899D01*
X172479608Y-112130392D01*
X172261101Y-111951068D01*
X172220000Y-111929099D01*
X172220000Y-109999039D01*
X172628096Y-109999039D01*
X172668754Y-110133087D01*
X172788963Y-110387420D01*
X172956481Y-110613414D01*
X173164869Y-110802385D01*
X173406119Y-110947070D01*
X173670960Y-111041909D01*
X173893000Y-110920624D01*
X173893000Y-109777000D01*
X174147000Y-109777000D01*
X174147000Y-110920624D01*
X174369040Y-111041909D01*
X174633881Y-110947070D01*
X174875131Y-110802385D01*
X175083519Y-110613414D01*
X175251037Y-110387420D01*
X175371246Y-110133087D01*
X175411904Y-109999039D01*
X175289915Y-109777000D01*
X174147000Y-109777000D01*
X173893000Y-109777000D01*
X172750085Y-109777000D01*
X172628096Y-109999039D01*
X172220000Y-109999039D01*
X172220000Y-109300961D01*
X172628096Y-109300961D01*
X172750085Y-109523000D01*
X173893000Y-109523000D01*
X173893000Y-108379376D01*
X174147000Y-108379376D01*
X174147000Y-109523000D01*
X175289915Y-109523000D01*
X175411904Y-109300961D01*
X175371246Y-109166913D01*
X175251037Y-108912580D01*
X175083519Y-108686586D01*
X174875131Y-108497615D01*
X174633881Y-108352930D01*
X174369040Y-108258091D01*
X174147000Y-108379376D01*
X173893000Y-108379376D01*
X173670960Y-108258091D01*
X173406119Y-108352930D01*
X173164869Y-108497615D01*
X172956481Y-108686586D01*
X172788963Y-108912580D01*
X172668754Y-109166913D01*
X172628096Y-109300961D01*
X172220000Y-109300961D01*
X172220000Y-104147322D01*
X172223676Y-104109999D01*
X172220000Y-104072676D01*
X172220000Y-104072667D01*
X172209003Y-103961014D01*
X172165546Y-103817753D01*
X172094974Y-103685724D01*
X172062836Y-103646564D01*
X172023799Y-103598996D01*
X172023795Y-103598992D01*
X172000001Y-103569999D01*
X171971008Y-103546205D01*
X165700000Y-97275199D01*
X165700000Y-97089170D01*
X165902765Y-96922765D01*
X166072092Y-96716440D01*
X166166401Y-96540000D01*
X172808057Y-96540000D01*
X172835764Y-96821309D01*
X172917818Y-97091808D01*
X173051068Y-97341101D01*
X173230392Y-97559608D01*
X173448899Y-97738932D01*
X173581858Y-97810000D01*
X173448899Y-97881068D01*
X173230392Y-98060392D01*
X173051068Y-98278899D01*
X172917818Y-98528192D01*
X172835764Y-98798691D01*
X172808057Y-99080000D01*
X172835764Y-99361309D01*
X172917818Y-99631808D01*
X173051068Y-99881101D01*
X173230392Y-100099608D01*
X173448899Y-100278932D01*
X173581858Y-100350000D01*
X173448899Y-100421068D01*
X173230392Y-100600392D01*
X173051068Y-100818899D01*
X172917818Y-101068192D01*
X172835764Y-101338691D01*
X172808057Y-101620000D01*
X172835764Y-101901309D01*
X172917818Y-102171808D01*
X173051068Y-102421101D01*
X173230392Y-102639608D01*
X173448899Y-102818932D01*
X173698192Y-102952182D01*
X173890001Y-103010366D01*
X173890000Y-103731956D01*
X173735241Y-103835363D01*
X173535363Y-104035241D01*
X173378320Y-104270273D01*
X173270147Y-104531426D01*
X173215000Y-104808665D01*
X173215000Y-105091335D01*
X173270147Y-105368574D01*
X173378320Y-105629727D01*
X173535363Y-105864759D01*
X173735241Y-106064637D01*
X173970273Y-106221680D01*
X174231426Y-106329853D01*
X174508665Y-106385000D01*
X174791335Y-106385000D01*
X175068574Y-106329853D01*
X175329727Y-106221680D01*
X175564759Y-106064637D01*
X175686694Y-105942702D01*
X176336903Y-105942702D01*
X176408486Y-106186671D01*
X176663996Y-106307571D01*
X176938184Y-106376300D01*
X177220512Y-106390217D01*
X177500130Y-106348787D01*
X177766292Y-106253603D01*
X177891514Y-106186671D01*
X177963097Y-105942702D01*
X177150000Y-105129605D01*
X176336903Y-105942702D01*
X175686694Y-105942702D01*
X175764637Y-105864759D01*
X175898692Y-105664131D01*
X175913329Y-105691514D01*
X176157298Y-105763097D01*
X176970395Y-104950000D01*
X177329605Y-104950000D01*
X178142702Y-105763097D01*
X178386671Y-105691514D01*
X178411482Y-105639078D01*
X178428320Y-105679727D01*
X178585363Y-105914759D01*
X178785241Y-106114637D01*
X179020273Y-106271680D01*
X179281426Y-106379853D01*
X179558665Y-106435000D01*
X179841335Y-106435000D01*
X180118574Y-106379853D01*
X180379727Y-106271680D01*
X180614759Y-106114637D01*
X180736694Y-105992702D01*
X181386903Y-105992702D01*
X181458486Y-106236671D01*
X181713996Y-106357571D01*
X181988184Y-106426300D01*
X182270512Y-106440217D01*
X182550130Y-106398787D01*
X182816292Y-106303603D01*
X182941514Y-106236671D01*
X183013097Y-105992702D01*
X182200000Y-105179605D01*
X181386903Y-105992702D01*
X180736694Y-105992702D01*
X180814637Y-105914759D01*
X180948692Y-105714131D01*
X180963329Y-105741514D01*
X181207298Y-105813097D01*
X182020395Y-105000000D01*
X182379605Y-105000000D01*
X183192702Y-105813097D01*
X183436671Y-105741514D01*
X183557571Y-105486004D01*
X183626300Y-105211816D01*
X183640217Y-104929488D01*
X183598787Y-104649870D01*
X183503603Y-104383708D01*
X183436671Y-104258486D01*
X183192702Y-104186903D01*
X182379605Y-105000000D01*
X182020395Y-105000000D01*
X181207298Y-104186903D01*
X180963329Y-104258486D01*
X180949676Y-104287341D01*
X180814637Y-104085241D01*
X180736694Y-104007298D01*
X181386903Y-104007298D01*
X182200000Y-104820395D01*
X183013097Y-104007298D01*
X182941514Y-103763329D01*
X182686004Y-103642429D01*
X182411816Y-103573700D01*
X182129488Y-103559783D01*
X181849870Y-103601213D01*
X181583708Y-103696397D01*
X181458486Y-103763329D01*
X181386903Y-104007298D01*
X180736694Y-104007298D01*
X180614759Y-103885363D01*
X180379727Y-103728320D01*
X180118574Y-103620147D01*
X179841335Y-103565000D01*
X179558665Y-103565000D01*
X179281426Y-103620147D01*
X179020273Y-103728320D01*
X178785241Y-103885363D01*
X178585363Y-104085241D01*
X178438377Y-104305222D01*
X178386671Y-104208486D01*
X178142702Y-104136903D01*
X177329605Y-104950000D01*
X176970395Y-104950000D01*
X176157298Y-104136903D01*
X175913329Y-104208486D01*
X175899676Y-104237341D01*
X175764637Y-104035241D01*
X175686694Y-103957298D01*
X176336903Y-103957298D01*
X177150000Y-104770395D01*
X177963097Y-103957298D01*
X177891514Y-103713329D01*
X177636004Y-103592429D01*
X177361816Y-103523700D01*
X177079488Y-103509783D01*
X176799870Y-103551213D01*
X176533708Y-103646397D01*
X176408486Y-103713329D01*
X176336903Y-103957298D01*
X175686694Y-103957298D01*
X175564759Y-103835363D01*
X175410000Y-103731957D01*
X175410000Y-103010366D01*
X175601808Y-102952182D01*
X175851101Y-102818932D01*
X176069608Y-102639608D01*
X176248932Y-102421101D01*
X176270901Y-102380000D01*
X178242678Y-102380000D01*
X178280000Y-102383676D01*
X178317322Y-102380000D01*
X178317333Y-102380000D01*
X178428986Y-102369003D01*
X178572247Y-102325546D01*
X178704276Y-102254974D01*
X178820001Y-102160001D01*
X178843803Y-102130998D01*
X179611004Y-101363798D01*
X179640001Y-101340001D01*
X179713031Y-101251014D01*
X179734974Y-101224277D01*
X179805546Y-101092247D01*
X179822076Y-101037753D01*
X179849003Y-100948986D01*
X179860000Y-100837333D01*
X179860000Y-100837324D01*
X179863676Y-100800001D01*
X179860000Y-100762678D01*
X179860000Y-93650961D01*
X180478096Y-93650961D01*
X180600085Y-93873000D01*
X182143000Y-93873000D01*
X182143000Y-92565000D01*
X181743000Y-92565000D01*
X181465486Y-92617350D01*
X181203517Y-92722834D01*
X180967161Y-92877399D01*
X180765500Y-93075105D01*
X180606285Y-93308354D01*
X180495633Y-93568182D01*
X180478096Y-93650961D01*
X179860000Y-93650961D01*
X179860000Y-87564801D01*
X180064802Y-87360000D01*
X180608172Y-87360000D01*
X180677503Y-87463762D01*
X180866238Y-87652497D01*
X181088167Y-87800785D01*
X181334761Y-87902928D01*
X181596544Y-87955000D01*
X181863456Y-87955000D01*
X182125239Y-87902928D01*
X182371833Y-87800785D01*
X182593762Y-87652497D01*
X182782497Y-87463762D01*
X182930785Y-87241833D01*
X183032928Y-86995239D01*
X183085000Y-86733456D01*
X183085000Y-86466544D01*
X183032928Y-86204761D01*
X182930785Y-85958167D01*
X182782497Y-85736238D01*
X182593762Y-85547503D01*
X182371833Y-85399215D01*
X182125239Y-85297072D01*
X181863456Y-85245000D01*
X181596544Y-85245000D01*
X181334761Y-85297072D01*
X181088167Y-85399215D01*
X180866238Y-85547503D01*
X180677503Y-85736238D01*
X180608172Y-85840000D01*
X179787323Y-85840000D01*
X179750000Y-85836324D01*
X179712677Y-85840000D01*
X179712667Y-85840000D01*
X179601014Y-85850997D01*
X179457753Y-85894454D01*
X179325724Y-85965026D01*
X179209999Y-86059999D01*
X179186200Y-86088998D01*
X178588998Y-86686201D01*
X178560000Y-86709999D01*
X178536202Y-86738997D01*
X178536201Y-86738998D01*
X178465026Y-86825724D01*
X178394454Y-86957754D01*
X178350998Y-87101015D01*
X178336324Y-87250000D01*
X178340001Y-87287332D01*
X178340000Y-100485198D01*
X177965199Y-100860000D01*
X176270901Y-100860000D01*
X176248932Y-100818899D01*
X176069608Y-100600392D01*
X175851101Y-100421068D01*
X175718142Y-100350000D01*
X175851101Y-100278932D01*
X176069608Y-100099608D01*
X176248932Y-99881101D01*
X176382182Y-99631808D01*
X176464236Y-99361309D01*
X176491943Y-99080000D01*
X176464236Y-98798691D01*
X176382182Y-98528192D01*
X176248932Y-98278899D01*
X176069608Y-98060392D01*
X175851101Y-97881068D01*
X175718142Y-97810000D01*
X175851101Y-97738932D01*
X176069608Y-97559608D01*
X176248932Y-97341101D01*
X176382182Y-97091808D01*
X176464236Y-96821309D01*
X176491943Y-96540000D01*
X176464236Y-96258691D01*
X176382182Y-95988192D01*
X176248932Y-95738899D01*
X176069608Y-95520392D01*
X175956518Y-95427581D01*
X175974482Y-95425812D01*
X176094180Y-95389502D01*
X176204494Y-95330537D01*
X176301185Y-95251185D01*
X176380537Y-95154494D01*
X176439502Y-95044180D01*
X176475812Y-94924482D01*
X176488072Y-94800000D01*
X176485000Y-94285750D01*
X176326250Y-94127000D01*
X174777000Y-94127000D01*
X174777000Y-94147000D01*
X174523000Y-94147000D01*
X174523000Y-94127000D01*
X172973750Y-94127000D01*
X172815000Y-94285750D01*
X172811928Y-94800000D01*
X172824188Y-94924482D01*
X172860498Y-95044180D01*
X172919463Y-95154494D01*
X172998815Y-95251185D01*
X173095506Y-95330537D01*
X173205820Y-95389502D01*
X173325518Y-95425812D01*
X173343482Y-95427581D01*
X173230392Y-95520392D01*
X173051068Y-95738899D01*
X172917818Y-95988192D01*
X172835764Y-96258691D01*
X172808057Y-96540000D01*
X166166401Y-96540000D01*
X166197914Y-96481045D01*
X166275394Y-96225625D01*
X166295000Y-96026563D01*
X166295000Y-95333436D01*
X166275394Y-95134374D01*
X166197914Y-94878955D01*
X166072092Y-94643560D01*
X165902764Y-94437235D01*
X165700000Y-94270830D01*
X165700000Y-93200000D01*
X172811928Y-93200000D01*
X172815000Y-93714250D01*
X172973750Y-93873000D01*
X174523000Y-93873000D01*
X174523000Y-92723750D01*
X174777000Y-92723750D01*
X174777000Y-93873000D01*
X176326250Y-93873000D01*
X176485000Y-93714250D01*
X176488072Y-93200000D01*
X176475812Y-93075518D01*
X176439502Y-92955820D01*
X176380537Y-92845506D01*
X176301185Y-92748815D01*
X176204494Y-92669463D01*
X176094180Y-92610498D01*
X175974482Y-92574188D01*
X175850000Y-92561928D01*
X174935750Y-92565000D01*
X174777000Y-92723750D01*
X174523000Y-92723750D01*
X174364250Y-92565000D01*
X173450000Y-92561928D01*
X173325518Y-92574188D01*
X173205820Y-92610498D01*
X173095506Y-92669463D01*
X172998815Y-92748815D01*
X172919463Y-92845506D01*
X172860498Y-92955820D01*
X172824188Y-93075518D01*
X172811928Y-93200000D01*
X165700000Y-93200000D01*
X165700000Y-89550000D01*
X172911928Y-89550000D01*
X172911928Y-91750000D01*
X172924188Y-91874482D01*
X172960498Y-91994180D01*
X173019463Y-92104494D01*
X173098815Y-92201185D01*
X173195506Y-92280537D01*
X173305820Y-92339502D01*
X173425518Y-92375812D01*
X173550000Y-92388072D01*
X175750000Y-92388072D01*
X175874482Y-92375812D01*
X175994180Y-92339502D01*
X176104494Y-92280537D01*
X176201185Y-92201185D01*
X176280537Y-92104494D01*
X176339502Y-91994180D01*
X176375812Y-91874482D01*
X176388072Y-91750000D01*
X176388072Y-89550000D01*
X176375812Y-89425518D01*
X176339502Y-89305820D01*
X176280537Y-89195506D01*
X176201185Y-89098815D01*
X176104494Y-89019463D01*
X175994180Y-88960498D01*
X175874482Y-88924188D01*
X175750000Y-88911928D01*
X173550000Y-88911928D01*
X173425518Y-88924188D01*
X173305820Y-88960498D01*
X173195506Y-89019463D01*
X173098815Y-89098815D01*
X173019463Y-89195506D01*
X172960498Y-89305820D01*
X172924188Y-89425518D01*
X172911928Y-89550000D01*
X165700000Y-89550000D01*
X165700000Y-84750000D01*
X167461928Y-84750000D01*
X167461928Y-86350000D01*
X167474188Y-86474482D01*
X167510498Y-86594180D01*
X167569463Y-86704494D01*
X167648815Y-86801185D01*
X167745506Y-86880537D01*
X167855820Y-86939502D01*
X167975518Y-86975812D01*
X168100000Y-86988072D01*
X169700000Y-86988072D01*
X169824482Y-86975812D01*
X169944180Y-86939502D01*
X170054494Y-86880537D01*
X170151185Y-86801185D01*
X170230537Y-86704494D01*
X170289502Y-86594180D01*
X170305117Y-86542702D01*
X171886903Y-86542702D01*
X171958486Y-86786671D01*
X172213996Y-86907571D01*
X172488184Y-86976300D01*
X172770512Y-86990217D01*
X173050130Y-86948787D01*
X173316292Y-86853603D01*
X173441514Y-86786671D01*
X173513097Y-86542702D01*
X173436939Y-86466544D01*
X175295000Y-86466544D01*
X175295000Y-86733456D01*
X175347072Y-86995239D01*
X175449215Y-87241833D01*
X175597503Y-87463762D01*
X175786238Y-87652497D01*
X176008167Y-87800785D01*
X176254761Y-87902928D01*
X176516544Y-87955000D01*
X176783456Y-87955000D01*
X177045239Y-87902928D01*
X177291833Y-87800785D01*
X177513762Y-87652497D01*
X177702497Y-87463762D01*
X177850785Y-87241833D01*
X177952928Y-86995239D01*
X178005000Y-86733456D01*
X178005000Y-86466544D01*
X177952928Y-86204761D01*
X177850785Y-85958167D01*
X177702497Y-85736238D01*
X177513762Y-85547503D01*
X177410000Y-85478172D01*
X177410000Y-85414801D01*
X178004802Y-84820000D01*
X178068172Y-84820000D01*
X178137503Y-84923762D01*
X178326238Y-85112497D01*
X178548167Y-85260785D01*
X178794761Y-85362928D01*
X179056544Y-85415000D01*
X179323456Y-85415000D01*
X179585239Y-85362928D01*
X179831833Y-85260785D01*
X180053762Y-85112497D01*
X180242497Y-84923762D01*
X180390785Y-84701833D01*
X180492928Y-84455239D01*
X180545000Y-84193456D01*
X180545000Y-83926544D01*
X180492928Y-83664761D01*
X180390785Y-83418167D01*
X180242497Y-83196238D01*
X180053762Y-83007503D01*
X179831833Y-82859215D01*
X179585239Y-82757072D01*
X179323456Y-82705000D01*
X179056544Y-82705000D01*
X178794761Y-82757072D01*
X178548167Y-82859215D01*
X178326238Y-83007503D01*
X178137503Y-83196238D01*
X178068172Y-83300000D01*
X177727322Y-83300000D01*
X177689999Y-83296324D01*
X177652676Y-83300000D01*
X177652667Y-83300000D01*
X177541014Y-83310997D01*
X177437995Y-83342247D01*
X177397753Y-83354454D01*
X177265723Y-83425026D01*
X177203218Y-83476323D01*
X177149999Y-83519999D01*
X177126201Y-83548997D01*
X176138998Y-84536201D01*
X176110000Y-84559999D01*
X176086202Y-84588997D01*
X176086201Y-84588998D01*
X176015026Y-84675724D01*
X175944454Y-84807754D01*
X175928606Y-84860001D01*
X175900998Y-84951014D01*
X175891347Y-85049002D01*
X175886324Y-85100000D01*
X175890001Y-85137332D01*
X175890001Y-85478171D01*
X175786238Y-85547503D01*
X175597503Y-85736238D01*
X175449215Y-85958167D01*
X175347072Y-86204761D01*
X175295000Y-86466544D01*
X173436939Y-86466544D01*
X172700000Y-85729605D01*
X171886903Y-86542702D01*
X170305117Y-86542702D01*
X170325812Y-86474482D01*
X170338072Y-86350000D01*
X170338072Y-85620512D01*
X171259783Y-85620512D01*
X171301213Y-85900130D01*
X171396397Y-86166292D01*
X171463329Y-86291514D01*
X171707298Y-86363097D01*
X172520395Y-85550000D01*
X172879605Y-85550000D01*
X173692702Y-86363097D01*
X173936671Y-86291514D01*
X174057571Y-86036004D01*
X174126300Y-85761816D01*
X174140217Y-85479488D01*
X174098787Y-85199870D01*
X174003603Y-84933708D01*
X173936671Y-84808486D01*
X173692702Y-84736903D01*
X172879605Y-85550000D01*
X172520395Y-85550000D01*
X171707298Y-84736903D01*
X171463329Y-84808486D01*
X171342429Y-85063996D01*
X171273700Y-85338184D01*
X171259783Y-85620512D01*
X170338072Y-85620512D01*
X170338072Y-84750000D01*
X170325812Y-84625518D01*
X170305118Y-84557298D01*
X171886903Y-84557298D01*
X172700000Y-85370395D01*
X173513097Y-84557298D01*
X173441514Y-84313329D01*
X173186004Y-84192429D01*
X172911816Y-84123700D01*
X172629488Y-84109783D01*
X172349870Y-84151213D01*
X172083708Y-84246397D01*
X171958486Y-84313329D01*
X171886903Y-84557298D01*
X170305118Y-84557298D01*
X170289502Y-84505820D01*
X170230537Y-84395506D01*
X170151185Y-84298815D01*
X170054494Y-84219463D01*
X169944180Y-84160498D01*
X169824482Y-84124188D01*
X169700000Y-84111928D01*
X168100000Y-84111928D01*
X167975518Y-84124188D01*
X167855820Y-84160498D01*
X167745506Y-84219463D01*
X167648815Y-84298815D01*
X167569463Y-84395506D01*
X167510498Y-84505820D01*
X167474188Y-84625518D01*
X167461928Y-84750000D01*
X165700000Y-84750000D01*
X165700000Y-79208665D01*
X167465000Y-79208665D01*
X167465000Y-79491335D01*
X167520147Y-79768574D01*
X167628320Y-80029727D01*
X167785363Y-80264759D01*
X167985241Y-80464637D01*
X168220273Y-80621680D01*
X168481426Y-80729853D01*
X168758665Y-80785000D01*
X169041335Y-80785000D01*
X169318574Y-80729853D01*
X169579727Y-80621680D01*
X169814759Y-80464637D01*
X169936694Y-80342702D01*
X170586903Y-80342702D01*
X170658486Y-80586671D01*
X170913996Y-80707571D01*
X171188184Y-80776300D01*
X171470512Y-80790217D01*
X171750130Y-80748787D01*
X172016292Y-80653603D01*
X172141514Y-80586671D01*
X172213097Y-80342702D01*
X171400000Y-79529605D01*
X170586903Y-80342702D01*
X169936694Y-80342702D01*
X170014637Y-80264759D01*
X170148692Y-80064131D01*
X170163329Y-80091514D01*
X170407298Y-80163097D01*
X171220395Y-79350000D01*
X171579605Y-79350000D01*
X172392702Y-80163097D01*
X172636671Y-80091514D01*
X172757571Y-79836004D01*
X172826300Y-79561816D01*
X172840217Y-79279488D01*
X172798787Y-78999870D01*
X172703603Y-78733708D01*
X172690621Y-78709419D01*
X174915000Y-78709419D01*
X174915000Y-79090581D01*
X174989361Y-79464419D01*
X175135225Y-79816566D01*
X175346987Y-80133491D01*
X175616509Y-80403013D01*
X175933434Y-80614775D01*
X176285581Y-80760639D01*
X176659419Y-80835000D01*
X177040581Y-80835000D01*
X177414419Y-80760639D01*
X177766566Y-80614775D01*
X178083491Y-80403013D01*
X178353013Y-80133491D01*
X178564775Y-79816566D01*
X178710639Y-79464419D01*
X178785000Y-79090581D01*
X178785000Y-78709419D01*
X178710639Y-78335581D01*
X178564775Y-77983434D01*
X178353013Y-77666509D01*
X178083491Y-77396987D01*
X177766566Y-77185225D01*
X177414419Y-77039361D01*
X177040581Y-76965000D01*
X176659419Y-76965000D01*
X176285581Y-77039361D01*
X175933434Y-77185225D01*
X175616509Y-77396987D01*
X175346987Y-77666509D01*
X175135225Y-77983434D01*
X174989361Y-78335581D01*
X174915000Y-78709419D01*
X172690621Y-78709419D01*
X172636671Y-78608486D01*
X172392702Y-78536903D01*
X171579605Y-79350000D01*
X171220395Y-79350000D01*
X170407298Y-78536903D01*
X170163329Y-78608486D01*
X170149676Y-78637341D01*
X170014637Y-78435241D01*
X169936694Y-78357298D01*
X170586903Y-78357298D01*
X171400000Y-79170395D01*
X172213097Y-78357298D01*
X172141514Y-78113329D01*
X171886004Y-77992429D01*
X171611816Y-77923700D01*
X171329488Y-77909783D01*
X171049870Y-77951213D01*
X170783708Y-78046397D01*
X170658486Y-78113329D01*
X170586903Y-78357298D01*
X169936694Y-78357298D01*
X169814759Y-78235363D01*
X169579727Y-78078320D01*
X169318574Y-77970147D01*
X169041335Y-77915000D01*
X168758665Y-77915000D01*
X168481426Y-77970147D01*
X168220273Y-78078320D01*
X167985241Y-78235363D01*
X167785363Y-78435241D01*
X167628320Y-78670273D01*
X167520147Y-78931426D01*
X167465000Y-79208665D01*
X165700000Y-79208665D01*
X165700000Y-77877323D01*
X165703676Y-77840000D01*
X165700000Y-77802677D01*
X165700000Y-77802667D01*
X165689003Y-77691014D01*
X165645546Y-77547753D01*
X165626224Y-77511605D01*
X165574974Y-77415723D01*
X165503799Y-77328997D01*
X165480001Y-77299999D01*
X165451004Y-77276202D01*
X162903919Y-74729117D01*
X175115000Y-74729117D01*
X175115000Y-75070883D01*
X175181675Y-75406081D01*
X175312463Y-75721831D01*
X175502337Y-76005998D01*
X175744002Y-76247663D01*
X176028169Y-76437537D01*
X176343919Y-76568325D01*
X176679117Y-76635000D01*
X177020883Y-76635000D01*
X177356081Y-76568325D01*
X177671831Y-76437537D01*
X177955998Y-76247663D01*
X178197663Y-76005998D01*
X178387537Y-75721831D01*
X178518325Y-75406081D01*
X178585000Y-75070883D01*
X178585000Y-74729117D01*
X178518325Y-74393919D01*
X178387537Y-74078169D01*
X178197663Y-73794002D01*
X177955998Y-73552337D01*
X177671831Y-73362463D01*
X177356081Y-73231675D01*
X177020883Y-73165000D01*
X176679117Y-73165000D01*
X176343919Y-73231675D01*
X176028169Y-73362463D01*
X175744002Y-73552337D01*
X175502337Y-73794002D01*
X175312463Y-74078169D01*
X175181675Y-74393919D01*
X175115000Y-74729117D01*
X162903919Y-74729117D01*
X160620000Y-72445199D01*
X160620000Y-72439170D01*
X160822765Y-72272765D01*
X160992092Y-72066440D01*
X161117914Y-71831045D01*
X161195394Y-71575625D01*
X161215000Y-71376563D01*
X161215000Y-70683436D01*
X161195394Y-70484374D01*
X161117914Y-70228955D01*
X160992092Y-69993560D01*
X160822764Y-69787235D01*
X160777394Y-69750000D01*
X168411928Y-69750000D01*
X168411928Y-71350000D01*
X168424188Y-71474482D01*
X168460498Y-71594180D01*
X168519463Y-71704494D01*
X168598815Y-71801185D01*
X168695506Y-71880537D01*
X168805820Y-71939502D01*
X168925518Y-71975812D01*
X169050000Y-71988072D01*
X170650000Y-71988072D01*
X170774482Y-71975812D01*
X170894180Y-71939502D01*
X171004494Y-71880537D01*
X171101185Y-71801185D01*
X171180537Y-71704494D01*
X171239502Y-71594180D01*
X171255117Y-71542702D01*
X172836903Y-71542702D01*
X172908486Y-71786671D01*
X173163996Y-71907571D01*
X173438184Y-71976300D01*
X173720512Y-71990217D01*
X174000130Y-71948787D01*
X174266292Y-71853603D01*
X174391514Y-71786671D01*
X174463097Y-71542702D01*
X173650000Y-70729605D01*
X172836903Y-71542702D01*
X171255117Y-71542702D01*
X171275812Y-71474482D01*
X171288072Y-71350000D01*
X171288072Y-70620512D01*
X172209783Y-70620512D01*
X172251213Y-70900130D01*
X172346397Y-71166292D01*
X172413329Y-71291514D01*
X172657298Y-71363097D01*
X173470395Y-70550000D01*
X173829605Y-70550000D01*
X174642702Y-71363097D01*
X174886671Y-71291514D01*
X175007571Y-71036004D01*
X175076300Y-70761816D01*
X175090217Y-70479488D01*
X175048787Y-70199870D01*
X174953603Y-69933708D01*
X174886671Y-69808486D01*
X174642702Y-69736903D01*
X173829605Y-70550000D01*
X173470395Y-70550000D01*
X172657298Y-69736903D01*
X172413329Y-69808486D01*
X172292429Y-70063996D01*
X172223700Y-70338184D01*
X172209783Y-70620512D01*
X171288072Y-70620512D01*
X171288072Y-69750000D01*
X171275812Y-69625518D01*
X171255118Y-69557298D01*
X172836903Y-69557298D01*
X173650000Y-70370395D01*
X174463097Y-69557298D01*
X174391514Y-69313329D01*
X174136004Y-69192429D01*
X173861816Y-69123700D01*
X173579488Y-69109783D01*
X173299870Y-69151213D01*
X173033708Y-69246397D01*
X172908486Y-69313329D01*
X172836903Y-69557298D01*
X171255118Y-69557298D01*
X171239502Y-69505820D01*
X171180537Y-69395506D01*
X171101185Y-69298815D01*
X171004494Y-69219463D01*
X170894180Y-69160498D01*
X170774482Y-69124188D01*
X170650000Y-69111928D01*
X169050000Y-69111928D01*
X168925518Y-69124188D01*
X168805820Y-69160498D01*
X168695506Y-69219463D01*
X168598815Y-69298815D01*
X168519463Y-69395506D01*
X168460498Y-69505820D01*
X168424188Y-69625518D01*
X168411928Y-69750000D01*
X160777394Y-69750000D01*
X160616439Y-69617908D01*
X160381044Y-69492086D01*
X160125625Y-69414606D01*
X159860000Y-69388444D01*
X159594374Y-69414606D01*
X159338955Y-69492086D01*
X159103560Y-69617908D01*
X158897235Y-69787236D01*
X158727908Y-69993561D01*
X158602086Y-70228956D01*
X158590000Y-70268798D01*
X158577914Y-70228955D01*
X158452092Y-69993560D01*
X158282764Y-69787235D01*
X158076439Y-69617908D01*
X157841044Y-69492086D01*
X157585625Y-69414606D01*
X157320000Y-69388444D01*
X157054374Y-69414606D01*
X156798955Y-69492086D01*
X156563560Y-69617908D01*
X156357235Y-69787236D01*
X156187908Y-69993561D01*
X156062086Y-70228956D01*
X156050000Y-70268798D01*
X156037914Y-70228955D01*
X155912092Y-69993560D01*
X155742764Y-69787235D01*
X155536439Y-69617908D01*
X155301044Y-69492086D01*
X155045625Y-69414606D01*
X154780000Y-69388444D01*
X154514374Y-69414606D01*
X154258955Y-69492086D01*
X154023560Y-69617908D01*
X153817235Y-69787236D01*
X153647908Y-69993561D01*
X153522086Y-70228956D01*
X153510000Y-70268798D01*
X153497914Y-70228955D01*
X153372092Y-69993560D01*
X153202764Y-69787235D01*
X152996439Y-69617908D01*
X152761044Y-69492086D01*
X152505625Y-69414606D01*
X152240000Y-69388444D01*
X151974374Y-69414606D01*
X151718955Y-69492086D01*
X151483560Y-69617908D01*
X151277235Y-69787236D01*
X151107908Y-69993561D01*
X150982086Y-70228956D01*
X150970000Y-70268798D01*
X150957914Y-70228955D01*
X150832092Y-69993560D01*
X150662764Y-69787235D01*
X150456439Y-69617908D01*
X150221044Y-69492086D01*
X149965625Y-69414606D01*
X149700000Y-69388444D01*
X149434374Y-69414606D01*
X149178955Y-69492086D01*
X148943560Y-69617908D01*
X148737235Y-69787236D01*
X148567908Y-69993561D01*
X148442086Y-70228956D01*
X148430000Y-70268798D01*
X148417914Y-70228955D01*
X148292092Y-69993560D01*
X148122764Y-69787235D01*
X147916439Y-69617908D01*
X147681044Y-69492086D01*
X147425625Y-69414606D01*
X147160000Y-69388444D01*
X146894374Y-69414606D01*
X146638955Y-69492086D01*
X146403560Y-69617908D01*
X146197235Y-69787236D01*
X146027908Y-69993561D01*
X145902086Y-70228956D01*
X145890000Y-70268798D01*
X145877914Y-70228955D01*
X145752092Y-69993560D01*
X145582764Y-69787235D01*
X145376439Y-69617908D01*
X145141044Y-69492086D01*
X144885625Y-69414606D01*
X144620000Y-69388444D01*
X144354374Y-69414606D01*
X144098955Y-69492086D01*
X143863560Y-69617908D01*
X143657235Y-69787236D01*
X143487908Y-69993561D01*
X143362086Y-70228956D01*
X143350000Y-70268798D01*
X143337914Y-70228955D01*
X143212092Y-69993560D01*
X143042764Y-69787235D01*
X142836439Y-69617908D01*
X142601044Y-69492086D01*
X142345625Y-69414606D01*
X142080000Y-69388444D01*
X141814374Y-69414606D01*
X141558955Y-69492086D01*
X141323560Y-69617908D01*
X141117235Y-69787236D01*
X140947908Y-69993561D01*
X140822086Y-70228956D01*
X140810000Y-70268798D01*
X140797914Y-70228955D01*
X140672092Y-69993560D01*
X140502764Y-69787235D01*
X140296439Y-69617908D01*
X140061044Y-69492086D01*
X139805625Y-69414606D01*
X139540000Y-69388444D01*
X139274374Y-69414606D01*
X139018955Y-69492086D01*
X138783560Y-69617908D01*
X138577235Y-69787236D01*
X138407908Y-69993561D01*
X138282086Y-70228956D01*
X138270000Y-70268798D01*
X138257914Y-70228955D01*
X138132092Y-69993560D01*
X137962764Y-69787235D01*
X137760000Y-69620830D01*
X137760000Y-69437322D01*
X137763676Y-69399999D01*
X137760000Y-69362676D01*
X137760000Y-69362667D01*
X137749003Y-69251014D01*
X137705546Y-69107753D01*
X137634974Y-68975724D01*
X137540001Y-68859999D01*
X137511004Y-68836202D01*
X134860000Y-66185199D01*
X134860000Y-66118043D01*
X135014759Y-66014637D01*
X135214637Y-65814759D01*
X135371680Y-65579727D01*
X135479853Y-65318574D01*
X135507807Y-65178043D01*
X135587818Y-65441808D01*
X135721068Y-65691101D01*
X135900392Y-65909608D01*
X136118899Y-66088932D01*
X136368192Y-66222182D01*
X136638691Y-66304236D01*
X136849508Y-66325000D01*
X136990492Y-66325000D01*
X137201309Y-66304236D01*
X137471808Y-66222182D01*
X137721101Y-66088932D01*
X137939608Y-65909608D01*
X138118932Y-65691101D01*
X138190000Y-65558142D01*
X138261068Y-65691101D01*
X138440392Y-65909608D01*
X138658899Y-66088932D01*
X138908192Y-66222182D01*
X139178691Y-66304236D01*
X139389508Y-66325000D01*
X139530492Y-66325000D01*
X139741309Y-66304236D01*
X140011808Y-66222182D01*
X140261101Y-66088932D01*
X140479608Y-65909608D01*
X140658932Y-65691101D01*
X140730000Y-65558142D01*
X140801068Y-65691101D01*
X140980392Y-65909608D01*
X141198899Y-66088932D01*
X141448192Y-66222182D01*
X141718691Y-66304236D01*
X141929508Y-66325000D01*
X142070492Y-66325000D01*
X142281309Y-66304236D01*
X142551808Y-66222182D01*
X142801101Y-66088932D01*
X143019608Y-65909608D01*
X143198932Y-65691101D01*
X143270000Y-65558142D01*
X143341068Y-65691101D01*
X143520392Y-65909608D01*
X143738899Y-66088932D01*
X143988192Y-66222182D01*
X144258691Y-66304236D01*
X144469508Y-66325000D01*
X144610492Y-66325000D01*
X144821309Y-66304236D01*
X145091808Y-66222182D01*
X145341101Y-66088932D01*
X145559608Y-65909608D01*
X145738932Y-65691101D01*
X145810000Y-65558142D01*
X145881068Y-65691101D01*
X146060392Y-65909608D01*
X146278899Y-66088932D01*
X146528192Y-66222182D01*
X146798691Y-66304236D01*
X147009508Y-66325000D01*
X147150492Y-66325000D01*
X147361309Y-66304236D01*
X147631808Y-66222182D01*
X147881101Y-66088932D01*
X148099608Y-65909608D01*
X148278932Y-65691101D01*
X148350000Y-65558142D01*
X148421068Y-65691101D01*
X148600392Y-65909608D01*
X148818899Y-66088932D01*
X149068192Y-66222182D01*
X149338691Y-66304236D01*
X149549508Y-66325000D01*
X149690492Y-66325000D01*
X149901309Y-66304236D01*
X150171808Y-66222182D01*
X150421101Y-66088932D01*
X150639608Y-65909608D01*
X150818932Y-65691101D01*
X150952182Y-65441808D01*
X151034236Y-65171309D01*
X151061943Y-64890000D01*
X153258057Y-64890000D01*
X153285764Y-65171309D01*
X153367818Y-65441808D01*
X153501068Y-65691101D01*
X153680392Y-65909608D01*
X153898899Y-66088932D01*
X154148192Y-66222182D01*
X154418691Y-66304236D01*
X154629508Y-66325000D01*
X154770492Y-66325000D01*
X154981309Y-66304236D01*
X155251808Y-66222182D01*
X155501101Y-66088932D01*
X155719608Y-65909608D01*
X155898932Y-65691101D01*
X155972579Y-65553318D01*
X156087615Y-65745131D01*
X156276586Y-65953519D01*
X156502580Y-66121037D01*
X156756913Y-66241246D01*
X156890961Y-66281904D01*
X157113000Y-66159915D01*
X157113000Y-65017000D01*
X157367000Y-65017000D01*
X157367000Y-66159915D01*
X157589039Y-66281904D01*
X157723087Y-66241246D01*
X157977420Y-66121037D01*
X158203414Y-65953519D01*
X158392385Y-65745131D01*
X158510000Y-65549018D01*
X158627615Y-65745131D01*
X158816586Y-65953519D01*
X159042580Y-66121037D01*
X159296913Y-66241246D01*
X159430961Y-66281904D01*
X159653000Y-66159915D01*
X159653000Y-65017000D01*
X157367000Y-65017000D01*
X157113000Y-65017000D01*
X157093000Y-65017000D01*
X157093000Y-64763000D01*
X157113000Y-64763000D01*
X157113000Y-63620085D01*
X157367000Y-63620085D01*
X157367000Y-64763000D01*
X159653000Y-64763000D01*
X159653000Y-63620085D01*
X159907000Y-63620085D01*
X159907000Y-64763000D01*
X159927000Y-64763000D01*
X159927000Y-65017000D01*
X159907000Y-65017000D01*
X159907000Y-66159915D01*
X160129039Y-66281904D01*
X160263087Y-66241246D01*
X160517420Y-66121037D01*
X160743414Y-65953519D01*
X160932385Y-65745131D01*
X161047421Y-65553318D01*
X161121068Y-65691101D01*
X161300392Y-65909608D01*
X161518899Y-66088932D01*
X161768192Y-66222182D01*
X162038691Y-66304236D01*
X162249508Y-66325000D01*
X162390492Y-66325000D01*
X162601309Y-66304236D01*
X162871808Y-66222182D01*
X163121101Y-66088932D01*
X163339608Y-65909608D01*
X163518932Y-65691101D01*
X163590000Y-65558142D01*
X163661068Y-65691101D01*
X163840392Y-65909608D01*
X164058899Y-66088932D01*
X164308192Y-66222182D01*
X164578691Y-66304236D01*
X164789508Y-66325000D01*
X164930492Y-66325000D01*
X165141309Y-66304236D01*
X165411808Y-66222182D01*
X165661101Y-66088932D01*
X165879608Y-65909608D01*
X166058932Y-65691101D01*
X166130000Y-65558142D01*
X166201068Y-65691101D01*
X166380392Y-65909608D01*
X166598899Y-66088932D01*
X166848192Y-66222182D01*
X167118691Y-66304236D01*
X167329508Y-66325000D01*
X167470492Y-66325000D01*
X167681309Y-66304236D01*
X167951808Y-66222182D01*
X168201101Y-66088932D01*
X168419608Y-65909608D01*
X168598932Y-65691101D01*
X168670000Y-65558142D01*
X168741068Y-65691101D01*
X168920392Y-65909608D01*
X169138899Y-66088932D01*
X169388192Y-66222182D01*
X169658691Y-66304236D01*
X169869508Y-66325000D01*
X170010492Y-66325000D01*
X170221309Y-66304236D01*
X170491808Y-66222182D01*
X170741101Y-66088932D01*
X170959608Y-65909608D01*
X171052419Y-65796518D01*
X171054188Y-65814482D01*
X171090498Y-65934180D01*
X171149463Y-66044494D01*
X171228815Y-66141185D01*
X171325506Y-66220537D01*
X171435820Y-66279502D01*
X171555518Y-66315812D01*
X171680000Y-66328072D01*
X173280000Y-66328072D01*
X173404482Y-66315812D01*
X173524180Y-66279502D01*
X173634494Y-66220537D01*
X173731185Y-66141185D01*
X173810537Y-66044494D01*
X173869502Y-65934180D01*
X173905812Y-65814482D01*
X173918072Y-65690000D01*
X173918072Y-64090000D01*
X173905812Y-63965518D01*
X173869502Y-63845820D01*
X173810537Y-63735506D01*
X173731185Y-63638815D01*
X173634494Y-63559463D01*
X173524180Y-63500498D01*
X173404482Y-63464188D01*
X173280000Y-63451928D01*
X171680000Y-63451928D01*
X171555518Y-63464188D01*
X171435820Y-63500498D01*
X171325506Y-63559463D01*
X171228815Y-63638815D01*
X171149463Y-63735506D01*
X171090498Y-63845820D01*
X171054188Y-63965518D01*
X171052419Y-63983482D01*
X170959608Y-63870392D01*
X170741101Y-63691068D01*
X170491808Y-63557818D01*
X170221309Y-63475764D01*
X170010492Y-63455000D01*
X169869508Y-63455000D01*
X169658691Y-63475764D01*
X169388192Y-63557818D01*
X169138899Y-63691068D01*
X168920392Y-63870392D01*
X168741068Y-64088899D01*
X168670000Y-64221858D01*
X168598932Y-64088899D01*
X168419608Y-63870392D01*
X168201101Y-63691068D01*
X167951808Y-63557818D01*
X167681309Y-63475764D01*
X167470492Y-63455000D01*
X167329508Y-63455000D01*
X167118691Y-63475764D01*
X166848192Y-63557818D01*
X166598899Y-63691068D01*
X166380392Y-63870392D01*
X166201068Y-64088899D01*
X166130000Y-64221858D01*
X166058932Y-64088899D01*
X165879608Y-63870392D01*
X165661101Y-63691068D01*
X165411808Y-63557818D01*
X165141309Y-63475764D01*
X164930492Y-63455000D01*
X164789508Y-63455000D01*
X164578691Y-63475764D01*
X164308192Y-63557818D01*
X164058899Y-63691068D01*
X163840392Y-63870392D01*
X163661068Y-64088899D01*
X163590000Y-64221858D01*
X163518932Y-64088899D01*
X163339608Y-63870392D01*
X163121101Y-63691068D01*
X162871808Y-63557818D01*
X162601309Y-63475764D01*
X162390492Y-63455000D01*
X162249508Y-63455000D01*
X162038691Y-63475764D01*
X161768192Y-63557818D01*
X161518899Y-63691068D01*
X161300392Y-63870392D01*
X161121068Y-64088899D01*
X161047421Y-64226682D01*
X160932385Y-64034869D01*
X160743414Y-63826481D01*
X160517420Y-63658963D01*
X160263087Y-63538754D01*
X160129039Y-63498096D01*
X159907000Y-63620085D01*
X159653000Y-63620085D01*
X159430961Y-63498096D01*
X159296913Y-63538754D01*
X159042580Y-63658963D01*
X158816586Y-63826481D01*
X158627615Y-64034869D01*
X158510000Y-64230982D01*
X158392385Y-64034869D01*
X158203414Y-63826481D01*
X157977420Y-63658963D01*
X157723087Y-63538754D01*
X157589039Y-63498096D01*
X157367000Y-63620085D01*
X157113000Y-63620085D01*
X156890961Y-63498096D01*
X156756913Y-63538754D01*
X156502580Y-63658963D01*
X156276586Y-63826481D01*
X156087615Y-64034869D01*
X155972579Y-64226682D01*
X155898932Y-64088899D01*
X155719608Y-63870392D01*
X155501101Y-63691068D01*
X155251808Y-63557818D01*
X154981309Y-63475764D01*
X154770492Y-63455000D01*
X154629508Y-63455000D01*
X154418691Y-63475764D01*
X154148192Y-63557818D01*
X153898899Y-63691068D01*
X153680392Y-63870392D01*
X153501068Y-64088899D01*
X153367818Y-64338192D01*
X153285764Y-64608691D01*
X153258057Y-64890000D01*
X151061943Y-64890000D01*
X151034236Y-64608691D01*
X150952182Y-64338192D01*
X150818932Y-64088899D01*
X150639608Y-63870392D01*
X150421101Y-63691068D01*
X150171808Y-63557818D01*
X149901309Y-63475764D01*
X149690492Y-63455000D01*
X149549508Y-63455000D01*
X149338691Y-63475764D01*
X149068192Y-63557818D01*
X148818899Y-63691068D01*
X148600392Y-63870392D01*
X148421068Y-64088899D01*
X148350000Y-64221858D01*
X148278932Y-64088899D01*
X148099608Y-63870392D01*
X147881101Y-63691068D01*
X147631808Y-63557818D01*
X147361309Y-63475764D01*
X147150492Y-63455000D01*
X147009508Y-63455000D01*
X146798691Y-63475764D01*
X146528192Y-63557818D01*
X146278899Y-63691068D01*
X146060392Y-63870392D01*
X145881068Y-64088899D01*
X145810000Y-64221858D01*
X145738932Y-64088899D01*
X145559608Y-63870392D01*
X145341101Y-63691068D01*
X145091808Y-63557818D01*
X144821309Y-63475764D01*
X144610492Y-63455000D01*
X144469508Y-63455000D01*
X144258691Y-63475764D01*
X143988192Y-63557818D01*
X143738899Y-63691068D01*
X143520392Y-63870392D01*
X143341068Y-64088899D01*
X143270000Y-64221858D01*
X143198932Y-64088899D01*
X143019608Y-63870392D01*
X142801101Y-63691068D01*
X142551808Y-63557818D01*
X142281309Y-63475764D01*
X142070492Y-63455000D01*
X141929508Y-63455000D01*
X141718691Y-63475764D01*
X141448192Y-63557818D01*
X141198899Y-63691068D01*
X140980392Y-63870392D01*
X140801068Y-64088899D01*
X140730000Y-64221858D01*
X140658932Y-64088899D01*
X140479608Y-63870392D01*
X140261101Y-63691068D01*
X140011808Y-63557818D01*
X139741309Y-63475764D01*
X139530492Y-63455000D01*
X139389508Y-63455000D01*
X139178691Y-63475764D01*
X138908192Y-63557818D01*
X138658899Y-63691068D01*
X138440392Y-63870392D01*
X138261068Y-64088899D01*
X138190000Y-64221858D01*
X138118932Y-64088899D01*
X137939608Y-63870392D01*
X137721101Y-63691068D01*
X137471808Y-63557818D01*
X137201309Y-63475764D01*
X136990492Y-63455000D01*
X136849508Y-63455000D01*
X136638691Y-63475764D01*
X136368192Y-63557818D01*
X136118899Y-63691068D01*
X135900392Y-63870392D01*
X135721068Y-64088899D01*
X135587818Y-64338192D01*
X135505764Y-64608691D01*
X135505567Y-64610695D01*
X135479853Y-64481426D01*
X135371680Y-64220273D01*
X135214637Y-63985241D01*
X135014759Y-63785363D01*
X134779727Y-63628320D01*
X134518574Y-63520147D01*
X134241335Y-63465000D01*
X133958665Y-63465000D01*
X133681426Y-63520147D01*
X133420273Y-63628320D01*
X133185241Y-63785363D01*
X132985363Y-63985241D01*
X132851308Y-64185869D01*
X132836671Y-64158486D01*
X132592702Y-64086903D01*
X131779605Y-64900000D01*
X131420395Y-64900000D01*
X130607298Y-64086903D01*
X130363329Y-64158486D01*
X130242429Y-64413996D01*
X130173700Y-64688184D01*
X130159783Y-64970512D01*
X128162868Y-64970512D01*
X129226082Y-63907298D01*
X130786903Y-63907298D01*
X131600000Y-64720395D01*
X132413097Y-63907298D01*
X132341514Y-63663329D01*
X132086004Y-63542429D01*
X131811816Y-63473700D01*
X131529488Y-63459783D01*
X131249870Y-63501213D01*
X130983708Y-63596397D01*
X130858486Y-63663329D01*
X130786903Y-63907298D01*
X129226082Y-63907298D01*
X130273381Y-62860000D01*
X182726620Y-62860000D01*
X184340000Y-64473381D01*
G36*
X161142086Y-96481045D02*
G01*
X161267908Y-96716440D01*
X161437236Y-96922765D01*
X161640000Y-97089170D01*
X161640000Y-97562677D01*
X161636324Y-97600000D01*
X161640000Y-97637322D01*
X161640000Y-97637332D01*
X161650997Y-97748985D01*
X161688368Y-97872182D01*
X161694454Y-97892246D01*
X161765026Y-98024276D01*
X161794666Y-98060392D01*
X161859999Y-98140001D01*
X161889003Y-98163804D01*
X165519640Y-101794442D01*
X165341203Y-101719542D01*
X165276472Y-101707441D01*
X165067000Y-101830511D01*
X165067000Y-103173000D01*
X166295000Y-103173000D01*
X166295000Y-102893000D01*
X166244188Y-102631093D01*
X166166706Y-102441508D01*
X168160001Y-104434804D01*
X168160000Y-111929099D01*
X168118899Y-111951068D01*
X167900392Y-112130392D01*
X167721068Y-112348899D01*
X167650000Y-112481858D01*
X167578932Y-112348899D01*
X167399608Y-112130392D01*
X167181101Y-111951068D01*
X166931808Y-111817818D01*
X166661309Y-111735764D01*
X166450492Y-111715000D01*
X166309508Y-111715000D01*
X166098691Y-111735764D01*
X165828192Y-111817818D01*
X165578899Y-111951068D01*
X165360392Y-112130392D01*
X165181068Y-112348899D01*
X165110000Y-112481858D01*
X165038932Y-112348899D01*
X164859608Y-112130392D01*
X164641101Y-111951068D01*
X164391808Y-111817818D01*
X164121309Y-111735764D01*
X163910492Y-111715000D01*
X163769508Y-111715000D01*
X163558691Y-111735764D01*
X163288192Y-111817818D01*
X163038899Y-111951068D01*
X162820392Y-112130392D01*
X162641068Y-112348899D01*
X162570000Y-112481858D01*
X162498932Y-112348899D01*
X162319608Y-112130392D01*
X162101101Y-111951068D01*
X161851808Y-111817818D01*
X161581309Y-111735764D01*
X161370492Y-111715000D01*
X161229508Y-111715000D01*
X161018691Y-111735764D01*
X160748192Y-111817818D01*
X160498899Y-111951068D01*
X160280392Y-112130392D01*
X160101068Y-112348899D01*
X160030000Y-112481858D01*
X159958932Y-112348899D01*
X159779608Y-112130392D01*
X159561101Y-111951068D01*
X159520000Y-111929099D01*
X159520000Y-111254801D01*
X161266136Y-109508665D01*
X164965000Y-109508665D01*
X164965000Y-109791335D01*
X165020147Y-110068574D01*
X165128320Y-110329727D01*
X165285363Y-110564759D01*
X165485241Y-110764637D01*
X165720273Y-110921680D01*
X165981426Y-111029853D01*
X166258665Y-111085000D01*
X166541335Y-111085000D01*
X166818574Y-111029853D01*
X167079727Y-110921680D01*
X167314759Y-110764637D01*
X167514637Y-110564759D01*
X167671680Y-110329727D01*
X167779853Y-110068574D01*
X167835000Y-109791335D01*
X167835000Y-109508665D01*
X167779853Y-109231426D01*
X167671680Y-108970273D01*
X167514637Y-108735241D01*
X167314759Y-108535363D01*
X167079727Y-108378320D01*
X166818574Y-108270147D01*
X166541335Y-108215000D01*
X166258665Y-108215000D01*
X165981426Y-108270147D01*
X165720273Y-108378320D01*
X165485241Y-108535363D01*
X165285363Y-108735241D01*
X165128320Y-108970273D01*
X165020147Y-109231426D01*
X164965000Y-109508665D01*
X161266136Y-109508665D01*
X162911004Y-107863798D01*
X162940001Y-107840001D01*
X163034974Y-107724276D01*
X163105546Y-107592247D01*
X163149003Y-107448986D01*
X163160000Y-107337333D01*
X163160000Y-107337324D01*
X163163676Y-107300001D01*
X163160000Y-107262678D01*
X163160000Y-104709170D01*
X163362765Y-104542765D01*
X163532092Y-104336440D01*
X163657914Y-104101045D01*
X163671505Y-104056241D01*
X163736744Y-104215869D01*
X163883916Y-104438395D01*
X164071673Y-104627933D01*
X164292799Y-104777199D01*
X164538797Y-104880458D01*
X164603528Y-104892559D01*
X164813000Y-104769489D01*
X164813000Y-103427000D01*
X165067000Y-103427000D01*
X165067000Y-104769489D01*
X165276472Y-104892559D01*
X165341203Y-104880458D01*
X165587201Y-104777199D01*
X165808327Y-104627933D01*
X165996084Y-104438395D01*
X166143256Y-104215869D01*
X166244188Y-103968907D01*
X166295000Y-103707000D01*
X166295000Y-103427000D01*
X165067000Y-103427000D01*
X164813000Y-103427000D01*
X164793000Y-103427000D01*
X164793000Y-103173000D01*
X164813000Y-103173000D01*
X164813000Y-101830511D01*
X164603528Y-101707441D01*
X164538797Y-101719542D01*
X164292799Y-101822801D01*
X164071673Y-101972067D01*
X163883916Y-102161605D01*
X163736744Y-102384131D01*
X163671505Y-102543759D01*
X163657914Y-102498955D01*
X163532092Y-102263560D01*
X163362764Y-102057235D01*
X163160000Y-101890830D01*
X163160000Y-101437333D01*
X163163677Y-101400000D01*
X163149003Y-101251014D01*
X163105546Y-101107753D01*
X163034974Y-100975724D01*
X162984691Y-100914454D01*
X162940001Y-100859999D01*
X162911003Y-100836201D01*
X159360000Y-97285199D01*
X159360000Y-97224298D01*
X159594375Y-97295394D01*
X159860000Y-97321556D01*
X160125626Y-97295394D01*
X160381045Y-97217914D01*
X160616440Y-97092092D01*
X160822765Y-96922765D01*
X160992092Y-96716440D01*
X161117914Y-96481045D01*
X161130000Y-96441202D01*
X161142086Y-96481045D01*
X161142086Y-96481045D01*
G37*
X161142086Y-96481045D02*
X161267908Y-96716440D01*
X161437236Y-96922765D01*
X161640000Y-97089170D01*
X161640000Y-97562677D01*
X161636324Y-97600000D01*
X161640000Y-97637322D01*
X161640000Y-97637332D01*
X161650997Y-97748985D01*
X161688368Y-97872182D01*
X161694454Y-97892246D01*
X161765026Y-98024276D01*
X161794666Y-98060392D01*
X161859999Y-98140001D01*
X161889003Y-98163804D01*
X165519640Y-101794442D01*
X165341203Y-101719542D01*
X165276472Y-101707441D01*
X165067000Y-101830511D01*
X165067000Y-103173000D01*
X166295000Y-103173000D01*
X166295000Y-102893000D01*
X166244188Y-102631093D01*
X166166706Y-102441508D01*
X168160001Y-104434804D01*
X168160000Y-111929099D01*
X168118899Y-111951068D01*
X167900392Y-112130392D01*
X167721068Y-112348899D01*
X167650000Y-112481858D01*
X167578932Y-112348899D01*
X167399608Y-112130392D01*
X167181101Y-111951068D01*
X166931808Y-111817818D01*
X166661309Y-111735764D01*
X166450492Y-111715000D01*
X166309508Y-111715000D01*
X166098691Y-111735764D01*
X165828192Y-111817818D01*
X165578899Y-111951068D01*
X165360392Y-112130392D01*
X165181068Y-112348899D01*
X165110000Y-112481858D01*
X165038932Y-112348899D01*
X164859608Y-112130392D01*
X164641101Y-111951068D01*
X164391808Y-111817818D01*
X164121309Y-111735764D01*
X163910492Y-111715000D01*
X163769508Y-111715000D01*
X163558691Y-111735764D01*
X163288192Y-111817818D01*
X163038899Y-111951068D01*
X162820392Y-112130392D01*
X162641068Y-112348899D01*
X162570000Y-112481858D01*
X162498932Y-112348899D01*
X162319608Y-112130392D01*
X162101101Y-111951068D01*
X161851808Y-111817818D01*
X161581309Y-111735764D01*
X161370492Y-111715000D01*
X161229508Y-111715000D01*
X161018691Y-111735764D01*
X160748192Y-111817818D01*
X160498899Y-111951068D01*
X160280392Y-112130392D01*
X160101068Y-112348899D01*
X160030000Y-112481858D01*
X159958932Y-112348899D01*
X159779608Y-112130392D01*
X159561101Y-111951068D01*
X159520000Y-111929099D01*
X159520000Y-111254801D01*
X161266136Y-109508665D01*
X164965000Y-109508665D01*
X164965000Y-109791335D01*
X165020147Y-110068574D01*
X165128320Y-110329727D01*
X165285363Y-110564759D01*
X165485241Y-110764637D01*
X165720273Y-110921680D01*
X165981426Y-111029853D01*
X166258665Y-111085000D01*
X166541335Y-111085000D01*
X166818574Y-111029853D01*
X167079727Y-110921680D01*
X167314759Y-110764637D01*
X167514637Y-110564759D01*
X167671680Y-110329727D01*
X167779853Y-110068574D01*
X167835000Y-109791335D01*
X167835000Y-109508665D01*
X167779853Y-109231426D01*
X167671680Y-108970273D01*
X167514637Y-108735241D01*
X167314759Y-108535363D01*
X167079727Y-108378320D01*
X166818574Y-108270147D01*
X166541335Y-108215000D01*
X166258665Y-108215000D01*
X165981426Y-108270147D01*
X165720273Y-108378320D01*
X165485241Y-108535363D01*
X165285363Y-108735241D01*
X165128320Y-108970273D01*
X165020147Y-109231426D01*
X164965000Y-109508665D01*
X161266136Y-109508665D01*
X162911004Y-107863798D01*
X162940001Y-107840001D01*
X163034974Y-107724276D01*
X163105546Y-107592247D01*
X163149003Y-107448986D01*
X163160000Y-107337333D01*
X163160000Y-107337324D01*
X163163676Y-107300001D01*
X163160000Y-107262678D01*
X163160000Y-104709170D01*
X163362765Y-104542765D01*
X163532092Y-104336440D01*
X163657914Y-104101045D01*
X163671505Y-104056241D01*
X163736744Y-104215869D01*
X163883916Y-104438395D01*
X164071673Y-104627933D01*
X164292799Y-104777199D01*
X164538797Y-104880458D01*
X164603528Y-104892559D01*
X164813000Y-104769489D01*
X164813000Y-103427000D01*
X165067000Y-103427000D01*
X165067000Y-104769489D01*
X165276472Y-104892559D01*
X165341203Y-104880458D01*
X165587201Y-104777199D01*
X165808327Y-104627933D01*
X165996084Y-104438395D01*
X166143256Y-104215869D01*
X166244188Y-103968907D01*
X166295000Y-103707000D01*
X166295000Y-103427000D01*
X165067000Y-103427000D01*
X164813000Y-103427000D01*
X164793000Y-103427000D01*
X164793000Y-103173000D01*
X164813000Y-103173000D01*
X164813000Y-101830511D01*
X164603528Y-101707441D01*
X164538797Y-101719542D01*
X164292799Y-101822801D01*
X164071673Y-101972067D01*
X163883916Y-102161605D01*
X163736744Y-102384131D01*
X163671505Y-102543759D01*
X163657914Y-102498955D01*
X163532092Y-102263560D01*
X163362764Y-102057235D01*
X163160000Y-101890830D01*
X163160000Y-101437333D01*
X163163677Y-101400000D01*
X163149003Y-101251014D01*
X163105546Y-101107753D01*
X163034974Y-100975724D01*
X162984691Y-100914454D01*
X162940001Y-100859999D01*
X162911003Y-100836201D01*
X159360000Y-97285199D01*
X159360000Y-97224298D01*
X159594375Y-97295394D01*
X159860000Y-97321556D01*
X160125626Y-97295394D01*
X160381045Y-97217914D01*
X160616440Y-97092092D01*
X160822765Y-96922765D01*
X160992092Y-96716440D01*
X161117914Y-96481045D01*
X161130000Y-96441202D01*
X161142086Y-96481045D01*
G36*
X156062086Y-71831045D02*
G01*
X156187908Y-72066440D01*
X156357236Y-72272765D01*
X156560000Y-72439170D01*
X156560000Y-72732677D01*
X156556324Y-72770000D01*
X156560000Y-72807322D01*
X156560000Y-72807332D01*
X156570997Y-72918985D01*
X156609904Y-73047246D01*
X156614454Y-73062246D01*
X156685026Y-73194276D01*
X156706960Y-73221002D01*
X156779999Y-73310001D01*
X156809003Y-73333804D01*
X161640001Y-78164803D01*
X161640000Y-94270830D01*
X161437235Y-94437236D01*
X161267908Y-94643561D01*
X161142086Y-94878956D01*
X161130000Y-94918798D01*
X161117914Y-94878955D01*
X160992092Y-94643560D01*
X160822764Y-94437235D01*
X160620000Y-94270830D01*
X160620000Y-90370901D01*
X160661101Y-90348932D01*
X160879608Y-90169608D01*
X161058932Y-89951101D01*
X161192182Y-89701808D01*
X161274236Y-89431309D01*
X161301943Y-89150000D01*
X161274236Y-88868691D01*
X161192182Y-88598192D01*
X161058932Y-88348899D01*
X160879608Y-88130392D01*
X160661101Y-87951068D01*
X160620000Y-87929099D01*
X160620000Y-84297322D01*
X160623676Y-84259999D01*
X160620000Y-84222676D01*
X160620000Y-84222667D01*
X160609003Y-84111014D01*
X160565546Y-83967753D01*
X160543519Y-83926544D01*
X160494974Y-83835723D01*
X160423799Y-83748997D01*
X160400001Y-83719999D01*
X160371003Y-83696201D01*
X159360000Y-82685199D01*
X159360000Y-80188987D01*
X159458797Y-80230458D01*
X159523528Y-80242559D01*
X159733000Y-80119489D01*
X159733000Y-78777000D01*
X159987000Y-78777000D01*
X159987000Y-80119489D01*
X160196472Y-80242559D01*
X160261203Y-80230458D01*
X160507201Y-80127199D01*
X160728327Y-79977933D01*
X160916084Y-79788395D01*
X161063256Y-79565869D01*
X161164188Y-79318907D01*
X161215000Y-79057000D01*
X161215000Y-78777000D01*
X159987000Y-78777000D01*
X159733000Y-78777000D01*
X159713000Y-78777000D01*
X159713000Y-78523000D01*
X159733000Y-78523000D01*
X159733000Y-77180511D01*
X159987000Y-77180511D01*
X159987000Y-78523000D01*
X161215000Y-78523000D01*
X161215000Y-78243000D01*
X161164188Y-77981093D01*
X161063256Y-77734131D01*
X160916084Y-77511605D01*
X160728327Y-77322067D01*
X160507201Y-77172801D01*
X160261203Y-77069542D01*
X160196472Y-77057441D01*
X159987000Y-77180511D01*
X159733000Y-77180511D01*
X159523528Y-77057441D01*
X159458797Y-77069542D01*
X159360000Y-77111013D01*
X159360000Y-76612323D01*
X159363676Y-76575000D01*
X159360000Y-76537677D01*
X159360000Y-76537667D01*
X159349003Y-76426014D01*
X159305546Y-76282753D01*
X159234974Y-76150724D01*
X159140001Y-76034999D01*
X159111003Y-76011201D01*
X155540000Y-72440199D01*
X155540000Y-72439170D01*
X155742765Y-72272765D01*
X155912092Y-72066440D01*
X156037914Y-71831045D01*
X156050000Y-71791202D01*
X156062086Y-71831045D01*
X156062086Y-71831045D01*
G37*
X156062086Y-71831045D02*
X156187908Y-72066440D01*
X156357236Y-72272765D01*
X156560000Y-72439170D01*
X156560000Y-72732677D01*
X156556324Y-72770000D01*
X156560000Y-72807322D01*
X156560000Y-72807332D01*
X156570997Y-72918985D01*
X156609904Y-73047246D01*
X156614454Y-73062246D01*
X156685026Y-73194276D01*
X156706960Y-73221002D01*
X156779999Y-73310001D01*
X156809003Y-73333804D01*
X161640001Y-78164803D01*
X161640000Y-94270830D01*
X161437235Y-94437236D01*
X161267908Y-94643561D01*
X161142086Y-94878956D01*
X161130000Y-94918798D01*
X161117914Y-94878955D01*
X160992092Y-94643560D01*
X160822764Y-94437235D01*
X160620000Y-94270830D01*
X160620000Y-90370901D01*
X160661101Y-90348932D01*
X160879608Y-90169608D01*
X161058932Y-89951101D01*
X161192182Y-89701808D01*
X161274236Y-89431309D01*
X161301943Y-89150000D01*
X161274236Y-88868691D01*
X161192182Y-88598192D01*
X161058932Y-88348899D01*
X160879608Y-88130392D01*
X160661101Y-87951068D01*
X160620000Y-87929099D01*
X160620000Y-84297322D01*
X160623676Y-84259999D01*
X160620000Y-84222676D01*
X160620000Y-84222667D01*
X160609003Y-84111014D01*
X160565546Y-83967753D01*
X160543519Y-83926544D01*
X160494974Y-83835723D01*
X160423799Y-83748997D01*
X160400001Y-83719999D01*
X160371003Y-83696201D01*
X159360000Y-82685199D01*
X159360000Y-80188987D01*
X159458797Y-80230458D01*
X159523528Y-80242559D01*
X159733000Y-80119489D01*
X159733000Y-78777000D01*
X159987000Y-78777000D01*
X159987000Y-80119489D01*
X160196472Y-80242559D01*
X160261203Y-80230458D01*
X160507201Y-80127199D01*
X160728327Y-79977933D01*
X160916084Y-79788395D01*
X161063256Y-79565869D01*
X161164188Y-79318907D01*
X161215000Y-79057000D01*
X161215000Y-78777000D01*
X159987000Y-78777000D01*
X159733000Y-78777000D01*
X159713000Y-78777000D01*
X159713000Y-78523000D01*
X159733000Y-78523000D01*
X159733000Y-77180511D01*
X159987000Y-77180511D01*
X159987000Y-78523000D01*
X161215000Y-78523000D01*
X161215000Y-78243000D01*
X161164188Y-77981093D01*
X161063256Y-77734131D01*
X160916084Y-77511605D01*
X160728327Y-77322067D01*
X160507201Y-77172801D01*
X160261203Y-77069542D01*
X160196472Y-77057441D01*
X159987000Y-77180511D01*
X159733000Y-77180511D01*
X159523528Y-77057441D01*
X159458797Y-77069542D01*
X159360000Y-77111013D01*
X159360000Y-76612323D01*
X159363676Y-76575000D01*
X159360000Y-76537677D01*
X159360000Y-76537667D01*
X159349003Y-76426014D01*
X159305546Y-76282753D01*
X159234974Y-76150724D01*
X159140001Y-76034999D01*
X159111003Y-76011201D01*
X155540000Y-72440199D01*
X155540000Y-72439170D01*
X155742765Y-72272765D01*
X155912092Y-72066440D01*
X156037914Y-71831045D01*
X156050000Y-71791202D01*
X156062086Y-71831045D01*
M02*
