M48
; DRILL file {KiCad 5.1.4+dfsg1-2} date mer. 27 nov. 2019 21:29:24 CET
; FORMAT={-:-/ absolute / metric / decimal}
; #@! TF.CreationDate,2019-11-27T21:29:24+01:00
; #@! TF.GenerationSoftware,Kicad,Pcbnew,5.1.4+dfsg1-2
; #@! TF.FileFunction,Plated,1,2,PTH
FMAT,2
METRIC
T1C0.800
T2C1.000
T3C1.100
T4C1.200
%
G90
G05
T1
X137.0Y-110.0
X139.5Y-110.0
X176.65Y-86.6
X179.19Y-84.06
X181.73Y-86.6
X137.0Y-89.15
X139.54Y-89.15
X142.08Y-89.15
X144.62Y-89.15
X147.16Y-89.15
X149.7Y-89.15
X152.24Y-89.15
X154.78Y-89.15
X157.32Y-89.15
X159.86Y-89.15
X168.9Y-79.35
X171.4Y-79.35
X174.65Y-94.0
X174.65Y-96.54
X174.65Y-99.08
X174.65Y-101.62
X182.27Y-94.0
X182.27Y-96.54
X182.27Y-99.08
X182.27Y-101.62
X131.6Y-64.9
X134.1Y-64.9
X179.7Y-105.0
X182.2Y-105.0
X131.6Y-89.15
X134.1Y-89.15
X169.85Y-70.55
X173.65Y-70.55
X136.92Y-64.89
X136.92Y-113.15
X139.46Y-64.89
X139.46Y-113.15
X142.0Y-64.89
X142.0Y-113.15
X144.54Y-64.89
X144.54Y-113.15
X147.08Y-64.89
X147.08Y-113.15
X149.62Y-64.89
X149.62Y-113.15
X152.16Y-113.15
X154.7Y-64.89
X154.7Y-113.15
X157.24Y-64.89
X158.76Y-113.15
X159.78Y-64.89
X161.3Y-113.15
X162.32Y-64.89
X163.84Y-113.15
X164.86Y-64.89
X166.38Y-113.15
X167.4Y-64.89
X168.92Y-113.15
X169.94Y-64.89
X171.46Y-113.15
X172.48Y-64.89
X174.0Y-113.15
X176.54Y-113.15
X179.08Y-113.15
X181.62Y-113.15
X137.0Y-85.55
X139.5Y-85.55
X166.4Y-109.65
X174.02Y-109.65
X168.9Y-85.55
X172.7Y-85.55
X174.65Y-104.95
X177.15Y-104.95
T2
X137.0Y-95.68
X137.0Y-103.3
X139.54Y-95.68
X139.54Y-103.3
X142.08Y-95.68
X142.08Y-103.3
X144.62Y-95.68
X144.62Y-103.3
X147.16Y-95.68
X147.16Y-103.3
X149.7Y-95.68
X149.7Y-103.3
X152.24Y-95.68
X152.24Y-103.3
X154.78Y-95.68
X154.78Y-103.3
X157.32Y-95.68
X157.32Y-103.3
X159.86Y-95.68
X159.86Y-103.3
X162.4Y-95.68
X162.4Y-103.3
X164.94Y-95.68
X164.94Y-103.3
X137.0Y-71.03
X137.0Y-78.65
X139.54Y-71.03
X139.54Y-78.65
X142.08Y-71.03
X142.08Y-78.65
X144.62Y-71.03
X144.62Y-78.65
X147.16Y-71.03
X147.16Y-78.65
X149.7Y-71.03
X149.7Y-78.65
X152.24Y-71.03
X152.24Y-78.65
X154.78Y-71.03
X154.78Y-78.65
X157.32Y-71.03
X157.32Y-78.65
X159.86Y-71.03
X159.86Y-78.65
T3
X174.65Y-90.65
X182.27Y-90.65
T4
X176.85Y-74.9
X176.85Y-78.9
X181.85Y-74.9
X181.85Y-78.9
T0
M30
