G04 #@! TF.GenerationSoftware,KiCad,Pcbnew,5.1.4+dfsg1-2*
G04 #@! TF.CreationDate,2019-11-27T21:42:57+01:00*
G04 #@! TF.ProjectId,theroof,74686572-6f6f-4662-9e6b-696361645f70,rev?*
G04 #@! TF.SameCoordinates,Original*
G04 #@! TF.FileFunction,Legend,Top*
G04 #@! TF.FilePolarity,Positive*
%FSLAX46Y46*%
G04 Gerber Fmt 4.6, Leading zero omitted, Abs format (unit mm)*
G04 Created by KiCad (PCBNEW 5.1.4+dfsg1-2) date 2019-11-27 21:42:57*
%MOMM*%
%LPD*%
G04 APERTURE LIST*
%ADD10C,0.150000*%
%ADD11C,0.120000*%
%ADD12C,0.010000*%
G04 APERTURE END LIST*
D10*
X144045238Y-108085714D02*
X144426190Y-108085714D01*
X144188095Y-107752380D02*
X144188095Y-108609523D01*
X144235714Y-108704761D01*
X144330952Y-108752380D01*
X144426190Y-108752380D01*
X144759523Y-108752380D02*
X144759523Y-107752380D01*
X145188095Y-108752380D02*
X145188095Y-108228571D01*
X145140476Y-108133333D01*
X145045238Y-108085714D01*
X144902380Y-108085714D01*
X144807142Y-108133333D01*
X144759523Y-108180952D01*
X146045238Y-108704761D02*
X145950000Y-108752380D01*
X145759523Y-108752380D01*
X145664285Y-108704761D01*
X145616666Y-108609523D01*
X145616666Y-108228571D01*
X145664285Y-108133333D01*
X145759523Y-108085714D01*
X145950000Y-108085714D01*
X146045238Y-108133333D01*
X146092857Y-108228571D01*
X146092857Y-108323809D01*
X145616666Y-108419047D01*
X146521428Y-108752380D02*
X146521428Y-108085714D01*
X146521428Y-108276190D02*
X146569047Y-108180952D01*
X146616666Y-108133333D01*
X146711904Y-108085714D01*
X146807142Y-108085714D01*
X147283333Y-108752380D02*
X147188095Y-108704761D01*
X147140476Y-108657142D01*
X147092857Y-108561904D01*
X147092857Y-108276190D01*
X147140476Y-108180952D01*
X147188095Y-108133333D01*
X147283333Y-108085714D01*
X147426190Y-108085714D01*
X147521428Y-108133333D01*
X147569047Y-108180952D01*
X147616666Y-108276190D01*
X147616666Y-108561904D01*
X147569047Y-108657142D01*
X147521428Y-108704761D01*
X147426190Y-108752380D01*
X147283333Y-108752380D01*
X148188095Y-108752380D02*
X148092857Y-108704761D01*
X148045238Y-108657142D01*
X147997619Y-108561904D01*
X147997619Y-108276190D01*
X148045238Y-108180952D01*
X148092857Y-108133333D01*
X148188095Y-108085714D01*
X148330952Y-108085714D01*
X148426190Y-108133333D01*
X148473809Y-108180952D01*
X148521428Y-108276190D01*
X148521428Y-108561904D01*
X148473809Y-108657142D01*
X148426190Y-108704761D01*
X148330952Y-108752380D01*
X148188095Y-108752380D01*
X148807142Y-108085714D02*
X149188095Y-108085714D01*
X148950000Y-108752380D02*
X148950000Y-107895238D01*
X148997619Y-107800000D01*
X149092857Y-107752380D01*
X149188095Y-107752380D01*
X150188095Y-108085714D02*
X150426190Y-108752380D01*
X150664285Y-108085714D01*
X151569047Y-108752380D02*
X150997619Y-108752380D01*
X151283333Y-108752380D02*
X151283333Y-107752380D01*
X151188095Y-107895238D01*
X151092857Y-107990476D01*
X150997619Y-108038095D01*
X151997619Y-108657142D02*
X152045238Y-108704761D01*
X151997619Y-108752380D01*
X151950000Y-108704761D01*
X151997619Y-108657142D01*
X151997619Y-108752380D01*
X152664285Y-107752380D02*
X152759523Y-107752380D01*
X152854761Y-107800000D01*
X152902380Y-107847619D01*
X152950000Y-107942857D01*
X152997619Y-108133333D01*
X152997619Y-108371428D01*
X152950000Y-108561904D01*
X152902380Y-108657142D01*
X152854761Y-108704761D01*
X152759523Y-108752380D01*
X152664285Y-108752380D01*
X152569047Y-108704761D01*
X152521428Y-108657142D01*
X152473809Y-108561904D01*
X152426190Y-108371428D01*
X152426190Y-108133333D01*
X152473809Y-107942857D01*
X152521428Y-107847619D01*
X152569047Y-107800000D01*
X152664285Y-107752380D01*
X154188095Y-108752380D02*
X154188095Y-107752380D01*
X154188095Y-108133333D02*
X154283333Y-108085714D01*
X154473809Y-108085714D01*
X154569047Y-108133333D01*
X154616666Y-108180952D01*
X154664285Y-108276190D01*
X154664285Y-108561904D01*
X154616666Y-108657142D01*
X154569047Y-108704761D01*
X154473809Y-108752380D01*
X154283333Y-108752380D01*
X154188095Y-108704761D01*
X154997619Y-108085714D02*
X155235714Y-108752380D01*
X155473809Y-108085714D02*
X155235714Y-108752380D01*
X155140476Y-108990476D01*
X155092857Y-109038095D01*
X154997619Y-109085714D01*
X157045238Y-108752380D02*
X157045238Y-108228571D01*
X156997619Y-108133333D01*
X156902380Y-108085714D01*
X156711904Y-108085714D01*
X156616666Y-108133333D01*
X157045238Y-108704761D02*
X156950000Y-108752380D01*
X156711904Y-108752380D01*
X156616666Y-108704761D01*
X156569047Y-108609523D01*
X156569047Y-108514285D01*
X156616666Y-108419047D01*
X156711904Y-108371428D01*
X156950000Y-108371428D01*
X157045238Y-108323809D01*
X157521428Y-108371428D02*
X158283333Y-108371428D01*
X158664285Y-108085714D02*
X158854761Y-108752380D01*
X159045238Y-108276190D01*
X159235714Y-108752380D01*
X159426190Y-108085714D01*
X160235714Y-108752380D02*
X160235714Y-108228571D01*
X160188095Y-108133333D01*
X160092857Y-108085714D01*
X159902380Y-108085714D01*
X159807142Y-108133333D01*
X160235714Y-108704761D02*
X160140476Y-108752380D01*
X159902380Y-108752380D01*
X159807142Y-108704761D01*
X159759523Y-108609523D01*
X159759523Y-108514285D01*
X159807142Y-108419047D01*
X159902380Y-108371428D01*
X160140476Y-108371428D01*
X160235714Y-108323809D01*
X160711904Y-108752380D02*
X160711904Y-108085714D01*
X160711904Y-107752380D02*
X160664285Y-107800000D01*
X160711904Y-107847619D01*
X160759523Y-107800000D01*
X160711904Y-107752380D01*
X160711904Y-107847619D01*
D11*
X143535714Y-110201904D02*
X143154761Y-110201904D01*
X143154761Y-109401904D01*
X143802380Y-110201904D02*
X143802380Y-109668571D01*
X143802380Y-109401904D02*
X143764285Y-109440000D01*
X143802380Y-109478095D01*
X143840476Y-109440000D01*
X143802380Y-109401904D01*
X143802380Y-109478095D01*
X144526190Y-110163809D02*
X144450000Y-110201904D01*
X144297619Y-110201904D01*
X144221428Y-110163809D01*
X144183333Y-110125714D01*
X144145238Y-110049523D01*
X144145238Y-109820952D01*
X144183333Y-109744761D01*
X144221428Y-109706666D01*
X144297619Y-109668571D01*
X144450000Y-109668571D01*
X144526190Y-109706666D01*
X145173809Y-110163809D02*
X145097619Y-110201904D01*
X144945238Y-110201904D01*
X144869047Y-110163809D01*
X144830952Y-110087619D01*
X144830952Y-109782857D01*
X144869047Y-109706666D01*
X144945238Y-109668571D01*
X145097619Y-109668571D01*
X145173809Y-109706666D01*
X145211904Y-109782857D01*
X145211904Y-109859047D01*
X144830952Y-109935238D01*
X145554761Y-109668571D02*
X145554761Y-110201904D01*
X145554761Y-109744761D02*
X145592857Y-109706666D01*
X145669047Y-109668571D01*
X145783333Y-109668571D01*
X145859523Y-109706666D01*
X145897619Y-109782857D01*
X145897619Y-110201904D01*
X146240476Y-110163809D02*
X146316666Y-110201904D01*
X146469047Y-110201904D01*
X146545238Y-110163809D01*
X146583333Y-110087619D01*
X146583333Y-110049523D01*
X146545238Y-109973333D01*
X146469047Y-109935238D01*
X146354761Y-109935238D01*
X146278571Y-109897142D01*
X146240476Y-109820952D01*
X146240476Y-109782857D01*
X146278571Y-109706666D01*
X146354761Y-109668571D01*
X146469047Y-109668571D01*
X146545238Y-109706666D01*
X147230952Y-110163809D02*
X147154761Y-110201904D01*
X147002380Y-110201904D01*
X146926190Y-110163809D01*
X146888095Y-110087619D01*
X146888095Y-109782857D01*
X146926190Y-109706666D01*
X147002380Y-109668571D01*
X147154761Y-109668571D01*
X147230952Y-109706666D01*
X147269047Y-109782857D01*
X147269047Y-109859047D01*
X146888095Y-109935238D01*
X147954761Y-110201904D02*
X147954761Y-109401904D01*
X147954761Y-110163809D02*
X147878571Y-110201904D01*
X147726190Y-110201904D01*
X147650000Y-110163809D01*
X147611904Y-110125714D01*
X147573809Y-110049523D01*
X147573809Y-109820952D01*
X147611904Y-109744761D01*
X147650000Y-109706666D01*
X147726190Y-109668571D01*
X147878571Y-109668571D01*
X147954761Y-109706666D01*
X149288095Y-109668571D02*
X149288095Y-110201904D01*
X148945238Y-109668571D02*
X148945238Y-110087619D01*
X148983333Y-110163809D01*
X149059523Y-110201904D01*
X149173809Y-110201904D01*
X149250000Y-110163809D01*
X149288095Y-110125714D01*
X149669047Y-109668571D02*
X149669047Y-110201904D01*
X149669047Y-109744761D02*
X149707142Y-109706666D01*
X149783333Y-109668571D01*
X149897619Y-109668571D01*
X149973809Y-109706666D01*
X150011904Y-109782857D01*
X150011904Y-110201904D01*
X150735714Y-110201904D02*
X150735714Y-109401904D01*
X150735714Y-110163809D02*
X150659523Y-110201904D01*
X150507142Y-110201904D01*
X150430952Y-110163809D01*
X150392857Y-110125714D01*
X150354761Y-110049523D01*
X150354761Y-109820952D01*
X150392857Y-109744761D01*
X150430952Y-109706666D01*
X150507142Y-109668571D01*
X150659523Y-109668571D01*
X150735714Y-109706666D01*
X151421428Y-110163809D02*
X151345238Y-110201904D01*
X151192857Y-110201904D01*
X151116666Y-110163809D01*
X151078571Y-110087619D01*
X151078571Y-109782857D01*
X151116666Y-109706666D01*
X151192857Y-109668571D01*
X151345238Y-109668571D01*
X151421428Y-109706666D01*
X151459523Y-109782857D01*
X151459523Y-109859047D01*
X151078571Y-109935238D01*
X151802380Y-110201904D02*
X151802380Y-109668571D01*
X151802380Y-109820952D02*
X151840476Y-109744761D01*
X151878571Y-109706666D01*
X151954761Y-109668571D01*
X152030952Y-109668571D01*
X153364285Y-110125714D02*
X153326190Y-110163809D01*
X153211904Y-110201904D01*
X153135714Y-110201904D01*
X153021428Y-110163809D01*
X152945238Y-110087619D01*
X152907142Y-110011428D01*
X152869047Y-109859047D01*
X152869047Y-109744761D01*
X152907142Y-109592380D01*
X152945238Y-109516190D01*
X153021428Y-109440000D01*
X153135714Y-109401904D01*
X153211904Y-109401904D01*
X153326190Y-109440000D01*
X153364285Y-109478095D01*
X153707142Y-109782857D02*
X153973809Y-109782857D01*
X154088095Y-110201904D02*
X153707142Y-110201904D01*
X153707142Y-109401904D01*
X154088095Y-109401904D01*
X154888095Y-110201904D02*
X154621428Y-109820952D01*
X154430952Y-110201904D02*
X154430952Y-109401904D01*
X154735714Y-109401904D01*
X154811904Y-109440000D01*
X154850000Y-109478095D01*
X154888095Y-109554285D01*
X154888095Y-109668571D01*
X154850000Y-109744761D01*
X154811904Y-109782857D01*
X154735714Y-109820952D01*
X154430952Y-109820952D01*
X155230952Y-110201904D02*
X155230952Y-109401904D01*
X155688095Y-110201904D01*
X155688095Y-109401904D01*
X156830952Y-109401904D02*
X156983333Y-109401904D01*
X157059523Y-109440000D01*
X157135714Y-109516190D01*
X157173809Y-109668571D01*
X157173809Y-109935238D01*
X157135714Y-110087619D01*
X157059523Y-110163809D01*
X156983333Y-110201904D01*
X156830952Y-110201904D01*
X156754761Y-110163809D01*
X156678571Y-110087619D01*
X156640476Y-109935238D01*
X156640476Y-109668571D01*
X156678571Y-109516190D01*
X156754761Y-109440000D01*
X156830952Y-109401904D01*
X157516666Y-110201904D02*
X157516666Y-109401904D01*
X157516666Y-109782857D02*
X157973809Y-109782857D01*
X157973809Y-110201904D02*
X157973809Y-109401904D01*
X158735714Y-110201904D02*
X158354761Y-110201904D01*
X158354761Y-109401904D01*
X159535714Y-109668571D02*
X159726190Y-110201904D01*
X159916666Y-109668571D01*
X160640476Y-110201904D02*
X160183333Y-110201904D01*
X160411904Y-110201904D02*
X160411904Y-109401904D01*
X160335714Y-109516190D01*
X160259523Y-109592380D01*
X160183333Y-109630476D01*
X160983333Y-110125714D02*
X161021428Y-110163809D01*
X160983333Y-110201904D01*
X160945238Y-110163809D01*
X160983333Y-110125714D01*
X160983333Y-110201904D01*
X161326190Y-109478095D02*
X161364285Y-109440000D01*
X161440476Y-109401904D01*
X161630952Y-109401904D01*
X161707142Y-109440000D01*
X161745238Y-109478095D01*
X161783333Y-109554285D01*
X161783333Y-109630476D01*
X161745238Y-109744761D01*
X161288095Y-110201904D01*
X161783333Y-110201904D01*
X144888095Y-110988571D02*
X144888095Y-111636190D01*
X144850000Y-111712380D01*
X144811904Y-111750476D01*
X144735714Y-111788571D01*
X144621428Y-111788571D01*
X144545238Y-111750476D01*
X144888095Y-111483809D02*
X144811904Y-111521904D01*
X144659523Y-111521904D01*
X144583333Y-111483809D01*
X144545238Y-111445714D01*
X144507142Y-111369523D01*
X144507142Y-111140952D01*
X144545238Y-111064761D01*
X144583333Y-111026666D01*
X144659523Y-110988571D01*
X144811904Y-110988571D01*
X144888095Y-111026666D01*
X145269047Y-111521904D02*
X145269047Y-110988571D01*
X145269047Y-110721904D02*
X145230952Y-110760000D01*
X145269047Y-110798095D01*
X145307142Y-110760000D01*
X145269047Y-110721904D01*
X145269047Y-110798095D01*
X145535714Y-110988571D02*
X145840476Y-110988571D01*
X145650000Y-110721904D02*
X145650000Y-111407619D01*
X145688095Y-111483809D01*
X145764285Y-111521904D01*
X145840476Y-111521904D01*
X146107142Y-111521904D02*
X146107142Y-110721904D01*
X146450000Y-111521904D02*
X146450000Y-111102857D01*
X146411904Y-111026666D01*
X146335714Y-110988571D01*
X146221428Y-110988571D01*
X146145238Y-111026666D01*
X146107142Y-111064761D01*
X147173809Y-110988571D02*
X147173809Y-111521904D01*
X146830952Y-110988571D02*
X146830952Y-111407619D01*
X146869047Y-111483809D01*
X146945238Y-111521904D01*
X147059523Y-111521904D01*
X147135714Y-111483809D01*
X147173809Y-111445714D01*
X147554761Y-111521904D02*
X147554761Y-110721904D01*
X147554761Y-111026666D02*
X147630952Y-110988571D01*
X147783333Y-110988571D01*
X147859523Y-111026666D01*
X147897619Y-111064761D01*
X147935714Y-111140952D01*
X147935714Y-111369523D01*
X147897619Y-111445714D01*
X147859523Y-111483809D01*
X147783333Y-111521904D01*
X147630952Y-111521904D01*
X147554761Y-111483809D01*
X148278571Y-111445714D02*
X148316666Y-111483809D01*
X148278571Y-111521904D01*
X148240476Y-111483809D01*
X148278571Y-111445714D01*
X148278571Y-111521904D01*
X149002380Y-111483809D02*
X148926190Y-111521904D01*
X148773809Y-111521904D01*
X148697619Y-111483809D01*
X148659523Y-111445714D01*
X148621428Y-111369523D01*
X148621428Y-111140952D01*
X148659523Y-111064761D01*
X148697619Y-111026666D01*
X148773809Y-110988571D01*
X148926190Y-110988571D01*
X149002380Y-111026666D01*
X149459523Y-111521904D02*
X149383333Y-111483809D01*
X149345238Y-111445714D01*
X149307142Y-111369523D01*
X149307142Y-111140952D01*
X149345238Y-111064761D01*
X149383333Y-111026666D01*
X149459523Y-110988571D01*
X149573809Y-110988571D01*
X149650000Y-111026666D01*
X149688095Y-111064761D01*
X149726190Y-111140952D01*
X149726190Y-111369523D01*
X149688095Y-111445714D01*
X149650000Y-111483809D01*
X149573809Y-111521904D01*
X149459523Y-111521904D01*
X150069047Y-111521904D02*
X150069047Y-110988571D01*
X150069047Y-111064761D02*
X150107142Y-111026666D01*
X150183333Y-110988571D01*
X150297619Y-110988571D01*
X150373809Y-111026666D01*
X150411904Y-111102857D01*
X150411904Y-111521904D01*
X150411904Y-111102857D02*
X150450000Y-111026666D01*
X150526190Y-110988571D01*
X150640476Y-110988571D01*
X150716666Y-111026666D01*
X150754761Y-111102857D01*
X150754761Y-111521904D01*
X151707142Y-110683809D02*
X151021428Y-111712380D01*
X152316666Y-111521904D02*
X152316666Y-111102857D01*
X152278571Y-111026666D01*
X152202380Y-110988571D01*
X152050000Y-110988571D01*
X151973809Y-111026666D01*
X152316666Y-111483809D02*
X152240476Y-111521904D01*
X152050000Y-111521904D01*
X151973809Y-111483809D01*
X151935714Y-111407619D01*
X151935714Y-111331428D01*
X151973809Y-111255238D01*
X152050000Y-111217142D01*
X152240476Y-111217142D01*
X152316666Y-111179047D01*
X152697619Y-111217142D02*
X153307142Y-111217142D01*
X153611904Y-110988571D02*
X153764285Y-111521904D01*
X153916666Y-111140952D01*
X154069047Y-111521904D01*
X154221428Y-110988571D01*
X154869047Y-111521904D02*
X154869047Y-111102857D01*
X154830952Y-111026666D01*
X154754761Y-110988571D01*
X154602380Y-110988571D01*
X154526190Y-111026666D01*
X154869047Y-111483809D02*
X154792857Y-111521904D01*
X154602380Y-111521904D01*
X154526190Y-111483809D01*
X154488095Y-111407619D01*
X154488095Y-111331428D01*
X154526190Y-111255238D01*
X154602380Y-111217142D01*
X154792857Y-111217142D01*
X154869047Y-111179047D01*
X155250000Y-111521904D02*
X155250000Y-110988571D01*
X155250000Y-110721904D02*
X155211904Y-110760000D01*
X155250000Y-110798095D01*
X155288095Y-110760000D01*
X155250000Y-110721904D01*
X155250000Y-110798095D01*
X156202380Y-110683809D02*
X155516666Y-111712380D01*
X156354761Y-110988571D02*
X156659523Y-110988571D01*
X156469047Y-110721904D02*
X156469047Y-111407619D01*
X156507142Y-111483809D01*
X156583333Y-111521904D01*
X156659523Y-111521904D01*
X156926190Y-111521904D02*
X156926190Y-110721904D01*
X157269047Y-111521904D02*
X157269047Y-111102857D01*
X157230952Y-111026666D01*
X157154761Y-110988571D01*
X157040476Y-110988571D01*
X156964285Y-111026666D01*
X156926190Y-111064761D01*
X157954761Y-111483809D02*
X157878571Y-111521904D01*
X157726190Y-111521904D01*
X157650000Y-111483809D01*
X157611904Y-111407619D01*
X157611904Y-111102857D01*
X157650000Y-111026666D01*
X157726190Y-110988571D01*
X157878571Y-110988571D01*
X157954761Y-111026666D01*
X157992857Y-111102857D01*
X157992857Y-111179047D01*
X157611904Y-111255238D01*
X158335714Y-111521904D02*
X158335714Y-110988571D01*
X158335714Y-111140952D02*
X158373809Y-111064761D01*
X158411904Y-111026666D01*
X158488095Y-110988571D01*
X158564285Y-110988571D01*
X158945238Y-111521904D02*
X158869047Y-111483809D01*
X158830952Y-111445714D01*
X158792857Y-111369523D01*
X158792857Y-111140952D01*
X158830952Y-111064761D01*
X158869047Y-111026666D01*
X158945238Y-110988571D01*
X159059523Y-110988571D01*
X159135714Y-111026666D01*
X159173809Y-111064761D01*
X159211904Y-111140952D01*
X159211904Y-111369523D01*
X159173809Y-111445714D01*
X159135714Y-111483809D01*
X159059523Y-111521904D01*
X158945238Y-111521904D01*
X159669047Y-111521904D02*
X159592857Y-111483809D01*
X159554761Y-111445714D01*
X159516666Y-111369523D01*
X159516666Y-111140952D01*
X159554761Y-111064761D01*
X159592857Y-111026666D01*
X159669047Y-110988571D01*
X159783333Y-110988571D01*
X159859523Y-111026666D01*
X159897619Y-111064761D01*
X159935714Y-111140952D01*
X159935714Y-111369523D01*
X159897619Y-111445714D01*
X159859523Y-111483809D01*
X159783333Y-111521904D01*
X159669047Y-111521904D01*
X160164285Y-110988571D02*
X160469047Y-110988571D01*
X160278571Y-111521904D02*
X160278571Y-110836190D01*
X160316666Y-110760000D01*
X160392857Y-110721904D01*
X160469047Y-110721904D01*
D12*
G36*
X180653910Y-63742348D02*
G01*
X180732454Y-63742778D01*
X180789298Y-63743942D01*
X180828105Y-63746207D01*
X180852538Y-63749940D01*
X180866262Y-63755506D01*
X180872940Y-63763273D01*
X180876236Y-63773605D01*
X180876556Y-63774943D01*
X180881562Y-63799079D01*
X180890829Y-63846701D01*
X180903392Y-63912741D01*
X180918287Y-63992128D01*
X180934551Y-64079796D01*
X180935119Y-64082875D01*
X180951410Y-64168789D01*
X180966652Y-64244696D01*
X180979861Y-64306045D01*
X180990054Y-64348282D01*
X180996248Y-64366855D01*
X180996543Y-64367184D01*
X181014788Y-64376253D01*
X181052405Y-64391367D01*
X181101271Y-64409262D01*
X181101543Y-64409358D01*
X181163093Y-64432493D01*
X181235657Y-64461965D01*
X181304057Y-64491597D01*
X181307294Y-64493062D01*
X181418702Y-64543626D01*
X181665399Y-64375160D01*
X181741077Y-64323803D01*
X181809631Y-64277889D01*
X181867088Y-64240030D01*
X181909476Y-64212837D01*
X181932825Y-64198921D01*
X181935042Y-64197889D01*
X181952010Y-64202484D01*
X181983701Y-64224655D01*
X182031352Y-64265447D01*
X182096198Y-64325905D01*
X182162397Y-64390227D01*
X182226214Y-64453612D01*
X182283329Y-64511451D01*
X182330305Y-64560175D01*
X182363703Y-64596210D01*
X182380085Y-64615984D01*
X182380694Y-64617002D01*
X182382505Y-64630572D01*
X182375683Y-64652733D01*
X182358540Y-64686478D01*
X182329393Y-64734800D01*
X182286555Y-64800692D01*
X182229448Y-64885517D01*
X182178766Y-64960177D01*
X182133461Y-65027140D01*
X182096150Y-65082516D01*
X182069452Y-65122420D01*
X182055985Y-65142962D01*
X182055137Y-65144356D01*
X182056781Y-65164038D01*
X182069245Y-65202293D01*
X182090048Y-65251889D01*
X182097462Y-65267728D01*
X182129814Y-65338290D01*
X182164328Y-65418353D01*
X182192365Y-65487629D01*
X182212568Y-65539045D01*
X182228615Y-65578119D01*
X182237888Y-65598541D01*
X182239041Y-65600114D01*
X182256096Y-65602721D01*
X182296298Y-65609863D01*
X182354302Y-65620523D01*
X182424763Y-65633685D01*
X182502335Y-65648333D01*
X182581672Y-65663449D01*
X182657431Y-65678018D01*
X182724264Y-65691022D01*
X182776828Y-65701445D01*
X182809776Y-65708270D01*
X182817857Y-65710199D01*
X182826205Y-65714962D01*
X182832506Y-65725718D01*
X182837045Y-65746098D01*
X182840104Y-65779734D01*
X182841967Y-65830255D01*
X182842918Y-65901292D01*
X182843240Y-65996476D01*
X182843257Y-66035492D01*
X182843257Y-66352799D01*
X182767057Y-66367839D01*
X182724663Y-66375995D01*
X182661400Y-66387899D01*
X182584962Y-66402116D01*
X182503043Y-66417210D01*
X182480400Y-66421355D01*
X182404806Y-66436053D01*
X182338953Y-66450505D01*
X182288366Y-66463375D01*
X182258574Y-66473322D01*
X182253612Y-66476287D01*
X182241426Y-66497283D01*
X182223953Y-66537967D01*
X182204577Y-66590322D01*
X182200734Y-66601600D01*
X182175339Y-66671523D01*
X182143817Y-66750418D01*
X182112969Y-66821266D01*
X182112817Y-66821595D01*
X182061447Y-66932733D01*
X182230399Y-67181253D01*
X182399352Y-67429772D01*
X182182429Y-67647058D01*
X182116819Y-67711726D01*
X182056979Y-67768733D01*
X182006267Y-67815033D01*
X181968046Y-67847584D01*
X181945675Y-67863343D01*
X181942466Y-67864343D01*
X181923626Y-67856469D01*
X181885180Y-67834578D01*
X181831330Y-67801267D01*
X181766276Y-67759131D01*
X181695940Y-67711943D01*
X181624555Y-67663810D01*
X181560908Y-67621928D01*
X181509041Y-67588871D01*
X181472995Y-67567218D01*
X181456867Y-67559543D01*
X181437189Y-67566037D01*
X181399875Y-67583150D01*
X181352621Y-67607326D01*
X181347612Y-67610013D01*
X181283977Y-67641927D01*
X181240341Y-67657579D01*
X181213202Y-67657745D01*
X181199057Y-67643204D01*
X181198975Y-67643000D01*
X181191905Y-67625779D01*
X181175042Y-67584899D01*
X181149695Y-67523525D01*
X181117171Y-67444819D01*
X181078778Y-67351947D01*
X181035822Y-67248072D01*
X180994222Y-67147502D01*
X180948504Y-67036516D01*
X180906526Y-66933703D01*
X180869548Y-66842215D01*
X180838827Y-66765201D01*
X180815622Y-66705815D01*
X180801190Y-66667209D01*
X180796743Y-66652800D01*
X180807896Y-66636272D01*
X180837069Y-66609930D01*
X180875971Y-66580887D01*
X180986757Y-66489039D01*
X181073351Y-66383759D01*
X181134716Y-66267266D01*
X181169815Y-66141776D01*
X181177608Y-66009507D01*
X181171943Y-65948457D01*
X181141078Y-65821795D01*
X181087920Y-65709941D01*
X181015767Y-65614001D01*
X180927917Y-65535076D01*
X180827665Y-65474270D01*
X180718310Y-65432687D01*
X180603147Y-65411428D01*
X180485475Y-65411599D01*
X180368590Y-65434301D01*
X180255789Y-65480638D01*
X180150369Y-65551713D01*
X180106368Y-65591911D01*
X180021979Y-65695129D01*
X179963222Y-65807925D01*
X179929704Y-65927010D01*
X179921035Y-66049095D01*
X179936823Y-66170893D01*
X179976678Y-66289116D01*
X180040207Y-66400475D01*
X180127021Y-66501684D01*
X180224029Y-66580887D01*
X180264437Y-66611162D01*
X180292982Y-66637219D01*
X180303257Y-66652825D01*
X180297877Y-66669843D01*
X180282575Y-66710500D01*
X180258612Y-66771642D01*
X180227244Y-66850119D01*
X180189732Y-66942780D01*
X180147333Y-67046472D01*
X180105663Y-67147526D01*
X180059690Y-67258607D01*
X180017107Y-67361541D01*
X179979221Y-67453165D01*
X179947340Y-67530316D01*
X179922771Y-67589831D01*
X179906820Y-67628544D01*
X179900910Y-67643000D01*
X179886948Y-67657685D01*
X179859940Y-67657642D01*
X179816413Y-67642099D01*
X179752890Y-67610284D01*
X179752388Y-67610013D01*
X179704560Y-67585323D01*
X179665897Y-67567338D01*
X179644095Y-67559614D01*
X179643133Y-67559543D01*
X179626721Y-67567378D01*
X179590487Y-67589165D01*
X179538474Y-67622328D01*
X179474725Y-67664291D01*
X179404060Y-67711943D01*
X179332116Y-67760191D01*
X179267274Y-67802151D01*
X179213735Y-67835227D01*
X179175697Y-67856821D01*
X179157533Y-67864343D01*
X179140808Y-67854457D01*
X179107180Y-67826826D01*
X179060010Y-67784495D01*
X179002658Y-67730505D01*
X178938484Y-67667899D01*
X178917497Y-67646983D01*
X178700499Y-67429623D01*
X178865668Y-67187220D01*
X178915864Y-67112781D01*
X178959919Y-67045972D01*
X178995362Y-66990665D01*
X179019719Y-66950729D01*
X179030522Y-66930036D01*
X179030838Y-66928563D01*
X179025143Y-66909058D01*
X179009826Y-66869822D01*
X178987537Y-66817430D01*
X178971893Y-66782355D01*
X178942641Y-66715201D01*
X178915094Y-66647358D01*
X178893737Y-66590034D01*
X178887935Y-66572572D01*
X178871452Y-66525938D01*
X178855340Y-66489905D01*
X178846490Y-66476287D01*
X178826960Y-66467952D01*
X178784334Y-66456137D01*
X178724145Y-66442181D01*
X178651922Y-66427422D01*
X178619600Y-66421355D01*
X178537522Y-66406273D01*
X178458795Y-66391669D01*
X178391109Y-66378980D01*
X178342160Y-66369642D01*
X178332943Y-66367839D01*
X178256743Y-66352799D01*
X178256743Y-66035492D01*
X178256914Y-65931154D01*
X178257616Y-65852213D01*
X178259134Y-65795038D01*
X178261749Y-65755999D01*
X178265746Y-65731465D01*
X178271409Y-65717805D01*
X178279020Y-65711389D01*
X178282143Y-65710199D01*
X178300978Y-65705980D01*
X178342588Y-65697562D01*
X178401630Y-65685961D01*
X178472757Y-65672195D01*
X178550625Y-65657280D01*
X178629887Y-65642232D01*
X178705198Y-65628069D01*
X178771213Y-65615806D01*
X178822587Y-65606461D01*
X178853975Y-65601050D01*
X178860959Y-65600114D01*
X178867285Y-65587596D01*
X178881290Y-65554246D01*
X178900355Y-65506377D01*
X178907634Y-65487629D01*
X178936996Y-65415195D01*
X178971571Y-65335170D01*
X179002537Y-65267728D01*
X179025323Y-65216159D01*
X179040482Y-65173785D01*
X179045542Y-65147834D01*
X179044736Y-65144356D01*
X179034041Y-65127936D01*
X179009620Y-65091417D01*
X178974095Y-65038687D01*
X178930087Y-64973635D01*
X178880217Y-64900151D01*
X178870356Y-64885645D01*
X178812492Y-64799704D01*
X178769956Y-64734261D01*
X178741054Y-64686304D01*
X178724090Y-64652820D01*
X178717367Y-64630795D01*
X178719190Y-64617217D01*
X178719236Y-64617131D01*
X178733586Y-64599297D01*
X178765323Y-64564817D01*
X178811010Y-64517268D01*
X178867204Y-64460222D01*
X178930468Y-64397255D01*
X178937602Y-64390227D01*
X179017330Y-64313020D01*
X179078857Y-64256330D01*
X179123421Y-64219110D01*
X179152257Y-64200315D01*
X179164958Y-64197889D01*
X179183494Y-64208471D01*
X179221961Y-64232916D01*
X179276386Y-64268612D01*
X179342798Y-64312947D01*
X179417225Y-64363311D01*
X179434601Y-64375160D01*
X179681297Y-64543626D01*
X179792706Y-64493062D01*
X179860457Y-64463595D01*
X179933183Y-64433959D01*
X179995703Y-64410330D01*
X179998457Y-64409358D01*
X180047360Y-64391457D01*
X180085057Y-64376320D01*
X180103425Y-64367210D01*
X180103456Y-64367184D01*
X180109285Y-64350717D01*
X180119192Y-64310219D01*
X180132195Y-64250242D01*
X180147309Y-64175340D01*
X180163552Y-64090064D01*
X180164881Y-64082875D01*
X180181175Y-63995014D01*
X180196133Y-63915260D01*
X180208791Y-63848681D01*
X180218186Y-63800347D01*
X180223354Y-63775325D01*
X180223444Y-63774943D01*
X180226589Y-63764299D01*
X180232704Y-63756262D01*
X180245453Y-63750467D01*
X180268500Y-63746547D01*
X180305509Y-63744135D01*
X180360144Y-63742865D01*
X180436067Y-63742371D01*
X180536944Y-63742286D01*
X180550000Y-63742286D01*
X180653910Y-63742348D01*
X180653910Y-63742348D01*
G37*
X180653910Y-63742348D02*
X180732454Y-63742778D01*
X180789298Y-63743942D01*
X180828105Y-63746207D01*
X180852538Y-63749940D01*
X180866262Y-63755506D01*
X180872940Y-63763273D01*
X180876236Y-63773605D01*
X180876556Y-63774943D01*
X180881562Y-63799079D01*
X180890829Y-63846701D01*
X180903392Y-63912741D01*
X180918287Y-63992128D01*
X180934551Y-64079796D01*
X180935119Y-64082875D01*
X180951410Y-64168789D01*
X180966652Y-64244696D01*
X180979861Y-64306045D01*
X180990054Y-64348282D01*
X180996248Y-64366855D01*
X180996543Y-64367184D01*
X181014788Y-64376253D01*
X181052405Y-64391367D01*
X181101271Y-64409262D01*
X181101543Y-64409358D01*
X181163093Y-64432493D01*
X181235657Y-64461965D01*
X181304057Y-64491597D01*
X181307294Y-64493062D01*
X181418702Y-64543626D01*
X181665399Y-64375160D01*
X181741077Y-64323803D01*
X181809631Y-64277889D01*
X181867088Y-64240030D01*
X181909476Y-64212837D01*
X181932825Y-64198921D01*
X181935042Y-64197889D01*
X181952010Y-64202484D01*
X181983701Y-64224655D01*
X182031352Y-64265447D01*
X182096198Y-64325905D01*
X182162397Y-64390227D01*
X182226214Y-64453612D01*
X182283329Y-64511451D01*
X182330305Y-64560175D01*
X182363703Y-64596210D01*
X182380085Y-64615984D01*
X182380694Y-64617002D01*
X182382505Y-64630572D01*
X182375683Y-64652733D01*
X182358540Y-64686478D01*
X182329393Y-64734800D01*
X182286555Y-64800692D01*
X182229448Y-64885517D01*
X182178766Y-64960177D01*
X182133461Y-65027140D01*
X182096150Y-65082516D01*
X182069452Y-65122420D01*
X182055985Y-65142962D01*
X182055137Y-65144356D01*
X182056781Y-65164038D01*
X182069245Y-65202293D01*
X182090048Y-65251889D01*
X182097462Y-65267728D01*
X182129814Y-65338290D01*
X182164328Y-65418353D01*
X182192365Y-65487629D01*
X182212568Y-65539045D01*
X182228615Y-65578119D01*
X182237888Y-65598541D01*
X182239041Y-65600114D01*
X182256096Y-65602721D01*
X182296298Y-65609863D01*
X182354302Y-65620523D01*
X182424763Y-65633685D01*
X182502335Y-65648333D01*
X182581672Y-65663449D01*
X182657431Y-65678018D01*
X182724264Y-65691022D01*
X182776828Y-65701445D01*
X182809776Y-65708270D01*
X182817857Y-65710199D01*
X182826205Y-65714962D01*
X182832506Y-65725718D01*
X182837045Y-65746098D01*
X182840104Y-65779734D01*
X182841967Y-65830255D01*
X182842918Y-65901292D01*
X182843240Y-65996476D01*
X182843257Y-66035492D01*
X182843257Y-66352799D01*
X182767057Y-66367839D01*
X182724663Y-66375995D01*
X182661400Y-66387899D01*
X182584962Y-66402116D01*
X182503043Y-66417210D01*
X182480400Y-66421355D01*
X182404806Y-66436053D01*
X182338953Y-66450505D01*
X182288366Y-66463375D01*
X182258574Y-66473322D01*
X182253612Y-66476287D01*
X182241426Y-66497283D01*
X182223953Y-66537967D01*
X182204577Y-66590322D01*
X182200734Y-66601600D01*
X182175339Y-66671523D01*
X182143817Y-66750418D01*
X182112969Y-66821266D01*
X182112817Y-66821595D01*
X182061447Y-66932733D01*
X182230399Y-67181253D01*
X182399352Y-67429772D01*
X182182429Y-67647058D01*
X182116819Y-67711726D01*
X182056979Y-67768733D01*
X182006267Y-67815033D01*
X181968046Y-67847584D01*
X181945675Y-67863343D01*
X181942466Y-67864343D01*
X181923626Y-67856469D01*
X181885180Y-67834578D01*
X181831330Y-67801267D01*
X181766276Y-67759131D01*
X181695940Y-67711943D01*
X181624555Y-67663810D01*
X181560908Y-67621928D01*
X181509041Y-67588871D01*
X181472995Y-67567218D01*
X181456867Y-67559543D01*
X181437189Y-67566037D01*
X181399875Y-67583150D01*
X181352621Y-67607326D01*
X181347612Y-67610013D01*
X181283977Y-67641927D01*
X181240341Y-67657579D01*
X181213202Y-67657745D01*
X181199057Y-67643204D01*
X181198975Y-67643000D01*
X181191905Y-67625779D01*
X181175042Y-67584899D01*
X181149695Y-67523525D01*
X181117171Y-67444819D01*
X181078778Y-67351947D01*
X181035822Y-67248072D01*
X180994222Y-67147502D01*
X180948504Y-67036516D01*
X180906526Y-66933703D01*
X180869548Y-66842215D01*
X180838827Y-66765201D01*
X180815622Y-66705815D01*
X180801190Y-66667209D01*
X180796743Y-66652800D01*
X180807896Y-66636272D01*
X180837069Y-66609930D01*
X180875971Y-66580887D01*
X180986757Y-66489039D01*
X181073351Y-66383759D01*
X181134716Y-66267266D01*
X181169815Y-66141776D01*
X181177608Y-66009507D01*
X181171943Y-65948457D01*
X181141078Y-65821795D01*
X181087920Y-65709941D01*
X181015767Y-65614001D01*
X180927917Y-65535076D01*
X180827665Y-65474270D01*
X180718310Y-65432687D01*
X180603147Y-65411428D01*
X180485475Y-65411599D01*
X180368590Y-65434301D01*
X180255789Y-65480638D01*
X180150369Y-65551713D01*
X180106368Y-65591911D01*
X180021979Y-65695129D01*
X179963222Y-65807925D01*
X179929704Y-65927010D01*
X179921035Y-66049095D01*
X179936823Y-66170893D01*
X179976678Y-66289116D01*
X180040207Y-66400475D01*
X180127021Y-66501684D01*
X180224029Y-66580887D01*
X180264437Y-66611162D01*
X180292982Y-66637219D01*
X180303257Y-66652825D01*
X180297877Y-66669843D01*
X180282575Y-66710500D01*
X180258612Y-66771642D01*
X180227244Y-66850119D01*
X180189732Y-66942780D01*
X180147333Y-67046472D01*
X180105663Y-67147526D01*
X180059690Y-67258607D01*
X180017107Y-67361541D01*
X179979221Y-67453165D01*
X179947340Y-67530316D01*
X179922771Y-67589831D01*
X179906820Y-67628544D01*
X179900910Y-67643000D01*
X179886948Y-67657685D01*
X179859940Y-67657642D01*
X179816413Y-67642099D01*
X179752890Y-67610284D01*
X179752388Y-67610013D01*
X179704560Y-67585323D01*
X179665897Y-67567338D01*
X179644095Y-67559614D01*
X179643133Y-67559543D01*
X179626721Y-67567378D01*
X179590487Y-67589165D01*
X179538474Y-67622328D01*
X179474725Y-67664291D01*
X179404060Y-67711943D01*
X179332116Y-67760191D01*
X179267274Y-67802151D01*
X179213735Y-67835227D01*
X179175697Y-67856821D01*
X179157533Y-67864343D01*
X179140808Y-67854457D01*
X179107180Y-67826826D01*
X179060010Y-67784495D01*
X179002658Y-67730505D01*
X178938484Y-67667899D01*
X178917497Y-67646983D01*
X178700499Y-67429623D01*
X178865668Y-67187220D01*
X178915864Y-67112781D01*
X178959919Y-67045972D01*
X178995362Y-66990665D01*
X179019719Y-66950729D01*
X179030522Y-66930036D01*
X179030838Y-66928563D01*
X179025143Y-66909058D01*
X179009826Y-66869822D01*
X178987537Y-66817430D01*
X178971893Y-66782355D01*
X178942641Y-66715201D01*
X178915094Y-66647358D01*
X178893737Y-66590034D01*
X178887935Y-66572572D01*
X178871452Y-66525938D01*
X178855340Y-66489905D01*
X178846490Y-66476287D01*
X178826960Y-66467952D01*
X178784334Y-66456137D01*
X178724145Y-66442181D01*
X178651922Y-66427422D01*
X178619600Y-66421355D01*
X178537522Y-66406273D01*
X178458795Y-66391669D01*
X178391109Y-66378980D01*
X178342160Y-66369642D01*
X178332943Y-66367839D01*
X178256743Y-66352799D01*
X178256743Y-66035492D01*
X178256914Y-65931154D01*
X178257616Y-65852213D01*
X178259134Y-65795038D01*
X178261749Y-65755999D01*
X178265746Y-65731465D01*
X178271409Y-65717805D01*
X178279020Y-65711389D01*
X178282143Y-65710199D01*
X178300978Y-65705980D01*
X178342588Y-65697562D01*
X178401630Y-65685961D01*
X178472757Y-65672195D01*
X178550625Y-65657280D01*
X178629887Y-65642232D01*
X178705198Y-65628069D01*
X178771213Y-65615806D01*
X178822587Y-65606461D01*
X178853975Y-65601050D01*
X178860959Y-65600114D01*
X178867285Y-65587596D01*
X178881290Y-65554246D01*
X178900355Y-65506377D01*
X178907634Y-65487629D01*
X178936996Y-65415195D01*
X178971571Y-65335170D01*
X179002537Y-65267728D01*
X179025323Y-65216159D01*
X179040482Y-65173785D01*
X179045542Y-65147834D01*
X179044736Y-65144356D01*
X179034041Y-65127936D01*
X179009620Y-65091417D01*
X178974095Y-65038687D01*
X178930087Y-64973635D01*
X178880217Y-64900151D01*
X178870356Y-64885645D01*
X178812492Y-64799704D01*
X178769956Y-64734261D01*
X178741054Y-64686304D01*
X178724090Y-64652820D01*
X178717367Y-64630795D01*
X178719190Y-64617217D01*
X178719236Y-64617131D01*
X178733586Y-64599297D01*
X178765323Y-64564817D01*
X178811010Y-64517268D01*
X178867204Y-64460222D01*
X178930468Y-64397255D01*
X178937602Y-64390227D01*
X179017330Y-64313020D01*
X179078857Y-64256330D01*
X179123421Y-64219110D01*
X179152257Y-64200315D01*
X179164958Y-64197889D01*
X179183494Y-64208471D01*
X179221961Y-64232916D01*
X179276386Y-64268612D01*
X179342798Y-64312947D01*
X179417225Y-64363311D01*
X179434601Y-64375160D01*
X179681297Y-64543626D01*
X179792706Y-64493062D01*
X179860457Y-64463595D01*
X179933183Y-64433959D01*
X179995703Y-64410330D01*
X179998457Y-64409358D01*
X180047360Y-64391457D01*
X180085057Y-64376320D01*
X180103425Y-64367210D01*
X180103456Y-64367184D01*
X180109285Y-64350717D01*
X180119192Y-64310219D01*
X180132195Y-64250242D01*
X180147309Y-64175340D01*
X180163552Y-64090064D01*
X180164881Y-64082875D01*
X180181175Y-63995014D01*
X180196133Y-63915260D01*
X180208791Y-63848681D01*
X180218186Y-63800347D01*
X180223354Y-63775325D01*
X180223444Y-63774943D01*
X180226589Y-63764299D01*
X180232704Y-63756262D01*
X180245453Y-63750467D01*
X180268500Y-63746547D01*
X180305509Y-63744135D01*
X180360144Y-63742865D01*
X180436067Y-63742371D01*
X180536944Y-63742286D01*
X180550000Y-63742286D01*
X180653910Y-63742348D01*
G36*
X183703595Y-68466966D02*
G01*
X183761021Y-68504497D01*
X183788719Y-68538096D01*
X183810662Y-68599064D01*
X183812405Y-68647308D01*
X183808457Y-68711816D01*
X183659686Y-68776934D01*
X183587349Y-68810202D01*
X183540084Y-68836964D01*
X183515507Y-68860144D01*
X183511237Y-68882667D01*
X183524889Y-68907455D01*
X183539943Y-68923886D01*
X183583746Y-68950235D01*
X183631389Y-68952081D01*
X183675145Y-68931546D01*
X183707289Y-68890752D01*
X183713038Y-68876347D01*
X183740576Y-68831356D01*
X183772258Y-68812182D01*
X183815714Y-68795779D01*
X183815714Y-68857966D01*
X183811872Y-68900283D01*
X183796823Y-68935969D01*
X183765280Y-68976943D01*
X183760592Y-68982267D01*
X183725506Y-69018720D01*
X183695347Y-69038283D01*
X183657615Y-69047283D01*
X183626335Y-69050230D01*
X183570385Y-69050965D01*
X183530555Y-69041660D01*
X183505708Y-69027846D01*
X183466656Y-68997467D01*
X183439625Y-68964613D01*
X183422517Y-68923294D01*
X183413238Y-68867521D01*
X183409693Y-68791305D01*
X183409410Y-68752622D01*
X183410372Y-68706247D01*
X183498007Y-68706247D01*
X183499023Y-68731126D01*
X183501556Y-68735200D01*
X183518274Y-68729665D01*
X183554249Y-68715017D01*
X183602331Y-68694190D01*
X183612386Y-68689714D01*
X183673152Y-68658814D01*
X183706632Y-68631657D01*
X183713990Y-68606220D01*
X183696391Y-68580481D01*
X183681856Y-68569109D01*
X183629410Y-68546364D01*
X183580322Y-68550122D01*
X183539227Y-68577884D01*
X183510758Y-68627152D01*
X183501631Y-68666257D01*
X183498007Y-68706247D01*
X183410372Y-68706247D01*
X183411285Y-68662249D01*
X183418196Y-68595384D01*
X183431884Y-68546695D01*
X183454096Y-68510849D01*
X183486574Y-68482513D01*
X183500733Y-68473355D01*
X183565053Y-68449507D01*
X183635473Y-68448006D01*
X183703595Y-68466966D01*
X183703595Y-68466966D01*
G37*
X183703595Y-68466966D02*
X183761021Y-68504497D01*
X183788719Y-68538096D01*
X183810662Y-68599064D01*
X183812405Y-68647308D01*
X183808457Y-68711816D01*
X183659686Y-68776934D01*
X183587349Y-68810202D01*
X183540084Y-68836964D01*
X183515507Y-68860144D01*
X183511237Y-68882667D01*
X183524889Y-68907455D01*
X183539943Y-68923886D01*
X183583746Y-68950235D01*
X183631389Y-68952081D01*
X183675145Y-68931546D01*
X183707289Y-68890752D01*
X183713038Y-68876347D01*
X183740576Y-68831356D01*
X183772258Y-68812182D01*
X183815714Y-68795779D01*
X183815714Y-68857966D01*
X183811872Y-68900283D01*
X183796823Y-68935969D01*
X183765280Y-68976943D01*
X183760592Y-68982267D01*
X183725506Y-69018720D01*
X183695347Y-69038283D01*
X183657615Y-69047283D01*
X183626335Y-69050230D01*
X183570385Y-69050965D01*
X183530555Y-69041660D01*
X183505708Y-69027846D01*
X183466656Y-68997467D01*
X183439625Y-68964613D01*
X183422517Y-68923294D01*
X183413238Y-68867521D01*
X183409693Y-68791305D01*
X183409410Y-68752622D01*
X183410372Y-68706247D01*
X183498007Y-68706247D01*
X183499023Y-68731126D01*
X183501556Y-68735200D01*
X183518274Y-68729665D01*
X183554249Y-68715017D01*
X183602331Y-68694190D01*
X183612386Y-68689714D01*
X183673152Y-68658814D01*
X183706632Y-68631657D01*
X183713990Y-68606220D01*
X183696391Y-68580481D01*
X183681856Y-68569109D01*
X183629410Y-68546364D01*
X183580322Y-68550122D01*
X183539227Y-68577884D01*
X183510758Y-68627152D01*
X183501631Y-68666257D01*
X183498007Y-68706247D01*
X183410372Y-68706247D01*
X183411285Y-68662249D01*
X183418196Y-68595384D01*
X183431884Y-68546695D01*
X183454096Y-68510849D01*
X183486574Y-68482513D01*
X183500733Y-68473355D01*
X183565053Y-68449507D01*
X183635473Y-68448006D01*
X183703595Y-68466966D01*
G36*
X183202600Y-68458752D02*
G01*
X183219948Y-68466334D01*
X183261356Y-68499128D01*
X183296765Y-68546547D01*
X183318664Y-68597151D01*
X183322229Y-68622098D01*
X183310279Y-68656927D01*
X183284067Y-68675357D01*
X183255964Y-68686516D01*
X183243095Y-68688572D01*
X183236829Y-68673649D01*
X183224456Y-68641175D01*
X183219028Y-68626502D01*
X183188590Y-68575744D01*
X183144520Y-68550427D01*
X183088010Y-68551206D01*
X183083825Y-68552203D01*
X183053655Y-68566507D01*
X183031476Y-68594393D01*
X183016327Y-68639287D01*
X183007250Y-68704615D01*
X183003286Y-68793804D01*
X183002914Y-68841261D01*
X183002730Y-68916071D01*
X183001522Y-68967069D01*
X182998309Y-68999471D01*
X182992109Y-69018495D01*
X182981940Y-69029356D01*
X182966819Y-69037272D01*
X182965946Y-69037670D01*
X182936828Y-69049981D01*
X182922403Y-69054514D01*
X182920186Y-69040809D01*
X182918289Y-69002925D01*
X182916847Y-68945715D01*
X182915998Y-68874027D01*
X182915829Y-68821565D01*
X182916692Y-68720047D01*
X182920070Y-68643032D01*
X182927142Y-68586023D01*
X182939088Y-68544526D01*
X182957090Y-68514043D01*
X182982327Y-68490080D01*
X183007247Y-68473355D01*
X183067171Y-68451097D01*
X183136911Y-68446076D01*
X183202600Y-68458752D01*
X183202600Y-68458752D01*
G37*
X183202600Y-68458752D02*
X183219948Y-68466334D01*
X183261356Y-68499128D01*
X183296765Y-68546547D01*
X183318664Y-68597151D01*
X183322229Y-68622098D01*
X183310279Y-68656927D01*
X183284067Y-68675357D01*
X183255964Y-68686516D01*
X183243095Y-68688572D01*
X183236829Y-68673649D01*
X183224456Y-68641175D01*
X183219028Y-68626502D01*
X183188590Y-68575744D01*
X183144520Y-68550427D01*
X183088010Y-68551206D01*
X183083825Y-68552203D01*
X183053655Y-68566507D01*
X183031476Y-68594393D01*
X183016327Y-68639287D01*
X183007250Y-68704615D01*
X183003286Y-68793804D01*
X183002914Y-68841261D01*
X183002730Y-68916071D01*
X183001522Y-68967069D01*
X182998309Y-68999471D01*
X182992109Y-69018495D01*
X182981940Y-69029356D01*
X182966819Y-69037272D01*
X182965946Y-69037670D01*
X182936828Y-69049981D01*
X182922403Y-69054514D01*
X182920186Y-69040809D01*
X182918289Y-69002925D01*
X182916847Y-68945715D01*
X182915998Y-68874027D01*
X182915829Y-68821565D01*
X182916692Y-68720047D01*
X182920070Y-68643032D01*
X182927142Y-68586023D01*
X182939088Y-68544526D01*
X182957090Y-68514043D01*
X182982327Y-68490080D01*
X183007247Y-68473355D01*
X183067171Y-68451097D01*
X183136911Y-68446076D01*
X183202600Y-68458752D01*
G36*
X182694876Y-68456335D02*
G01*
X182736667Y-68475344D01*
X182769469Y-68498378D01*
X182793503Y-68524133D01*
X182810097Y-68557358D01*
X182820577Y-68602800D01*
X182826271Y-68665207D01*
X182828507Y-68749327D01*
X182828743Y-68804721D01*
X182828743Y-69020826D01*
X182791774Y-69037670D01*
X182762656Y-69049981D01*
X182748231Y-69054514D01*
X182745472Y-69041025D01*
X182743282Y-69004653D01*
X182741942Y-68951542D01*
X182741657Y-68909372D01*
X182740434Y-68848447D01*
X182737136Y-68800115D01*
X182732321Y-68770518D01*
X182728496Y-68764229D01*
X182702783Y-68770652D01*
X182662418Y-68787125D01*
X182615679Y-68809458D01*
X182570845Y-68833457D01*
X182536193Y-68854930D01*
X182520002Y-68869685D01*
X182519938Y-68869845D01*
X182521330Y-68897152D01*
X182533818Y-68923219D01*
X182555743Y-68944392D01*
X182587743Y-68951474D01*
X182615092Y-68950649D01*
X182653826Y-68950042D01*
X182674158Y-68959116D01*
X182686369Y-68983092D01*
X182687909Y-68987613D01*
X182693203Y-69021806D01*
X182679047Y-69042568D01*
X182642148Y-69052462D01*
X182602289Y-69054292D01*
X182530562Y-69040727D01*
X182493432Y-69021355D01*
X182447576Y-68975845D01*
X182423256Y-68919983D01*
X182421073Y-68860957D01*
X182441629Y-68805953D01*
X182472549Y-68771486D01*
X182503420Y-68752189D01*
X182551942Y-68727759D01*
X182608485Y-68702985D01*
X182617910Y-68699199D01*
X182680019Y-68671791D01*
X182715822Y-68647634D01*
X182727337Y-68623619D01*
X182716580Y-68596635D01*
X182698114Y-68575543D01*
X182654469Y-68549572D01*
X182606446Y-68547624D01*
X182562406Y-68567637D01*
X182530709Y-68607551D01*
X182526549Y-68617848D01*
X182502327Y-68655724D01*
X182466965Y-68683842D01*
X182422343Y-68706917D01*
X182422343Y-68641485D01*
X182424969Y-68601506D01*
X182436230Y-68569997D01*
X182461199Y-68536378D01*
X182485169Y-68510484D01*
X182522441Y-68473817D01*
X182551401Y-68454121D01*
X182582505Y-68446220D01*
X182617713Y-68444914D01*
X182694876Y-68456335D01*
X182694876Y-68456335D01*
G37*
X182694876Y-68456335D02*
X182736667Y-68475344D01*
X182769469Y-68498378D01*
X182793503Y-68524133D01*
X182810097Y-68557358D01*
X182820577Y-68602800D01*
X182826271Y-68665207D01*
X182828507Y-68749327D01*
X182828743Y-68804721D01*
X182828743Y-69020826D01*
X182791774Y-69037670D01*
X182762656Y-69049981D01*
X182748231Y-69054514D01*
X182745472Y-69041025D01*
X182743282Y-69004653D01*
X182741942Y-68951542D01*
X182741657Y-68909372D01*
X182740434Y-68848447D01*
X182737136Y-68800115D01*
X182732321Y-68770518D01*
X182728496Y-68764229D01*
X182702783Y-68770652D01*
X182662418Y-68787125D01*
X182615679Y-68809458D01*
X182570845Y-68833457D01*
X182536193Y-68854930D01*
X182520002Y-68869685D01*
X182519938Y-68869845D01*
X182521330Y-68897152D01*
X182533818Y-68923219D01*
X182555743Y-68944392D01*
X182587743Y-68951474D01*
X182615092Y-68950649D01*
X182653826Y-68950042D01*
X182674158Y-68959116D01*
X182686369Y-68983092D01*
X182687909Y-68987613D01*
X182693203Y-69021806D01*
X182679047Y-69042568D01*
X182642148Y-69052462D01*
X182602289Y-69054292D01*
X182530562Y-69040727D01*
X182493432Y-69021355D01*
X182447576Y-68975845D01*
X182423256Y-68919983D01*
X182421073Y-68860957D01*
X182441629Y-68805953D01*
X182472549Y-68771486D01*
X182503420Y-68752189D01*
X182551942Y-68727759D01*
X182608485Y-68702985D01*
X182617910Y-68699199D01*
X182680019Y-68671791D01*
X182715822Y-68647634D01*
X182727337Y-68623619D01*
X182716580Y-68596635D01*
X182698114Y-68575543D01*
X182654469Y-68549572D01*
X182606446Y-68547624D01*
X182562406Y-68567637D01*
X182530709Y-68607551D01*
X182526549Y-68617848D01*
X182502327Y-68655724D01*
X182466965Y-68683842D01*
X182422343Y-68706917D01*
X182422343Y-68641485D01*
X182424969Y-68601506D01*
X182436230Y-68569997D01*
X182461199Y-68536378D01*
X182485169Y-68510484D01*
X182522441Y-68473817D01*
X182551401Y-68454121D01*
X182582505Y-68446220D01*
X182617713Y-68444914D01*
X182694876Y-68456335D01*
G36*
X182329833Y-68458663D02*
G01*
X182332048Y-68496850D01*
X182333784Y-68554886D01*
X182334899Y-68628180D01*
X182335257Y-68705055D01*
X182335257Y-68965196D01*
X182289326Y-69011127D01*
X182257675Y-69039429D01*
X182229890Y-69050893D01*
X182191915Y-69050168D01*
X182176840Y-69048321D01*
X182129726Y-69042948D01*
X182090756Y-69039869D01*
X182081257Y-69039585D01*
X182049233Y-69041445D01*
X182003432Y-69046114D01*
X181985674Y-69048321D01*
X181942057Y-69051735D01*
X181912745Y-69044320D01*
X181883680Y-69021427D01*
X181873188Y-69011127D01*
X181827257Y-68965196D01*
X181827257Y-68478602D01*
X181864226Y-68461758D01*
X181896059Y-68449282D01*
X181914683Y-68444914D01*
X181919458Y-68458718D01*
X181923921Y-68497286D01*
X181927775Y-68556356D01*
X181930722Y-68631663D01*
X181932143Y-68695286D01*
X181936114Y-68945657D01*
X181970759Y-68950556D01*
X182002268Y-68947131D01*
X182017708Y-68936041D01*
X182022023Y-68915308D01*
X182025708Y-68871145D01*
X182028469Y-68809146D01*
X182030012Y-68734909D01*
X182030235Y-68696706D01*
X182030457Y-68476783D01*
X182076166Y-68460849D01*
X182108518Y-68450015D01*
X182126115Y-68444962D01*
X182126623Y-68444914D01*
X182128388Y-68458648D01*
X182130329Y-68496730D01*
X182132282Y-68554482D01*
X182134084Y-68627227D01*
X182135343Y-68695286D01*
X182139314Y-68945657D01*
X182226400Y-68945657D01*
X182230396Y-68717240D01*
X182234392Y-68488822D01*
X182276847Y-68466868D01*
X182308192Y-68451793D01*
X182326744Y-68444951D01*
X182327279Y-68444914D01*
X182329833Y-68458663D01*
X182329833Y-68458663D01*
G37*
X182329833Y-68458663D02*
X182332048Y-68496850D01*
X182333784Y-68554886D01*
X182334899Y-68628180D01*
X182335257Y-68705055D01*
X182335257Y-68965196D01*
X182289326Y-69011127D01*
X182257675Y-69039429D01*
X182229890Y-69050893D01*
X182191915Y-69050168D01*
X182176840Y-69048321D01*
X182129726Y-69042948D01*
X182090756Y-69039869D01*
X182081257Y-69039585D01*
X182049233Y-69041445D01*
X182003432Y-69046114D01*
X181985674Y-69048321D01*
X181942057Y-69051735D01*
X181912745Y-69044320D01*
X181883680Y-69021427D01*
X181873188Y-69011127D01*
X181827257Y-68965196D01*
X181827257Y-68478602D01*
X181864226Y-68461758D01*
X181896059Y-68449282D01*
X181914683Y-68444914D01*
X181919458Y-68458718D01*
X181923921Y-68497286D01*
X181927775Y-68556356D01*
X181930722Y-68631663D01*
X181932143Y-68695286D01*
X181936114Y-68945657D01*
X181970759Y-68950556D01*
X182002268Y-68947131D01*
X182017708Y-68936041D01*
X182022023Y-68915308D01*
X182025708Y-68871145D01*
X182028469Y-68809146D01*
X182030012Y-68734909D01*
X182030235Y-68696706D01*
X182030457Y-68476783D01*
X182076166Y-68460849D01*
X182108518Y-68450015D01*
X182126115Y-68444962D01*
X182126623Y-68444914D01*
X182128388Y-68458648D01*
X182130329Y-68496730D01*
X182132282Y-68554482D01*
X182134084Y-68627227D01*
X182135343Y-68695286D01*
X182139314Y-68945657D01*
X182226400Y-68945657D01*
X182230396Y-68717240D01*
X182234392Y-68488822D01*
X182276847Y-68466868D01*
X182308192Y-68451793D01*
X182326744Y-68444951D01*
X182327279Y-68444914D01*
X182329833Y-68458663D01*
G36*
X181740117Y-68565358D02*
G01*
X181739933Y-68673837D01*
X181739219Y-68757287D01*
X181737675Y-68819704D01*
X181735001Y-68865085D01*
X181730894Y-68897429D01*
X181725055Y-68920733D01*
X181717182Y-68938995D01*
X181711221Y-68949418D01*
X181661855Y-69005945D01*
X181599264Y-69041377D01*
X181530013Y-69054090D01*
X181460668Y-69042463D01*
X181419375Y-69021568D01*
X181376025Y-68985422D01*
X181346481Y-68941276D01*
X181328655Y-68883462D01*
X181320463Y-68806313D01*
X181319302Y-68749714D01*
X181319458Y-68745647D01*
X181420857Y-68745647D01*
X181421476Y-68810550D01*
X181424314Y-68853514D01*
X181430840Y-68881622D01*
X181442523Y-68901953D01*
X181456483Y-68917288D01*
X181503365Y-68946890D01*
X181553701Y-68949419D01*
X181601276Y-68924705D01*
X181604979Y-68921356D01*
X181620783Y-68903935D01*
X181630693Y-68883209D01*
X181636058Y-68852362D01*
X181638228Y-68804577D01*
X181638571Y-68751748D01*
X181637827Y-68685381D01*
X181634748Y-68641106D01*
X181628061Y-68612009D01*
X181616496Y-68591173D01*
X181607013Y-68580107D01*
X181562960Y-68552198D01*
X181512224Y-68548843D01*
X181463796Y-68570159D01*
X181454450Y-68578073D01*
X181438540Y-68595647D01*
X181428610Y-68616587D01*
X181423278Y-68647782D01*
X181421163Y-68696122D01*
X181420857Y-68745647D01*
X181319458Y-68745647D01*
X181322810Y-68658568D01*
X181334726Y-68590086D01*
X181357135Y-68538600D01*
X181392124Y-68498443D01*
X181419375Y-68477861D01*
X181468907Y-68455625D01*
X181526316Y-68445304D01*
X181579682Y-68448067D01*
X181609543Y-68459212D01*
X181621261Y-68462383D01*
X181629037Y-68450557D01*
X181634465Y-68418866D01*
X181638571Y-68370593D01*
X181643067Y-68316829D01*
X181649313Y-68284482D01*
X181660676Y-68265985D01*
X181680528Y-68253770D01*
X181693000Y-68248362D01*
X181740171Y-68228601D01*
X181740117Y-68565358D01*
X181740117Y-68565358D01*
G37*
X181740117Y-68565358D02*
X181739933Y-68673837D01*
X181739219Y-68757287D01*
X181737675Y-68819704D01*
X181735001Y-68865085D01*
X181730894Y-68897429D01*
X181725055Y-68920733D01*
X181717182Y-68938995D01*
X181711221Y-68949418D01*
X181661855Y-69005945D01*
X181599264Y-69041377D01*
X181530013Y-69054090D01*
X181460668Y-69042463D01*
X181419375Y-69021568D01*
X181376025Y-68985422D01*
X181346481Y-68941276D01*
X181328655Y-68883462D01*
X181320463Y-68806313D01*
X181319302Y-68749714D01*
X181319458Y-68745647D01*
X181420857Y-68745647D01*
X181421476Y-68810550D01*
X181424314Y-68853514D01*
X181430840Y-68881622D01*
X181442523Y-68901953D01*
X181456483Y-68917288D01*
X181503365Y-68946890D01*
X181553701Y-68949419D01*
X181601276Y-68924705D01*
X181604979Y-68921356D01*
X181620783Y-68903935D01*
X181630693Y-68883209D01*
X181636058Y-68852362D01*
X181638228Y-68804577D01*
X181638571Y-68751748D01*
X181637827Y-68685381D01*
X181634748Y-68641106D01*
X181628061Y-68612009D01*
X181616496Y-68591173D01*
X181607013Y-68580107D01*
X181562960Y-68552198D01*
X181512224Y-68548843D01*
X181463796Y-68570159D01*
X181454450Y-68578073D01*
X181438540Y-68595647D01*
X181428610Y-68616587D01*
X181423278Y-68647782D01*
X181421163Y-68696122D01*
X181420857Y-68745647D01*
X181319458Y-68745647D01*
X181322810Y-68658568D01*
X181334726Y-68590086D01*
X181357135Y-68538600D01*
X181392124Y-68498443D01*
X181419375Y-68477861D01*
X181468907Y-68455625D01*
X181526316Y-68445304D01*
X181579682Y-68448067D01*
X181609543Y-68459212D01*
X181621261Y-68462383D01*
X181629037Y-68450557D01*
X181634465Y-68418866D01*
X181638571Y-68370593D01*
X181643067Y-68316829D01*
X181649313Y-68284482D01*
X181660676Y-68265985D01*
X181680528Y-68253770D01*
X181693000Y-68248362D01*
X181740171Y-68228601D01*
X181740117Y-68565358D01*
G36*
X181079926Y-68449755D02*
G01*
X181145858Y-68474084D01*
X181199273Y-68517117D01*
X181220164Y-68547409D01*
X181242939Y-68602994D01*
X181242466Y-68643186D01*
X181218562Y-68670217D01*
X181209717Y-68674813D01*
X181171530Y-68689144D01*
X181152028Y-68685472D01*
X181145422Y-68661407D01*
X181145086Y-68648114D01*
X181132992Y-68599210D01*
X181101471Y-68564999D01*
X181057659Y-68548476D01*
X181008695Y-68552634D01*
X180968894Y-68574227D01*
X180955450Y-68586544D01*
X180945921Y-68601487D01*
X180939485Y-68624075D01*
X180935317Y-68659328D01*
X180932597Y-68712266D01*
X180930502Y-68787907D01*
X180929960Y-68811857D01*
X180927981Y-68893790D01*
X180925731Y-68951455D01*
X180922357Y-68989608D01*
X180917006Y-69013004D01*
X180908824Y-69026398D01*
X180896959Y-69034545D01*
X180889362Y-69038144D01*
X180857102Y-69050452D01*
X180838111Y-69054514D01*
X180831836Y-69040948D01*
X180828006Y-68999934D01*
X180826600Y-68930999D01*
X180827598Y-68833669D01*
X180827908Y-68818657D01*
X180830101Y-68729859D01*
X180832693Y-68665019D01*
X180836382Y-68619067D01*
X180841864Y-68586935D01*
X180849835Y-68563553D01*
X180860993Y-68543852D01*
X180866830Y-68535410D01*
X180900296Y-68498057D01*
X180937727Y-68469003D01*
X180942309Y-68466467D01*
X181009426Y-68446443D01*
X181079926Y-68449755D01*
X181079926Y-68449755D01*
G37*
X181079926Y-68449755D02*
X181145858Y-68474084D01*
X181199273Y-68517117D01*
X181220164Y-68547409D01*
X181242939Y-68602994D01*
X181242466Y-68643186D01*
X181218562Y-68670217D01*
X181209717Y-68674813D01*
X181171530Y-68689144D01*
X181152028Y-68685472D01*
X181145422Y-68661407D01*
X181145086Y-68648114D01*
X181132992Y-68599210D01*
X181101471Y-68564999D01*
X181057659Y-68548476D01*
X181008695Y-68552634D01*
X180968894Y-68574227D01*
X180955450Y-68586544D01*
X180945921Y-68601487D01*
X180939485Y-68624075D01*
X180935317Y-68659328D01*
X180932597Y-68712266D01*
X180930502Y-68787907D01*
X180929960Y-68811857D01*
X180927981Y-68893790D01*
X180925731Y-68951455D01*
X180922357Y-68989608D01*
X180917006Y-69013004D01*
X180908824Y-69026398D01*
X180896959Y-69034545D01*
X180889362Y-69038144D01*
X180857102Y-69050452D01*
X180838111Y-69054514D01*
X180831836Y-69040948D01*
X180828006Y-68999934D01*
X180826600Y-68930999D01*
X180827598Y-68833669D01*
X180827908Y-68818657D01*
X180830101Y-68729859D01*
X180832693Y-68665019D01*
X180836382Y-68619067D01*
X180841864Y-68586935D01*
X180849835Y-68563553D01*
X180860993Y-68543852D01*
X180866830Y-68535410D01*
X180900296Y-68498057D01*
X180937727Y-68469003D01*
X180942309Y-68466467D01*
X181009426Y-68446443D01*
X181079926Y-68449755D01*
G36*
X180589744Y-68450968D02*
G01*
X180646616Y-68472087D01*
X180647267Y-68472493D01*
X180682440Y-68498380D01*
X180708407Y-68528633D01*
X180726670Y-68568058D01*
X180738732Y-68621462D01*
X180746096Y-68693651D01*
X180750264Y-68789432D01*
X180750629Y-68803078D01*
X180755876Y-69008842D01*
X180711716Y-69031678D01*
X180679763Y-69047110D01*
X180660470Y-69054423D01*
X180659578Y-69054514D01*
X180656239Y-69041022D01*
X180653587Y-69004626D01*
X180651956Y-68951452D01*
X180651600Y-68908393D01*
X180651592Y-68838641D01*
X180648403Y-68794837D01*
X180637288Y-68773944D01*
X180613501Y-68772925D01*
X180572296Y-68788741D01*
X180510086Y-68817815D01*
X180464341Y-68841963D01*
X180440813Y-68862913D01*
X180433896Y-68885747D01*
X180433886Y-68886877D01*
X180445299Y-68926212D01*
X180479092Y-68947462D01*
X180530809Y-68950539D01*
X180568061Y-68950006D01*
X180587703Y-68960735D01*
X180599952Y-68986505D01*
X180607002Y-69019337D01*
X180596842Y-69037966D01*
X180593017Y-69040632D01*
X180557001Y-69051340D01*
X180506566Y-69052856D01*
X180454626Y-69045759D01*
X180417822Y-69032788D01*
X180366938Y-68989585D01*
X180338014Y-68929446D01*
X180332286Y-68882462D01*
X180336657Y-68840082D01*
X180352475Y-68805488D01*
X180383797Y-68774763D01*
X180434678Y-68743990D01*
X180509176Y-68709252D01*
X180513714Y-68707288D01*
X180580821Y-68676287D01*
X180622232Y-68650862D01*
X180639981Y-68628014D01*
X180636107Y-68604745D01*
X180612643Y-68578056D01*
X180605627Y-68571914D01*
X180558630Y-68548100D01*
X180509933Y-68549103D01*
X180467522Y-68572451D01*
X180439384Y-68615675D01*
X180436769Y-68624160D01*
X180411308Y-68665308D01*
X180379001Y-68685128D01*
X180332286Y-68704770D01*
X180332286Y-68653950D01*
X180346496Y-68580082D01*
X180388675Y-68512327D01*
X180410624Y-68489661D01*
X180460517Y-68460569D01*
X180523967Y-68447400D01*
X180589744Y-68450968D01*
X180589744Y-68450968D01*
G37*
X180589744Y-68450968D02*
X180646616Y-68472087D01*
X180647267Y-68472493D01*
X180682440Y-68498380D01*
X180708407Y-68528633D01*
X180726670Y-68568058D01*
X180738732Y-68621462D01*
X180746096Y-68693651D01*
X180750264Y-68789432D01*
X180750629Y-68803078D01*
X180755876Y-69008842D01*
X180711716Y-69031678D01*
X180679763Y-69047110D01*
X180660470Y-69054423D01*
X180659578Y-69054514D01*
X180656239Y-69041022D01*
X180653587Y-69004626D01*
X180651956Y-68951452D01*
X180651600Y-68908393D01*
X180651592Y-68838641D01*
X180648403Y-68794837D01*
X180637288Y-68773944D01*
X180613501Y-68772925D01*
X180572296Y-68788741D01*
X180510086Y-68817815D01*
X180464341Y-68841963D01*
X180440813Y-68862913D01*
X180433896Y-68885747D01*
X180433886Y-68886877D01*
X180445299Y-68926212D01*
X180479092Y-68947462D01*
X180530809Y-68950539D01*
X180568061Y-68950006D01*
X180587703Y-68960735D01*
X180599952Y-68986505D01*
X180607002Y-69019337D01*
X180596842Y-69037966D01*
X180593017Y-69040632D01*
X180557001Y-69051340D01*
X180506566Y-69052856D01*
X180454626Y-69045759D01*
X180417822Y-69032788D01*
X180366938Y-68989585D01*
X180338014Y-68929446D01*
X180332286Y-68882462D01*
X180336657Y-68840082D01*
X180352475Y-68805488D01*
X180383797Y-68774763D01*
X180434678Y-68743990D01*
X180509176Y-68709252D01*
X180513714Y-68707288D01*
X180580821Y-68676287D01*
X180622232Y-68650862D01*
X180639981Y-68628014D01*
X180636107Y-68604745D01*
X180612643Y-68578056D01*
X180605627Y-68571914D01*
X180558630Y-68548100D01*
X180509933Y-68549103D01*
X180467522Y-68572451D01*
X180439384Y-68615675D01*
X180436769Y-68624160D01*
X180411308Y-68665308D01*
X180379001Y-68685128D01*
X180332286Y-68704770D01*
X180332286Y-68653950D01*
X180346496Y-68580082D01*
X180388675Y-68512327D01*
X180410624Y-68489661D01*
X180460517Y-68460569D01*
X180523967Y-68447400D01*
X180589744Y-68450968D01*
G36*
X179925886Y-68351289D02*
G01*
X179930139Y-68410613D01*
X179935025Y-68445572D01*
X179941795Y-68460820D01*
X179951702Y-68461015D01*
X179954914Y-68459195D01*
X179997644Y-68446015D01*
X180053227Y-68446785D01*
X180109737Y-68460333D01*
X180145082Y-68477861D01*
X180181321Y-68505861D01*
X180207813Y-68537549D01*
X180225999Y-68577813D01*
X180237322Y-68631543D01*
X180243222Y-68703626D01*
X180245143Y-68798951D01*
X180245177Y-68817237D01*
X180245200Y-69022646D01*
X180199491Y-69038580D01*
X180167027Y-69049420D01*
X180149215Y-69054468D01*
X180148691Y-69054514D01*
X180146937Y-69040828D01*
X180145444Y-69003076D01*
X180144326Y-68946224D01*
X180143697Y-68875234D01*
X180143600Y-68832073D01*
X180143398Y-68746973D01*
X180142358Y-68685981D01*
X180139831Y-68644177D01*
X180135164Y-68616642D01*
X180127707Y-68598456D01*
X180116811Y-68584698D01*
X180110007Y-68578073D01*
X180063272Y-68551375D01*
X180012272Y-68549375D01*
X179966001Y-68571955D01*
X179957444Y-68580107D01*
X179944893Y-68595436D01*
X179936188Y-68613618D01*
X179930631Y-68639909D01*
X179927526Y-68679562D01*
X179926176Y-68737832D01*
X179925886Y-68818173D01*
X179925886Y-69022646D01*
X179880177Y-69038580D01*
X179847713Y-69049420D01*
X179829901Y-69054468D01*
X179829377Y-69054514D01*
X179828037Y-69040623D01*
X179826828Y-69001439D01*
X179825801Y-68940700D01*
X179825002Y-68862141D01*
X179824481Y-68769498D01*
X179824286Y-68666509D01*
X179824286Y-68269342D01*
X179871457Y-68249444D01*
X179918629Y-68229547D01*
X179925886Y-68351289D01*
X179925886Y-68351289D01*
G37*
X179925886Y-68351289D02*
X179930139Y-68410613D01*
X179935025Y-68445572D01*
X179941795Y-68460820D01*
X179951702Y-68461015D01*
X179954914Y-68459195D01*
X179997644Y-68446015D01*
X180053227Y-68446785D01*
X180109737Y-68460333D01*
X180145082Y-68477861D01*
X180181321Y-68505861D01*
X180207813Y-68537549D01*
X180225999Y-68577813D01*
X180237322Y-68631543D01*
X180243222Y-68703626D01*
X180245143Y-68798951D01*
X180245177Y-68817237D01*
X180245200Y-69022646D01*
X180199491Y-69038580D01*
X180167027Y-69049420D01*
X180149215Y-69054468D01*
X180148691Y-69054514D01*
X180146937Y-69040828D01*
X180145444Y-69003076D01*
X180144326Y-68946224D01*
X180143697Y-68875234D01*
X180143600Y-68832073D01*
X180143398Y-68746973D01*
X180142358Y-68685981D01*
X180139831Y-68644177D01*
X180135164Y-68616642D01*
X180127707Y-68598456D01*
X180116811Y-68584698D01*
X180110007Y-68578073D01*
X180063272Y-68551375D01*
X180012272Y-68549375D01*
X179966001Y-68571955D01*
X179957444Y-68580107D01*
X179944893Y-68595436D01*
X179936188Y-68613618D01*
X179930631Y-68639909D01*
X179927526Y-68679562D01*
X179926176Y-68737832D01*
X179925886Y-68818173D01*
X179925886Y-69022646D01*
X179880177Y-69038580D01*
X179847713Y-69049420D01*
X179829901Y-69054468D01*
X179829377Y-69054514D01*
X179828037Y-69040623D01*
X179826828Y-69001439D01*
X179825801Y-68940700D01*
X179825002Y-68862141D01*
X179824481Y-68769498D01*
X179824286Y-68666509D01*
X179824286Y-68269342D01*
X179871457Y-68249444D01*
X179918629Y-68229547D01*
X179925886Y-68351289D01*
G36*
X178718303Y-68431239D02*
G01*
X178775527Y-68469735D01*
X178819749Y-68525335D01*
X178846167Y-68596086D01*
X178851510Y-68648162D01*
X178850903Y-68669893D01*
X178845822Y-68686531D01*
X178831855Y-68701437D01*
X178804589Y-68717973D01*
X178759612Y-68739498D01*
X178692511Y-68769374D01*
X178692171Y-68769524D01*
X178630407Y-68797813D01*
X178579759Y-68822933D01*
X178545404Y-68842179D01*
X178532518Y-68852848D01*
X178532514Y-68852934D01*
X178543872Y-68876166D01*
X178570431Y-68901774D01*
X178600923Y-68920221D01*
X178616370Y-68923886D01*
X178658515Y-68911212D01*
X178694808Y-68879471D01*
X178712517Y-68844572D01*
X178729552Y-68818845D01*
X178762922Y-68789546D01*
X178802149Y-68764235D01*
X178836756Y-68750471D01*
X178843993Y-68749714D01*
X178852139Y-68762160D01*
X178852630Y-68793972D01*
X178846643Y-68836866D01*
X178835357Y-68882558D01*
X178819950Y-68922761D01*
X178819171Y-68924322D01*
X178772804Y-68989062D01*
X178712711Y-69033097D01*
X178644465Y-69054711D01*
X178573638Y-69052185D01*
X178505804Y-69023804D01*
X178502788Y-69021808D01*
X178449427Y-68973448D01*
X178414340Y-68910352D01*
X178394922Y-68827387D01*
X178392316Y-68804078D01*
X178387701Y-68694055D01*
X178393233Y-68642748D01*
X178532514Y-68642748D01*
X178534324Y-68674753D01*
X178544222Y-68684093D01*
X178568898Y-68677105D01*
X178607795Y-68660587D01*
X178651275Y-68639881D01*
X178652356Y-68639333D01*
X178689209Y-68619949D01*
X178704000Y-68607013D01*
X178700353Y-68593451D01*
X178684995Y-68575632D01*
X178645923Y-68549845D01*
X178603846Y-68547950D01*
X178566103Y-68566717D01*
X178540034Y-68602915D01*
X178532514Y-68642748D01*
X178393233Y-68642748D01*
X178397194Y-68606027D01*
X178421550Y-68536212D01*
X178455456Y-68487302D01*
X178516653Y-68437878D01*
X178584063Y-68413359D01*
X178652880Y-68411797D01*
X178718303Y-68431239D01*
X178718303Y-68431239D01*
G37*
X178718303Y-68431239D02*
X178775527Y-68469735D01*
X178819749Y-68525335D01*
X178846167Y-68596086D01*
X178851510Y-68648162D01*
X178850903Y-68669893D01*
X178845822Y-68686531D01*
X178831855Y-68701437D01*
X178804589Y-68717973D01*
X178759612Y-68739498D01*
X178692511Y-68769374D01*
X178692171Y-68769524D01*
X178630407Y-68797813D01*
X178579759Y-68822933D01*
X178545404Y-68842179D01*
X178532518Y-68852848D01*
X178532514Y-68852934D01*
X178543872Y-68876166D01*
X178570431Y-68901774D01*
X178600923Y-68920221D01*
X178616370Y-68923886D01*
X178658515Y-68911212D01*
X178694808Y-68879471D01*
X178712517Y-68844572D01*
X178729552Y-68818845D01*
X178762922Y-68789546D01*
X178802149Y-68764235D01*
X178836756Y-68750471D01*
X178843993Y-68749714D01*
X178852139Y-68762160D01*
X178852630Y-68793972D01*
X178846643Y-68836866D01*
X178835357Y-68882558D01*
X178819950Y-68922761D01*
X178819171Y-68924322D01*
X178772804Y-68989062D01*
X178712711Y-69033097D01*
X178644465Y-69054711D01*
X178573638Y-69052185D01*
X178505804Y-69023804D01*
X178502788Y-69021808D01*
X178449427Y-68973448D01*
X178414340Y-68910352D01*
X178394922Y-68827387D01*
X178392316Y-68804078D01*
X178387701Y-68694055D01*
X178393233Y-68642748D01*
X178532514Y-68642748D01*
X178534324Y-68674753D01*
X178544222Y-68684093D01*
X178568898Y-68677105D01*
X178607795Y-68660587D01*
X178651275Y-68639881D01*
X178652356Y-68639333D01*
X178689209Y-68619949D01*
X178704000Y-68607013D01*
X178700353Y-68593451D01*
X178684995Y-68575632D01*
X178645923Y-68549845D01*
X178603846Y-68547950D01*
X178566103Y-68566717D01*
X178540034Y-68602915D01*
X178532514Y-68642748D01*
X178393233Y-68642748D01*
X178397194Y-68606027D01*
X178421550Y-68536212D01*
X178455456Y-68487302D01*
X178516653Y-68437878D01*
X178584063Y-68413359D01*
X178652880Y-68411797D01*
X178718303Y-68431239D01*
G36*
X177591115Y-68421962D02*
G01*
X177659145Y-68457733D01*
X177709351Y-68515301D01*
X177727185Y-68552312D01*
X177741063Y-68607882D01*
X177748167Y-68678096D01*
X177748840Y-68754727D01*
X177743427Y-68829552D01*
X177732270Y-68894342D01*
X177715714Y-68940873D01*
X177710626Y-68948887D01*
X177650355Y-69008707D01*
X177578769Y-69044535D01*
X177501092Y-69055020D01*
X177422548Y-69038810D01*
X177400689Y-69029092D01*
X177358122Y-68999143D01*
X177320763Y-68959433D01*
X177317232Y-68954397D01*
X177302881Y-68930124D01*
X177293394Y-68904178D01*
X177287790Y-68870022D01*
X177285086Y-68821119D01*
X177284299Y-68750935D01*
X177284286Y-68735200D01*
X177284322Y-68730192D01*
X177429429Y-68730192D01*
X177430273Y-68796430D01*
X177433596Y-68840386D01*
X177440583Y-68868779D01*
X177452416Y-68888325D01*
X177458457Y-68894857D01*
X177493186Y-68919680D01*
X177526903Y-68918548D01*
X177560995Y-68897016D01*
X177581329Y-68874029D01*
X177593371Y-68840478D01*
X177600134Y-68787569D01*
X177600598Y-68781399D01*
X177601752Y-68685513D01*
X177589688Y-68614299D01*
X177564570Y-68568194D01*
X177526560Y-68547635D01*
X177512992Y-68546514D01*
X177477364Y-68552152D01*
X177452994Y-68571686D01*
X177438093Y-68609042D01*
X177430875Y-68668150D01*
X177429429Y-68730192D01*
X177284322Y-68730192D01*
X177284826Y-68660413D01*
X177287096Y-68608159D01*
X177292068Y-68571949D01*
X177300713Y-68545299D01*
X177314005Y-68521722D01*
X177316943Y-68517338D01*
X177366313Y-68458249D01*
X177420109Y-68423947D01*
X177485602Y-68410331D01*
X177507842Y-68409665D01*
X177591115Y-68421962D01*
X177591115Y-68421962D01*
G37*
X177591115Y-68421962D02*
X177659145Y-68457733D01*
X177709351Y-68515301D01*
X177727185Y-68552312D01*
X177741063Y-68607882D01*
X177748167Y-68678096D01*
X177748840Y-68754727D01*
X177743427Y-68829552D01*
X177732270Y-68894342D01*
X177715714Y-68940873D01*
X177710626Y-68948887D01*
X177650355Y-69008707D01*
X177578769Y-69044535D01*
X177501092Y-69055020D01*
X177422548Y-69038810D01*
X177400689Y-69029092D01*
X177358122Y-68999143D01*
X177320763Y-68959433D01*
X177317232Y-68954397D01*
X177302881Y-68930124D01*
X177293394Y-68904178D01*
X177287790Y-68870022D01*
X177285086Y-68821119D01*
X177284299Y-68750935D01*
X177284286Y-68735200D01*
X177284322Y-68730192D01*
X177429429Y-68730192D01*
X177430273Y-68796430D01*
X177433596Y-68840386D01*
X177440583Y-68868779D01*
X177452416Y-68888325D01*
X177458457Y-68894857D01*
X177493186Y-68919680D01*
X177526903Y-68918548D01*
X177560995Y-68897016D01*
X177581329Y-68874029D01*
X177593371Y-68840478D01*
X177600134Y-68787569D01*
X177600598Y-68781399D01*
X177601752Y-68685513D01*
X177589688Y-68614299D01*
X177564570Y-68568194D01*
X177526560Y-68547635D01*
X177512992Y-68546514D01*
X177477364Y-68552152D01*
X177452994Y-68571686D01*
X177438093Y-68609042D01*
X177430875Y-68668150D01*
X177429429Y-68730192D01*
X177284322Y-68730192D01*
X177284826Y-68660413D01*
X177287096Y-68608159D01*
X177292068Y-68571949D01*
X177300713Y-68545299D01*
X177314005Y-68521722D01*
X177316943Y-68517338D01*
X177366313Y-68458249D01*
X177420109Y-68423947D01*
X177485602Y-68410331D01*
X177507842Y-68409665D01*
X177591115Y-68421962D01*
G36*
X179266093Y-68427780D02*
G01*
X179312672Y-68454723D01*
X179345057Y-68481466D01*
X179368742Y-68509484D01*
X179385059Y-68543748D01*
X179395339Y-68589227D01*
X179400914Y-68650892D01*
X179403116Y-68733711D01*
X179403371Y-68793246D01*
X179403371Y-69012391D01*
X179341686Y-69040044D01*
X179280000Y-69067697D01*
X179272743Y-68827670D01*
X179269744Y-68738028D01*
X179266598Y-68672962D01*
X179262701Y-68628026D01*
X179257447Y-68598770D01*
X179250231Y-68580748D01*
X179240450Y-68569511D01*
X179237312Y-68567079D01*
X179189761Y-68548083D01*
X179141697Y-68555600D01*
X179113086Y-68575543D01*
X179101447Y-68589675D01*
X179093391Y-68608220D01*
X179088271Y-68636334D01*
X179085441Y-68679173D01*
X179084256Y-68741895D01*
X179084057Y-68807261D01*
X179084018Y-68889268D01*
X179082614Y-68947316D01*
X179077914Y-68986465D01*
X179067987Y-69011780D01*
X179050903Y-69028323D01*
X179024732Y-69041156D01*
X178989775Y-69054491D01*
X178951596Y-69069007D01*
X178956141Y-68811389D01*
X178957971Y-68718519D01*
X178960112Y-68649889D01*
X178963181Y-68600711D01*
X178967794Y-68566198D01*
X178974568Y-68541562D01*
X178984119Y-68522016D01*
X178995634Y-68504770D01*
X179051190Y-68449680D01*
X179118980Y-68417822D01*
X179192713Y-68410191D01*
X179266093Y-68427780D01*
X179266093Y-68427780D01*
G37*
X179266093Y-68427780D02*
X179312672Y-68454723D01*
X179345057Y-68481466D01*
X179368742Y-68509484D01*
X179385059Y-68543748D01*
X179395339Y-68589227D01*
X179400914Y-68650892D01*
X179403116Y-68733711D01*
X179403371Y-68793246D01*
X179403371Y-69012391D01*
X179341686Y-69040044D01*
X179280000Y-69067697D01*
X179272743Y-68827670D01*
X179269744Y-68738028D01*
X179266598Y-68672962D01*
X179262701Y-68628026D01*
X179257447Y-68598770D01*
X179250231Y-68580748D01*
X179240450Y-68569511D01*
X179237312Y-68567079D01*
X179189761Y-68548083D01*
X179141697Y-68555600D01*
X179113086Y-68575543D01*
X179101447Y-68589675D01*
X179093391Y-68608220D01*
X179088271Y-68636334D01*
X179085441Y-68679173D01*
X179084256Y-68741895D01*
X179084057Y-68807261D01*
X179084018Y-68889268D01*
X179082614Y-68947316D01*
X179077914Y-68986465D01*
X179067987Y-69011780D01*
X179050903Y-69028323D01*
X179024732Y-69041156D01*
X178989775Y-69054491D01*
X178951596Y-69069007D01*
X178956141Y-68811389D01*
X178957971Y-68718519D01*
X178960112Y-68649889D01*
X178963181Y-68600711D01*
X178967794Y-68566198D01*
X178974568Y-68541562D01*
X178984119Y-68522016D01*
X178995634Y-68504770D01*
X179051190Y-68449680D01*
X179118980Y-68417822D01*
X179192713Y-68410191D01*
X179266093Y-68427780D01*
G36*
X178149744Y-68419918D02*
G01*
X178205201Y-68447568D01*
X178254148Y-68498480D01*
X178267629Y-68517338D01*
X178282314Y-68542015D01*
X178291842Y-68568816D01*
X178297293Y-68604587D01*
X178299747Y-68656169D01*
X178300286Y-68724267D01*
X178297852Y-68817588D01*
X178289394Y-68887657D01*
X178273174Y-68939931D01*
X178247454Y-68979869D01*
X178210497Y-69012929D01*
X178207782Y-69014886D01*
X178171360Y-69034908D01*
X178127502Y-69044815D01*
X178071724Y-69047257D01*
X177981048Y-69047257D01*
X177981010Y-69135283D01*
X177980166Y-69184308D01*
X177975024Y-69213065D01*
X177961587Y-69230311D01*
X177935858Y-69244808D01*
X177929679Y-69247769D01*
X177900764Y-69261648D01*
X177878376Y-69270414D01*
X177861729Y-69271171D01*
X177850036Y-69261023D01*
X177842510Y-69237073D01*
X177838366Y-69196426D01*
X177836815Y-69136186D01*
X177837071Y-69053455D01*
X177838349Y-68945339D01*
X177838748Y-68913000D01*
X177840185Y-68801524D01*
X177841472Y-68728603D01*
X177980971Y-68728603D01*
X177981755Y-68790499D01*
X177985240Y-68830997D01*
X177993124Y-68857708D01*
X178007105Y-68878244D01*
X178016597Y-68888260D01*
X178055404Y-68917567D01*
X178089763Y-68919952D01*
X178125216Y-68895750D01*
X178126114Y-68894857D01*
X178140539Y-68876153D01*
X178149313Y-68850732D01*
X178153739Y-68811584D01*
X178155118Y-68751697D01*
X178155143Y-68738430D01*
X178151812Y-68655901D01*
X178140969Y-68598691D01*
X178121340Y-68563766D01*
X178091650Y-68548094D01*
X178074491Y-68546514D01*
X178033766Y-68553926D01*
X178005832Y-68578330D01*
X177989017Y-68622980D01*
X177981650Y-68691130D01*
X177980971Y-68728603D01*
X177841472Y-68728603D01*
X177841708Y-68715245D01*
X177843677Y-68650333D01*
X177846450Y-68602958D01*
X177850388Y-68569290D01*
X177855849Y-68545498D01*
X177863192Y-68527753D01*
X177872777Y-68512224D01*
X177876887Y-68506381D01*
X177931405Y-68451185D01*
X178000336Y-68419890D01*
X178080072Y-68411165D01*
X178149744Y-68419918D01*
X178149744Y-68419918D01*
G37*
X178149744Y-68419918D02*
X178205201Y-68447568D01*
X178254148Y-68498480D01*
X178267629Y-68517338D01*
X178282314Y-68542015D01*
X178291842Y-68568816D01*
X178297293Y-68604587D01*
X178299747Y-68656169D01*
X178300286Y-68724267D01*
X178297852Y-68817588D01*
X178289394Y-68887657D01*
X178273174Y-68939931D01*
X178247454Y-68979869D01*
X178210497Y-69012929D01*
X178207782Y-69014886D01*
X178171360Y-69034908D01*
X178127502Y-69044815D01*
X178071724Y-69047257D01*
X177981048Y-69047257D01*
X177981010Y-69135283D01*
X177980166Y-69184308D01*
X177975024Y-69213065D01*
X177961587Y-69230311D01*
X177935858Y-69244808D01*
X177929679Y-69247769D01*
X177900764Y-69261648D01*
X177878376Y-69270414D01*
X177861729Y-69271171D01*
X177850036Y-69261023D01*
X177842510Y-69237073D01*
X177838366Y-69196426D01*
X177836815Y-69136186D01*
X177837071Y-69053455D01*
X177838349Y-68945339D01*
X177838748Y-68913000D01*
X177840185Y-68801524D01*
X177841472Y-68728603D01*
X177980971Y-68728603D01*
X177981755Y-68790499D01*
X177985240Y-68830997D01*
X177993124Y-68857708D01*
X178007105Y-68878244D01*
X178016597Y-68888260D01*
X178055404Y-68917567D01*
X178089763Y-68919952D01*
X178125216Y-68895750D01*
X178126114Y-68894857D01*
X178140539Y-68876153D01*
X178149313Y-68850732D01*
X178153739Y-68811584D01*
X178155118Y-68751697D01*
X178155143Y-68738430D01*
X178151812Y-68655901D01*
X178140969Y-68598691D01*
X178121340Y-68563766D01*
X178091650Y-68548094D01*
X178074491Y-68546514D01*
X178033766Y-68553926D01*
X178005832Y-68578330D01*
X177989017Y-68622980D01*
X177981650Y-68691130D01*
X177980971Y-68728603D01*
X177841472Y-68728603D01*
X177841708Y-68715245D01*
X177843677Y-68650333D01*
X177846450Y-68602958D01*
X177850388Y-68569290D01*
X177855849Y-68545498D01*
X177863192Y-68527753D01*
X177872777Y-68512224D01*
X177876887Y-68506381D01*
X177931405Y-68451185D01*
X178000336Y-68419890D01*
X178080072Y-68411165D01*
X178149744Y-68419918D01*
D11*
X184185000Y-84390000D02*
X183426000Y-84390000D01*
X182666000Y-85400000D02*
X182666000Y-83380000D01*
X184185000Y-85400000D02*
X184185000Y-83380000D01*
X184185000Y-83380000D02*
X182666000Y-83380000D01*
X184185000Y-85400000D02*
X182666000Y-85400000D01*
X175715000Y-86105000D02*
X175715000Y-83000000D01*
X175715000Y-87740000D02*
X175715000Y-87095000D01*
X182665000Y-86105000D02*
X182665000Y-83000000D01*
X182665000Y-87740000D02*
X182665000Y-87095000D01*
X182665000Y-83000000D02*
X175715000Y-83000000D01*
X182665000Y-87740000D02*
X175715000Y-87740000D01*
X177920000Y-105745000D02*
X177920000Y-106370000D01*
X177920000Y-103530000D02*
X177920000Y-104155000D01*
X173880000Y-105745000D02*
X173880000Y-106370000D01*
X173880000Y-103530000D02*
X173880000Y-104155000D01*
X173880000Y-106370000D02*
X177920000Y-106370000D01*
X173880000Y-103530000D02*
X177920000Y-103530000D01*
X138270000Y-83600000D02*
X135730000Y-83600000D01*
X126340000Y-80300000D02*
X128600000Y-80300000D01*
X126340000Y-82540000D02*
X128200000Y-82540000D01*
X126340000Y-67140000D02*
X126340000Y-82540000D01*
X166940000Y-67140000D02*
X126340000Y-67140000D01*
X166940000Y-82540000D02*
X166940000Y-67140000D01*
X133100000Y-82540000D02*
X166940000Y-82540000D01*
X131550000Y-81850000D02*
G75*
G03X131550000Y-81850000I-900000J0D01*
G01*
X133200000Y-81850000D02*
G75*
G03X133200000Y-81850000I-2550000J0D01*
G01*
X173480000Y-111020000D02*
X173480000Y-110690000D01*
X166940000Y-111020000D02*
X173480000Y-111020000D01*
X166940000Y-110690000D02*
X166940000Y-111020000D01*
X173480000Y-108280000D02*
X173480000Y-108610000D01*
X166940000Y-108280000D02*
X173480000Y-108280000D01*
X166940000Y-108610000D02*
X166940000Y-108280000D01*
X176520000Y-89180000D02*
X176520000Y-92120000D01*
X176760000Y-89180000D02*
X176760000Y-92120000D01*
X176640000Y-89180000D02*
X176640000Y-92120000D01*
X181180000Y-92120000D02*
X181180000Y-91990000D01*
X175740000Y-92120000D02*
X181180000Y-92120000D01*
X175740000Y-91990000D02*
X175740000Y-92120000D01*
X181180000Y-89180000D02*
X181180000Y-89310000D01*
X175740000Y-89180000D02*
X181180000Y-89180000D01*
X175740000Y-89310000D02*
X175740000Y-89180000D01*
X172170000Y-80145000D02*
X172170000Y-80770000D01*
X172170000Y-77930000D02*
X172170000Y-78555000D01*
X168130000Y-80145000D02*
X168130000Y-80770000D01*
X168130000Y-77930000D02*
X168130000Y-78555000D01*
X168130000Y-80770000D02*
X172170000Y-80770000D01*
X168130000Y-77930000D02*
X172170000Y-77930000D01*
X183710000Y-92610000D02*
X173210000Y-92610000D01*
X183710000Y-103010000D02*
X183710000Y-92610000D01*
X173210000Y-103010000D02*
X183710000Y-103010000D01*
X173210000Y-92610000D02*
X173210000Y-103010000D01*
X180710000Y-92670000D02*
X179460000Y-92670000D01*
X180710000Y-102950000D02*
X180710000Y-92670000D01*
X176210000Y-102950000D02*
X180710000Y-102950000D01*
X176210000Y-92670000D02*
X176210000Y-102950000D01*
X177460000Y-92670000D02*
X176210000Y-92670000D01*
X179460000Y-92670000D02*
G75*
G02X177460000Y-92670000I-1000000J0D01*
G01*
X182970000Y-105795000D02*
X182970000Y-106420000D01*
X182970000Y-103580000D02*
X182970000Y-104205000D01*
X178930000Y-105795000D02*
X178930000Y-106420000D01*
X178930000Y-103580000D02*
X178930000Y-104205000D01*
X178930000Y-106420000D02*
X182970000Y-106420000D01*
X178930000Y-103580000D02*
X182970000Y-103580000D01*
X130830000Y-64105000D02*
X130830000Y-63480000D01*
X130830000Y-66320000D02*
X130830000Y-65695000D01*
X134870000Y-64105000D02*
X134870000Y-63480000D01*
X134870000Y-66320000D02*
X134870000Y-65695000D01*
X134870000Y-63480000D02*
X130830000Y-63480000D01*
X134870000Y-66320000D02*
X130830000Y-66320000D01*
X130830000Y-88355000D02*
X130830000Y-87730000D01*
X130830000Y-90570000D02*
X130830000Y-89945000D01*
X134870000Y-88355000D02*
X134870000Y-87730000D01*
X134870000Y-90570000D02*
X134870000Y-89945000D01*
X134870000Y-87730000D02*
X130830000Y-87730000D01*
X134870000Y-90570000D02*
X130830000Y-90570000D01*
X136230000Y-109205000D02*
X136230000Y-108580000D01*
X136230000Y-111420000D02*
X136230000Y-110795000D01*
X140270000Y-109205000D02*
X140270000Y-108580000D01*
X140270000Y-111420000D02*
X140270000Y-110795000D01*
X140270000Y-108580000D02*
X136230000Y-108580000D01*
X140270000Y-111420000D02*
X136230000Y-111420000D01*
X138270000Y-108250000D02*
X135730000Y-108250000D01*
X126340000Y-104950000D02*
X128600000Y-104950000D01*
X126340000Y-107190000D02*
X128200000Y-107190000D01*
X126340000Y-91790000D02*
X126340000Y-107190000D01*
X172040000Y-91790000D02*
X126340000Y-91790000D01*
X172040000Y-107190000D02*
X172040000Y-91790000D01*
X133100000Y-107190000D02*
X172040000Y-107190000D01*
X131550000Y-106500000D02*
G75*
G03X131550000Y-106500000I-900000J0D01*
G01*
X133200000Y-106500000D02*
G75*
G03X133200000Y-106500000I-2550000J0D01*
G01*
X138270000Y-87750000D02*
X138270000Y-90550000D01*
X161300000Y-87750000D02*
X135560000Y-87750000D01*
X161300000Y-90550000D02*
X161300000Y-87750000D01*
X135560000Y-90550000D02*
X161300000Y-90550000D01*
X135560000Y-87750000D02*
X135560000Y-90550000D01*
X184720000Y-76900000D02*
G75*
G03X184720000Y-76900000I-5370000J0D01*
G01*
X136230000Y-84755000D02*
X136230000Y-84130000D01*
X136230000Y-86970000D02*
X136230000Y-86345000D01*
X140270000Y-84755000D02*
X140270000Y-84130000D01*
X140270000Y-86970000D02*
X140270000Y-86345000D01*
X140270000Y-84130000D02*
X136230000Y-84130000D01*
X140270000Y-86970000D02*
X136230000Y-86970000D01*
X166790302Y-82835000D02*
X166790302Y-83635000D01*
X166390302Y-83235000D02*
X167190302Y-83235000D01*
X174881000Y-85017000D02*
X174881000Y-86083000D01*
X174841000Y-84782000D02*
X174841000Y-86318000D01*
X174801000Y-84602000D02*
X174801000Y-86498000D01*
X174761000Y-84452000D02*
X174761000Y-86648000D01*
X174721000Y-84321000D02*
X174721000Y-86779000D01*
X174681000Y-84204000D02*
X174681000Y-86896000D01*
X174641000Y-84097000D02*
X174641000Y-87003000D01*
X174601000Y-83998000D02*
X174601000Y-87102000D01*
X174561000Y-83905000D02*
X174561000Y-87195000D01*
X174521000Y-83819000D02*
X174521000Y-87281000D01*
X174481000Y-83737000D02*
X174481000Y-87363000D01*
X174441000Y-83660000D02*
X174441000Y-87440000D01*
X174401000Y-83586000D02*
X174401000Y-87514000D01*
X174361000Y-83516000D02*
X174361000Y-87584000D01*
X174321000Y-83448000D02*
X174321000Y-87652000D01*
X174281000Y-83384000D02*
X174281000Y-87716000D01*
X174241000Y-83322000D02*
X174241000Y-87778000D01*
X174201000Y-83263000D02*
X174201000Y-87837000D01*
X174161000Y-83205000D02*
X174161000Y-87895000D01*
X174121000Y-83150000D02*
X174121000Y-87950000D01*
X174081000Y-83096000D02*
X174081000Y-88004000D01*
X174041000Y-83045000D02*
X174041000Y-88055000D01*
X174001000Y-82994000D02*
X174001000Y-88106000D01*
X173961000Y-82946000D02*
X173961000Y-88154000D01*
X173921000Y-82899000D02*
X173921000Y-88201000D01*
X173881000Y-82853000D02*
X173881000Y-88247000D01*
X173841000Y-82809000D02*
X173841000Y-88291000D01*
X173801000Y-82766000D02*
X173801000Y-88334000D01*
X173761000Y-82724000D02*
X173761000Y-88376000D01*
X173721000Y-86590000D02*
X173721000Y-88417000D01*
X173721000Y-82683000D02*
X173721000Y-84510000D01*
X173681000Y-86590000D02*
X173681000Y-88457000D01*
X173681000Y-82643000D02*
X173681000Y-84510000D01*
X173641000Y-86590000D02*
X173641000Y-88495000D01*
X173641000Y-82605000D02*
X173641000Y-84510000D01*
X173601000Y-86590000D02*
X173601000Y-88533000D01*
X173601000Y-82567000D02*
X173601000Y-84510000D01*
X173561000Y-86590000D02*
X173561000Y-88569000D01*
X173561000Y-82531000D02*
X173561000Y-84510000D01*
X173521000Y-86590000D02*
X173521000Y-88605000D01*
X173521000Y-82495000D02*
X173521000Y-84510000D01*
X173481000Y-86590000D02*
X173481000Y-88640000D01*
X173481000Y-82460000D02*
X173481000Y-84510000D01*
X173441000Y-86590000D02*
X173441000Y-88674000D01*
X173441000Y-82426000D02*
X173441000Y-84510000D01*
X173401000Y-86590000D02*
X173401000Y-88706000D01*
X173401000Y-82394000D02*
X173401000Y-84510000D01*
X173361000Y-86590000D02*
X173361000Y-88739000D01*
X173361000Y-82361000D02*
X173361000Y-84510000D01*
X173321000Y-86590000D02*
X173321000Y-88770000D01*
X173321000Y-82330000D02*
X173321000Y-84510000D01*
X173281000Y-86590000D02*
X173281000Y-88800000D01*
X173281000Y-82300000D02*
X173281000Y-84510000D01*
X173241000Y-86590000D02*
X173241000Y-88830000D01*
X173241000Y-82270000D02*
X173241000Y-84510000D01*
X173201000Y-86590000D02*
X173201000Y-88859000D01*
X173201000Y-82241000D02*
X173201000Y-84510000D01*
X173161000Y-86590000D02*
X173161000Y-88888000D01*
X173161000Y-82212000D02*
X173161000Y-84510000D01*
X173121000Y-86590000D02*
X173121000Y-88915000D01*
X173121000Y-82185000D02*
X173121000Y-84510000D01*
X173081000Y-86590000D02*
X173081000Y-88942000D01*
X173081000Y-82158000D02*
X173081000Y-84510000D01*
X173041000Y-86590000D02*
X173041000Y-88968000D01*
X173041000Y-82132000D02*
X173041000Y-84510000D01*
X173001000Y-86590000D02*
X173001000Y-88994000D01*
X173001000Y-82106000D02*
X173001000Y-84510000D01*
X172961000Y-86590000D02*
X172961000Y-89019000D01*
X172961000Y-82081000D02*
X172961000Y-84510000D01*
X172921000Y-86590000D02*
X172921000Y-89043000D01*
X172921000Y-82057000D02*
X172921000Y-84510000D01*
X172881000Y-86590000D02*
X172881000Y-89067000D01*
X172881000Y-82033000D02*
X172881000Y-84510000D01*
X172841000Y-86590000D02*
X172841000Y-89090000D01*
X172841000Y-82010000D02*
X172841000Y-84510000D01*
X172801000Y-86590000D02*
X172801000Y-89112000D01*
X172801000Y-81988000D02*
X172801000Y-84510000D01*
X172761000Y-86590000D02*
X172761000Y-89134000D01*
X172761000Y-81966000D02*
X172761000Y-84510000D01*
X172721000Y-86590000D02*
X172721000Y-89156000D01*
X172721000Y-81944000D02*
X172721000Y-84510000D01*
X172681000Y-86590000D02*
X172681000Y-89177000D01*
X172681000Y-81923000D02*
X172681000Y-84510000D01*
X172641000Y-86590000D02*
X172641000Y-89197000D01*
X172641000Y-81903000D02*
X172641000Y-84510000D01*
X172601000Y-86590000D02*
X172601000Y-89216000D01*
X172601000Y-81884000D02*
X172601000Y-84510000D01*
X172561000Y-86590000D02*
X172561000Y-89236000D01*
X172561000Y-81864000D02*
X172561000Y-84510000D01*
X172521000Y-86590000D02*
X172521000Y-89254000D01*
X172521000Y-81846000D02*
X172521000Y-84510000D01*
X172481000Y-86590000D02*
X172481000Y-89272000D01*
X172481000Y-81828000D02*
X172481000Y-84510000D01*
X172441000Y-86590000D02*
X172441000Y-89290000D01*
X172441000Y-81810000D02*
X172441000Y-84510000D01*
X172401000Y-86590000D02*
X172401000Y-89307000D01*
X172401000Y-81793000D02*
X172401000Y-84510000D01*
X172361000Y-86590000D02*
X172361000Y-89324000D01*
X172361000Y-81776000D02*
X172361000Y-84510000D01*
X172321000Y-86590000D02*
X172321000Y-89340000D01*
X172321000Y-81760000D02*
X172321000Y-84510000D01*
X172281000Y-86590000D02*
X172281000Y-89355000D01*
X172281000Y-81745000D02*
X172281000Y-84510000D01*
X172241000Y-86590000D02*
X172241000Y-89371000D01*
X172241000Y-81729000D02*
X172241000Y-84510000D01*
X172201000Y-86590000D02*
X172201000Y-89385000D01*
X172201000Y-81715000D02*
X172201000Y-84510000D01*
X172161000Y-86590000D02*
X172161000Y-89400000D01*
X172161000Y-81700000D02*
X172161000Y-84510000D01*
X172121000Y-86590000D02*
X172121000Y-89413000D01*
X172121000Y-81687000D02*
X172121000Y-84510000D01*
X172081000Y-86590000D02*
X172081000Y-89427000D01*
X172081000Y-81673000D02*
X172081000Y-84510000D01*
X172041000Y-86590000D02*
X172041000Y-89439000D01*
X172041000Y-81661000D02*
X172041000Y-84510000D01*
X172001000Y-86590000D02*
X172001000Y-89452000D01*
X172001000Y-81648000D02*
X172001000Y-84510000D01*
X171961000Y-86590000D02*
X171961000Y-89464000D01*
X171961000Y-81636000D02*
X171961000Y-84510000D01*
X171921000Y-86590000D02*
X171921000Y-89475000D01*
X171921000Y-81625000D02*
X171921000Y-84510000D01*
X171881000Y-86590000D02*
X171881000Y-89486000D01*
X171881000Y-81614000D02*
X171881000Y-84510000D01*
X171841000Y-86590000D02*
X171841000Y-89497000D01*
X171841000Y-81603000D02*
X171841000Y-84510000D01*
X171801000Y-86590000D02*
X171801000Y-89507000D01*
X171801000Y-81593000D02*
X171801000Y-84510000D01*
X171761000Y-86590000D02*
X171761000Y-89517000D01*
X171761000Y-81583000D02*
X171761000Y-84510000D01*
X171721000Y-86590000D02*
X171721000Y-89526000D01*
X171721000Y-81574000D02*
X171721000Y-84510000D01*
X171681000Y-86590000D02*
X171681000Y-89535000D01*
X171681000Y-81565000D02*
X171681000Y-84510000D01*
X171641000Y-81556000D02*
X171641000Y-89544000D01*
X171601000Y-81548000D02*
X171601000Y-89552000D01*
X171561000Y-81540000D02*
X171561000Y-89560000D01*
X171521000Y-81533000D02*
X171521000Y-89567000D01*
X171480000Y-81526000D02*
X171480000Y-89574000D01*
X171440000Y-81520000D02*
X171440000Y-89580000D01*
X171400000Y-81513000D02*
X171400000Y-89587000D01*
X171360000Y-81508000D02*
X171360000Y-89592000D01*
X171320000Y-81502000D02*
X171320000Y-89598000D01*
X171280000Y-81498000D02*
X171280000Y-89602000D01*
X171240000Y-81493000D02*
X171240000Y-89607000D01*
X171200000Y-81489000D02*
X171200000Y-89611000D01*
X171160000Y-81485000D02*
X171160000Y-89615000D01*
X171120000Y-81482000D02*
X171120000Y-89618000D01*
X171080000Y-81479000D02*
X171080000Y-89621000D01*
X171040000Y-81476000D02*
X171040000Y-89624000D01*
X171000000Y-81474000D02*
X171000000Y-89626000D01*
X170960000Y-81473000D02*
X170960000Y-89627000D01*
X170920000Y-81471000D02*
X170920000Y-89629000D01*
X170880000Y-81470000D02*
X170880000Y-89630000D01*
X170840000Y-81470000D02*
X170840000Y-89630000D01*
X170800000Y-81470000D02*
X170800000Y-89630000D01*
X174920000Y-85550000D02*
G75*
G03X174920000Y-85550000I-4120000J0D01*
G01*
X167740302Y-67835000D02*
X167740302Y-68635000D01*
X167340302Y-68235000D02*
X168140302Y-68235000D01*
X175831000Y-70017000D02*
X175831000Y-71083000D01*
X175791000Y-69782000D02*
X175791000Y-71318000D01*
X175751000Y-69602000D02*
X175751000Y-71498000D01*
X175711000Y-69452000D02*
X175711000Y-71648000D01*
X175671000Y-69321000D02*
X175671000Y-71779000D01*
X175631000Y-69204000D02*
X175631000Y-71896000D01*
X175591000Y-69097000D02*
X175591000Y-72003000D01*
X175551000Y-68998000D02*
X175551000Y-72102000D01*
X175511000Y-68905000D02*
X175511000Y-72195000D01*
X175471000Y-68819000D02*
X175471000Y-72281000D01*
X175431000Y-68737000D02*
X175431000Y-72363000D01*
X175391000Y-68660000D02*
X175391000Y-72440000D01*
X175351000Y-68586000D02*
X175351000Y-72514000D01*
X175311000Y-68516000D02*
X175311000Y-72584000D01*
X175271000Y-68448000D02*
X175271000Y-72652000D01*
X175231000Y-68384000D02*
X175231000Y-72716000D01*
X175191000Y-68322000D02*
X175191000Y-72778000D01*
X175151000Y-68263000D02*
X175151000Y-72837000D01*
X175111000Y-68205000D02*
X175111000Y-72895000D01*
X175071000Y-68150000D02*
X175071000Y-72950000D01*
X175031000Y-68096000D02*
X175031000Y-73004000D01*
X174991000Y-68045000D02*
X174991000Y-73055000D01*
X174951000Y-67994000D02*
X174951000Y-73106000D01*
X174911000Y-67946000D02*
X174911000Y-73154000D01*
X174871000Y-67899000D02*
X174871000Y-73201000D01*
X174831000Y-67853000D02*
X174831000Y-73247000D01*
X174791000Y-67809000D02*
X174791000Y-73291000D01*
X174751000Y-67766000D02*
X174751000Y-73334000D01*
X174711000Y-67724000D02*
X174711000Y-73376000D01*
X174671000Y-71590000D02*
X174671000Y-73417000D01*
X174671000Y-67683000D02*
X174671000Y-69510000D01*
X174631000Y-71590000D02*
X174631000Y-73457000D01*
X174631000Y-67643000D02*
X174631000Y-69510000D01*
X174591000Y-71590000D02*
X174591000Y-73495000D01*
X174591000Y-67605000D02*
X174591000Y-69510000D01*
X174551000Y-71590000D02*
X174551000Y-73533000D01*
X174551000Y-67567000D02*
X174551000Y-69510000D01*
X174511000Y-71590000D02*
X174511000Y-73569000D01*
X174511000Y-67531000D02*
X174511000Y-69510000D01*
X174471000Y-71590000D02*
X174471000Y-73605000D01*
X174471000Y-67495000D02*
X174471000Y-69510000D01*
X174431000Y-71590000D02*
X174431000Y-73640000D01*
X174431000Y-67460000D02*
X174431000Y-69510000D01*
X174391000Y-71590000D02*
X174391000Y-73674000D01*
X174391000Y-67426000D02*
X174391000Y-69510000D01*
X174351000Y-71590000D02*
X174351000Y-73706000D01*
X174351000Y-67394000D02*
X174351000Y-69510000D01*
X174311000Y-71590000D02*
X174311000Y-73739000D01*
X174311000Y-67361000D02*
X174311000Y-69510000D01*
X174271000Y-71590000D02*
X174271000Y-73770000D01*
X174271000Y-67330000D02*
X174271000Y-69510000D01*
X174231000Y-71590000D02*
X174231000Y-73800000D01*
X174231000Y-67300000D02*
X174231000Y-69510000D01*
X174191000Y-71590000D02*
X174191000Y-73830000D01*
X174191000Y-67270000D02*
X174191000Y-69510000D01*
X174151000Y-71590000D02*
X174151000Y-73859000D01*
X174151000Y-67241000D02*
X174151000Y-69510000D01*
X174111000Y-71590000D02*
X174111000Y-73888000D01*
X174111000Y-67212000D02*
X174111000Y-69510000D01*
X174071000Y-71590000D02*
X174071000Y-73915000D01*
X174071000Y-67185000D02*
X174071000Y-69510000D01*
X174031000Y-71590000D02*
X174031000Y-73942000D01*
X174031000Y-67158000D02*
X174031000Y-69510000D01*
X173991000Y-71590000D02*
X173991000Y-73968000D01*
X173991000Y-67132000D02*
X173991000Y-69510000D01*
X173951000Y-71590000D02*
X173951000Y-73994000D01*
X173951000Y-67106000D02*
X173951000Y-69510000D01*
X173911000Y-71590000D02*
X173911000Y-74019000D01*
X173911000Y-67081000D02*
X173911000Y-69510000D01*
X173871000Y-71590000D02*
X173871000Y-74043000D01*
X173871000Y-67057000D02*
X173871000Y-69510000D01*
X173831000Y-71590000D02*
X173831000Y-74067000D01*
X173831000Y-67033000D02*
X173831000Y-69510000D01*
X173791000Y-71590000D02*
X173791000Y-74090000D01*
X173791000Y-67010000D02*
X173791000Y-69510000D01*
X173751000Y-71590000D02*
X173751000Y-74112000D01*
X173751000Y-66988000D02*
X173751000Y-69510000D01*
X173711000Y-71590000D02*
X173711000Y-74134000D01*
X173711000Y-66966000D02*
X173711000Y-69510000D01*
X173671000Y-71590000D02*
X173671000Y-74156000D01*
X173671000Y-66944000D02*
X173671000Y-69510000D01*
X173631000Y-71590000D02*
X173631000Y-74177000D01*
X173631000Y-66923000D02*
X173631000Y-69510000D01*
X173591000Y-71590000D02*
X173591000Y-74197000D01*
X173591000Y-66903000D02*
X173591000Y-69510000D01*
X173551000Y-71590000D02*
X173551000Y-74216000D01*
X173551000Y-66884000D02*
X173551000Y-69510000D01*
X173511000Y-71590000D02*
X173511000Y-74236000D01*
X173511000Y-66864000D02*
X173511000Y-69510000D01*
X173471000Y-71590000D02*
X173471000Y-74254000D01*
X173471000Y-66846000D02*
X173471000Y-69510000D01*
X173431000Y-71590000D02*
X173431000Y-74272000D01*
X173431000Y-66828000D02*
X173431000Y-69510000D01*
X173391000Y-71590000D02*
X173391000Y-74290000D01*
X173391000Y-66810000D02*
X173391000Y-69510000D01*
X173351000Y-71590000D02*
X173351000Y-74307000D01*
X173351000Y-66793000D02*
X173351000Y-69510000D01*
X173311000Y-71590000D02*
X173311000Y-74324000D01*
X173311000Y-66776000D02*
X173311000Y-69510000D01*
X173271000Y-71590000D02*
X173271000Y-74340000D01*
X173271000Y-66760000D02*
X173271000Y-69510000D01*
X173231000Y-71590000D02*
X173231000Y-74355000D01*
X173231000Y-66745000D02*
X173231000Y-69510000D01*
X173191000Y-71590000D02*
X173191000Y-74371000D01*
X173191000Y-66729000D02*
X173191000Y-69510000D01*
X173151000Y-71590000D02*
X173151000Y-74385000D01*
X173151000Y-66715000D02*
X173151000Y-69510000D01*
X173111000Y-71590000D02*
X173111000Y-74400000D01*
X173111000Y-66700000D02*
X173111000Y-69510000D01*
X173071000Y-71590000D02*
X173071000Y-74413000D01*
X173071000Y-66687000D02*
X173071000Y-69510000D01*
X173031000Y-71590000D02*
X173031000Y-74427000D01*
X173031000Y-66673000D02*
X173031000Y-69510000D01*
X172991000Y-71590000D02*
X172991000Y-74439000D01*
X172991000Y-66661000D02*
X172991000Y-69510000D01*
X172951000Y-71590000D02*
X172951000Y-74452000D01*
X172951000Y-66648000D02*
X172951000Y-69510000D01*
X172911000Y-71590000D02*
X172911000Y-74464000D01*
X172911000Y-66636000D02*
X172911000Y-69510000D01*
X172871000Y-71590000D02*
X172871000Y-74475000D01*
X172871000Y-66625000D02*
X172871000Y-69510000D01*
X172831000Y-71590000D02*
X172831000Y-74486000D01*
X172831000Y-66614000D02*
X172831000Y-69510000D01*
X172791000Y-71590000D02*
X172791000Y-74497000D01*
X172791000Y-66603000D02*
X172791000Y-69510000D01*
X172751000Y-71590000D02*
X172751000Y-74507000D01*
X172751000Y-66593000D02*
X172751000Y-69510000D01*
X172711000Y-71590000D02*
X172711000Y-74517000D01*
X172711000Y-66583000D02*
X172711000Y-69510000D01*
X172671000Y-71590000D02*
X172671000Y-74526000D01*
X172671000Y-66574000D02*
X172671000Y-69510000D01*
X172631000Y-71590000D02*
X172631000Y-74535000D01*
X172631000Y-66565000D02*
X172631000Y-69510000D01*
X172591000Y-66556000D02*
X172591000Y-74544000D01*
X172551000Y-66548000D02*
X172551000Y-74552000D01*
X172511000Y-66540000D02*
X172511000Y-74560000D01*
X172471000Y-66533000D02*
X172471000Y-74567000D01*
X172430000Y-66526000D02*
X172430000Y-74574000D01*
X172390000Y-66520000D02*
X172390000Y-74580000D01*
X172350000Y-66513000D02*
X172350000Y-74587000D01*
X172310000Y-66508000D02*
X172310000Y-74592000D01*
X172270000Y-66502000D02*
X172270000Y-74598000D01*
X172230000Y-66498000D02*
X172230000Y-74602000D01*
X172190000Y-66493000D02*
X172190000Y-74607000D01*
X172150000Y-66489000D02*
X172150000Y-74611000D01*
X172110000Y-66485000D02*
X172110000Y-74615000D01*
X172070000Y-66482000D02*
X172070000Y-74618000D01*
X172030000Y-66479000D02*
X172030000Y-74621000D01*
X171990000Y-66476000D02*
X171990000Y-74624000D01*
X171950000Y-66474000D02*
X171950000Y-74626000D01*
X171910000Y-66473000D02*
X171910000Y-74627000D01*
X171870000Y-66471000D02*
X171870000Y-74629000D01*
X171830000Y-66470000D02*
X171830000Y-74630000D01*
X171790000Y-66470000D02*
X171790000Y-74630000D01*
X171750000Y-66470000D02*
X171750000Y-74630000D01*
X175870000Y-70550000D02*
G75*
G03X175870000Y-70550000I-4120000J0D01*
G01*
D10*
X174804761Y-82652380D02*
X174471428Y-82176190D01*
X174233333Y-82652380D02*
X174233333Y-81652380D01*
X174614285Y-81652380D01*
X174709523Y-81700000D01*
X174757142Y-81747619D01*
X174804761Y-81842857D01*
X174804761Y-81985714D01*
X174757142Y-82080952D01*
X174709523Y-82128571D01*
X174614285Y-82176190D01*
X174233333Y-82176190D01*
X175090476Y-81652380D02*
X175423809Y-82652380D01*
X175757142Y-81652380D01*
X176614285Y-82652380D02*
X176042857Y-82652380D01*
X176328571Y-82652380D02*
X176328571Y-81652380D01*
X176233333Y-81795238D01*
X176138095Y-81890476D01*
X176042857Y-81938095D01*
X175733333Y-107557142D02*
X175685714Y-107604761D01*
X175542857Y-107652380D01*
X175447619Y-107652380D01*
X175304761Y-107604761D01*
X175209523Y-107509523D01*
X175161904Y-107414285D01*
X175114285Y-107223809D01*
X175114285Y-107080952D01*
X175161904Y-106890476D01*
X175209523Y-106795238D01*
X175304761Y-106700000D01*
X175447619Y-106652380D01*
X175542857Y-106652380D01*
X175685714Y-106700000D01*
X175733333Y-106747619D01*
X176209523Y-107652380D02*
X176400000Y-107652380D01*
X176495238Y-107604761D01*
X176542857Y-107557142D01*
X176638095Y-107414285D01*
X176685714Y-107223809D01*
X176685714Y-106842857D01*
X176638095Y-106747619D01*
X176590476Y-106700000D01*
X176495238Y-106652380D01*
X176304761Y-106652380D01*
X176209523Y-106700000D01*
X176161904Y-106747619D01*
X176114285Y-106842857D01*
X176114285Y-107080952D01*
X176161904Y-107176190D01*
X176209523Y-107223809D01*
X176304761Y-107271428D01*
X176495238Y-107271428D01*
X176590476Y-107223809D01*
X176638095Y-107176190D01*
X176685714Y-107080952D01*
X126438095Y-82902380D02*
X126438095Y-83711904D01*
X126485714Y-83807142D01*
X126533333Y-83854761D01*
X126628571Y-83902380D01*
X126819047Y-83902380D01*
X126914285Y-83854761D01*
X126961904Y-83807142D01*
X127009523Y-83711904D01*
X127009523Y-82902380D01*
X127438095Y-82997619D02*
X127485714Y-82950000D01*
X127580952Y-82902380D01*
X127819047Y-82902380D01*
X127914285Y-82950000D01*
X127961904Y-82997619D01*
X128009523Y-83092857D01*
X128009523Y-83188095D01*
X127961904Y-83330952D01*
X127390476Y-83902380D01*
X128009523Y-83902380D01*
X163933333Y-110102380D02*
X163600000Y-109626190D01*
X163361904Y-110102380D02*
X163361904Y-109102380D01*
X163742857Y-109102380D01*
X163838095Y-109150000D01*
X163885714Y-109197619D01*
X163933333Y-109292857D01*
X163933333Y-109435714D01*
X163885714Y-109530952D01*
X163838095Y-109578571D01*
X163742857Y-109626190D01*
X163361904Y-109626190D01*
X164885714Y-110102380D02*
X164314285Y-110102380D01*
X164600000Y-110102380D02*
X164600000Y-109102380D01*
X164504761Y-109245238D01*
X164409523Y-109340476D01*
X164314285Y-109388095D01*
X171611904Y-91102380D02*
X171611904Y-90102380D01*
X171850000Y-90102380D01*
X171992857Y-90150000D01*
X172088095Y-90245238D01*
X172135714Y-90340476D01*
X172183333Y-90530952D01*
X172183333Y-90673809D01*
X172135714Y-90864285D01*
X172088095Y-90959523D01*
X171992857Y-91054761D01*
X171850000Y-91102380D01*
X171611904Y-91102380D01*
X173135714Y-91102380D02*
X172564285Y-91102380D01*
X172850000Y-91102380D02*
X172850000Y-90102380D01*
X172754761Y-90245238D01*
X172659523Y-90340476D01*
X172564285Y-90388095D01*
X174388095Y-89002380D02*
X174388095Y-88002380D01*
X174959523Y-89002380D02*
X174530952Y-88430952D01*
X174959523Y-88002380D02*
X174388095Y-88573809D01*
X169983333Y-77507142D02*
X169935714Y-77554761D01*
X169792857Y-77602380D01*
X169697619Y-77602380D01*
X169554761Y-77554761D01*
X169459523Y-77459523D01*
X169411904Y-77364285D01*
X169364285Y-77173809D01*
X169364285Y-77030952D01*
X169411904Y-76840476D01*
X169459523Y-76745238D01*
X169554761Y-76650000D01*
X169697619Y-76602380D01*
X169792857Y-76602380D01*
X169935714Y-76650000D01*
X169983333Y-76697619D01*
X170888095Y-76602380D02*
X170411904Y-76602380D01*
X170364285Y-77078571D01*
X170411904Y-77030952D01*
X170507142Y-76983333D01*
X170745238Y-76983333D01*
X170840476Y-77030952D01*
X170888095Y-77078571D01*
X170935714Y-77173809D01*
X170935714Y-77411904D01*
X170888095Y-77507142D01*
X170840476Y-77554761D01*
X170745238Y-77602380D01*
X170507142Y-77602380D01*
X170411904Y-77554761D01*
X170364285Y-77507142D01*
X177788095Y-97252380D02*
X177788095Y-98061904D01*
X177835714Y-98157142D01*
X177883333Y-98204761D01*
X177978571Y-98252380D01*
X178169047Y-98252380D01*
X178264285Y-98204761D01*
X178311904Y-98157142D01*
X178359523Y-98061904D01*
X178359523Y-97252380D01*
X179359523Y-98252380D02*
X178788095Y-98252380D01*
X179073809Y-98252380D02*
X179073809Y-97252380D01*
X178978571Y-97395238D01*
X178883333Y-97490476D01*
X178788095Y-97538095D01*
X180783333Y-107607142D02*
X180735714Y-107654761D01*
X180592857Y-107702380D01*
X180497619Y-107702380D01*
X180354761Y-107654761D01*
X180259523Y-107559523D01*
X180211904Y-107464285D01*
X180164285Y-107273809D01*
X180164285Y-107130952D01*
X180211904Y-106940476D01*
X180259523Y-106845238D01*
X180354761Y-106750000D01*
X180497619Y-106702380D01*
X180592857Y-106702380D01*
X180735714Y-106750000D01*
X180783333Y-106797619D01*
X181354761Y-107130952D02*
X181259523Y-107083333D01*
X181211904Y-107035714D01*
X181164285Y-106940476D01*
X181164285Y-106892857D01*
X181211904Y-106797619D01*
X181259523Y-106750000D01*
X181354761Y-106702380D01*
X181545238Y-106702380D01*
X181640476Y-106750000D01*
X181688095Y-106797619D01*
X181735714Y-106892857D01*
X181735714Y-106940476D01*
X181688095Y-107035714D01*
X181640476Y-107083333D01*
X181545238Y-107130952D01*
X181354761Y-107130952D01*
X181259523Y-107178571D01*
X181211904Y-107226190D01*
X181164285Y-107321428D01*
X181164285Y-107511904D01*
X181211904Y-107607142D01*
X181259523Y-107654761D01*
X181354761Y-107702380D01*
X181545238Y-107702380D01*
X181640476Y-107654761D01*
X181688095Y-107607142D01*
X181735714Y-107511904D01*
X181735714Y-107321428D01*
X181688095Y-107226190D01*
X181640476Y-107178571D01*
X181545238Y-107130952D01*
X129233333Y-65257142D02*
X129185714Y-65304761D01*
X129042857Y-65352380D01*
X128947619Y-65352380D01*
X128804761Y-65304761D01*
X128709523Y-65209523D01*
X128661904Y-65114285D01*
X128614285Y-64923809D01*
X128614285Y-64780952D01*
X128661904Y-64590476D01*
X128709523Y-64495238D01*
X128804761Y-64400000D01*
X128947619Y-64352380D01*
X129042857Y-64352380D01*
X129185714Y-64400000D01*
X129233333Y-64447619D01*
X129566666Y-64352380D02*
X130233333Y-64352380D01*
X129804761Y-65352380D01*
X132683333Y-87307142D02*
X132635714Y-87354761D01*
X132492857Y-87402380D01*
X132397619Y-87402380D01*
X132254761Y-87354761D01*
X132159523Y-87259523D01*
X132111904Y-87164285D01*
X132064285Y-86973809D01*
X132064285Y-86830952D01*
X132111904Y-86640476D01*
X132159523Y-86545238D01*
X132254761Y-86450000D01*
X132397619Y-86402380D01*
X132492857Y-86402380D01*
X132635714Y-86450000D01*
X132683333Y-86497619D01*
X133540476Y-86402380D02*
X133350000Y-86402380D01*
X133254761Y-86450000D01*
X133207142Y-86497619D01*
X133111904Y-86640476D01*
X133064285Y-86830952D01*
X133064285Y-87211904D01*
X133111904Y-87307142D01*
X133159523Y-87354761D01*
X133254761Y-87402380D01*
X133445238Y-87402380D01*
X133540476Y-87354761D01*
X133588095Y-87307142D01*
X133635714Y-87211904D01*
X133635714Y-86973809D01*
X133588095Y-86878571D01*
X133540476Y-86830952D01*
X133445238Y-86783333D01*
X133254761Y-86783333D01*
X133159523Y-86830952D01*
X133111904Y-86878571D01*
X133064285Y-86973809D01*
X134583333Y-110357142D02*
X134535714Y-110404761D01*
X134392857Y-110452380D01*
X134297619Y-110452380D01*
X134154761Y-110404761D01*
X134059523Y-110309523D01*
X134011904Y-110214285D01*
X133964285Y-110023809D01*
X133964285Y-109880952D01*
X134011904Y-109690476D01*
X134059523Y-109595238D01*
X134154761Y-109500000D01*
X134297619Y-109452380D01*
X134392857Y-109452380D01*
X134535714Y-109500000D01*
X134583333Y-109547619D01*
X135440476Y-109785714D02*
X135440476Y-110452380D01*
X135202380Y-109404761D02*
X134964285Y-110119047D01*
X135583333Y-110119047D01*
X126438095Y-107552380D02*
X126438095Y-108361904D01*
X126485714Y-108457142D01*
X126533333Y-108504761D01*
X126628571Y-108552380D01*
X126819047Y-108552380D01*
X126914285Y-108504761D01*
X126961904Y-108457142D01*
X127009523Y-108361904D01*
X127009523Y-107552380D01*
X127390476Y-107552380D02*
X128009523Y-107552380D01*
X127676190Y-107933333D01*
X127819047Y-107933333D01*
X127914285Y-107980952D01*
X127961904Y-108028571D01*
X128009523Y-108123809D01*
X128009523Y-108361904D01*
X127961904Y-108457142D01*
X127914285Y-108504761D01*
X127819047Y-108552380D01*
X127533333Y-108552380D01*
X127438095Y-108504761D01*
X127390476Y-108457142D01*
X162459523Y-89752380D02*
X162126190Y-89276190D01*
X161888095Y-89752380D02*
X161888095Y-88752380D01*
X162269047Y-88752380D01*
X162364285Y-88800000D01*
X162411904Y-88847619D01*
X162459523Y-88942857D01*
X162459523Y-89085714D01*
X162411904Y-89180952D01*
X162364285Y-89228571D01*
X162269047Y-89276190D01*
X161888095Y-89276190D01*
X162888095Y-89752380D02*
X162888095Y-88752380D01*
X163459523Y-89752380D01*
X163459523Y-88752380D01*
X164459523Y-89752380D02*
X163888095Y-89752380D01*
X164173809Y-89752380D02*
X164173809Y-88752380D01*
X164078571Y-88895238D01*
X163983333Y-88990476D01*
X163888095Y-89038095D01*
X183633333Y-72452380D02*
X183157142Y-72452380D01*
X183157142Y-71452380D01*
X184490476Y-72452380D02*
X183919047Y-72452380D01*
X184204761Y-72452380D02*
X184204761Y-71452380D01*
X184109523Y-71595238D01*
X184014285Y-71690476D01*
X183919047Y-71738095D01*
X141383333Y-85907142D02*
X141335714Y-85954761D01*
X141192857Y-86002380D01*
X141097619Y-86002380D01*
X140954761Y-85954761D01*
X140859523Y-85859523D01*
X140811904Y-85764285D01*
X140764285Y-85573809D01*
X140764285Y-85430952D01*
X140811904Y-85240476D01*
X140859523Y-85145238D01*
X140954761Y-85050000D01*
X141097619Y-85002380D01*
X141192857Y-85002380D01*
X141335714Y-85050000D01*
X141383333Y-85097619D01*
X141716666Y-85002380D02*
X142335714Y-85002380D01*
X142002380Y-85383333D01*
X142145238Y-85383333D01*
X142240476Y-85430952D01*
X142288095Y-85478571D01*
X142335714Y-85573809D01*
X142335714Y-85811904D01*
X142288095Y-85907142D01*
X142240476Y-85954761D01*
X142145238Y-86002380D01*
X141859523Y-86002380D01*
X141764285Y-85954761D01*
X141716666Y-85907142D01*
X165233333Y-85907142D02*
X165185714Y-85954761D01*
X165042857Y-86002380D01*
X164947619Y-86002380D01*
X164804761Y-85954761D01*
X164709523Y-85859523D01*
X164661904Y-85764285D01*
X164614285Y-85573809D01*
X164614285Y-85430952D01*
X164661904Y-85240476D01*
X164709523Y-85145238D01*
X164804761Y-85050000D01*
X164947619Y-85002380D01*
X165042857Y-85002380D01*
X165185714Y-85050000D01*
X165233333Y-85097619D01*
X165614285Y-85097619D02*
X165661904Y-85050000D01*
X165757142Y-85002380D01*
X165995238Y-85002380D01*
X166090476Y-85050000D01*
X166138095Y-85097619D01*
X166185714Y-85192857D01*
X166185714Y-85288095D01*
X166138095Y-85430952D01*
X165566666Y-86002380D01*
X166185714Y-86002380D01*
X175683333Y-67407142D02*
X175635714Y-67454761D01*
X175492857Y-67502380D01*
X175397619Y-67502380D01*
X175254761Y-67454761D01*
X175159523Y-67359523D01*
X175111904Y-67264285D01*
X175064285Y-67073809D01*
X175064285Y-66930952D01*
X175111904Y-66740476D01*
X175159523Y-66645238D01*
X175254761Y-66550000D01*
X175397619Y-66502380D01*
X175492857Y-66502380D01*
X175635714Y-66550000D01*
X175683333Y-66597619D01*
X176635714Y-67502380D02*
X176064285Y-67502380D01*
X176350000Y-67502380D02*
X176350000Y-66502380D01*
X176254761Y-66645238D01*
X176159523Y-66740476D01*
X176064285Y-66788095D01*
M02*
